<svg id="Create_Group_Step_by_step" data-name="Create Group | Step by step" xmlns="http://www.w3.org/2000/svg" width="17.676" height="17.016" viewBox="0 0 17.676 17.016">
  <path id="Caminho_6466" data-name="Caminho 6466" d="M12.039,12.025a4.1,4.1,0,0,0-2.677,7.529.713.713,0,0,1,.316.6h0a.717.717,0,0,1-.6.707A12.089,12.089,0,0,0,5.54,21.981,2.778,2.778,0,0,0,4.047,23.9a2.721,2.721,0,0,0,2.667,3.251H16.43A2.721,2.721,0,0,0,19.1,23.9,2.778,2.778,0,0,0,17.6,21.981a12.089,12.089,0,0,0-3.538-1.121.717.717,0,0,1-.6-.707.707.707,0,0,1,.316-.6,4.1,4.1,0,0,0-1.746-7.529Z" transform="translate(-3.995 -10.135)" fill="#a5b9d5"/>
  <path id="Caminho_6467" data-name="Caminho 6467" d="M40.97,11.115A2.734,2.734,0,1,0,37.6,6.837a.609.609,0,0,0,.063.928,5.366,5.366,0,0,1,1.07,7.532.432.432,0,0,0,.211.682h0a4.271,4.271,0,0,0,1.228.18h2.557A1.815,1.815,0,0,0,44.5,13.971a1.894,1.894,0,0,0-1.038-1.278,8.109,8.109,0,0,0-2.307-.72.469.469,0,0,1-.186-.859Z" transform="translate(-26.865 -6.094)" fill="#a5b9d5"/>
</svg>
