<svg xmlns="http://www.w3.org/2000/svg" width="17" height="18" viewBox="0 0 17 18">
  <path id="Group_Setting_Step_by_step" data-name="Group Setting | Step by step" d="M23.173,10.107a.918.918,0,0,0,.116-1.1l-.625-1.048a.987.987,0,0,0-1.04-.427l-1.283.254a3.077,3.077,0,0,1-2.1-.354h-.02a2.917,2.917,0,0,1-1.346-1.578l-.405-1.215A.971.971,0,0,0,15.547,4H14.294a.971.971,0,0,0-.924.643l-.415,1.205a2.915,2.915,0,0,1-1.329,1.578h-.02a3.077,3.077,0,0,1-2.093.344l-1.3-.235a.986.986,0,0,0-1.04.453L6.549,9.024a.918.918,0,0,0,.113,1.083l.851.926A2.87,2.87,0,0,1,8.273,13h0a2.871,2.871,0,0,1-.761,1.929l-.847.964a.918.918,0,0,0-.116,1.1l.625,1.048a.987.987,0,0,0,1.04.427L9.5,18.21a3.077,3.077,0,0,1,2.1.354h.02a2.917,2.917,0,0,1,1.346,1.578l.405,1.215a.971.971,0,0,0,.924.643h1.253a.971.971,0,0,0,.924-.643l.415-1.2a2.915,2.915,0,0,1,1.329-1.578h.02a3.077,3.077,0,0,1,2.093-.344l1.283.254a.986.986,0,0,0,1.04-.453l.625-1.048a.917.917,0,0,0-.1-1.093l-.871-.964A2.838,2.838,0,0,1,21.564,13h0a2.838,2.838,0,0,1,.738-1.929Zm-8.254,5.464A2.573,2.573,0,1,1,17.577,13,2.616,2.616,0,0,1,14.919,15.571Z" transform="translate(-6.419 -4)" fill="#a5b9d5"/>
</svg>
