<svg xmlns="http://www.w3.org/2000/svg" width="26.657" height="25.321" viewBox="0 0 26.657 25.321">
  <g id="Icon_menu_Attendance_Active_-_Hover" data-name="Icon menu Attendance | Active - Hover" transform="translate(-20.278 -14.804)">
    <path id="messaging-" d="M24.076,10.044a12.329,12.329,0,0,1-11.655,16.32,9.775,9.775,0,0,1-.987-.047A10.308,10.308,0,0,0,23.083,27.91L27.508,29a1.023,1.023,0,0,0,.946-.267,1.012,1.012,0,0,0,.267-.946l-1.093-4.425a10.327,10.327,0,0,0-3.552-13.321Z" transform="translate(18.187 11.096)" fill="#0f7bff" opacity="0.6"/>
    <path id="messaging--2" data-name="messaging-" d="M14.254,5a10.585,10.585,0,0,0-1.244.081A10.216,10.216,0,0,0,5.142,19.9L4.028,24.42a1,1,0,0,0,1.209,1.21l4.525-1.113a10.216,10.216,0,0,0,14.812-7.869A10.34,10.34,0,0,0,14.254,5ZM10.33,12.33h8.662a1,1,0,0,1,0,2H10.33a1,1,0,0,1,0-2Zm0,4.665h6a1,1,0,0,1,0,2h-6a1,1,0,0,1,0-2Z" transform="translate(16.279 9.803)" fill="#0f7bff"/>
  </g>
</svg>
