<svg id="Campaign_-_Active" data-name="Campaign - Active" xmlns="http://www.w3.org/2000/svg" width="21.5" height="20.002" viewBox="0 0 21.5 20.002">
  <path id="megaphone" d="M10.9,8.34l-4.2.323A2.93,2.93,0,0,0,4,11.571V15.6a2.932,2.932,0,0,0,2.575,2.9l.5,4.525A1.915,1.915,0,0,0,10.9,22.81Z" transform="translate(-4 -4.724)" fill="#6aacfd"/>
  <path id="megaphone-2" data-name="megaphone" d="M20.792,5.3a1.855,1.855,0,0,0-.433.091L11.145,8.537V19.779l9.215,3.142a1.857,1.857,0,0,0,2.456-1.757V16.388a2.118,2.118,0,0,0,0-3.929V7.153A1.856,1.856,0,0,0,20.792,5.3Z" transform="translate(-2.641 -5.297)" fill="#0f7bff"/>
</svg>
