<svg xmlns="http://www.w3.org/2000/svg" width="20" height="20" viewBox="0 0 20 20">
  <path id="My_Numbers_-_Inactive" data-name="My Numbers - Inactive" d="M6.052,17.46c1.117,1.651,4.159,5.679,8.3,7.455,2.92,1.251,4.412,1.632,5.4,1.632a3.533,3.533,0,0,0,1.285-.243,5.147,5.147,0,0,0,2.584-2.921h0a4.538,4.538,0,0,0,.2-2.948,2,2,0,0,0-.928-.723l-.236-.122c-.025,0-2.674-1.4-3.213-1.605a1.368,1.368,0,0,0-1.86.532l-1.071,1.392a.644.644,0,0,1-.792.2,11,11,0,0,1-3.159-2.122,13.071,13.071,0,0,1-2.106-2.662.752.752,0,0,1,.061-.863l.239-.3.221-.281a3.437,3.437,0,0,0,.493-.825l.064-.133A1.71,1.71,0,0,0,11.5,11.4c-.075-.164-.589-1.483-.928-2.354l-.478-1.19a2.31,2.31,0,0,0-2.5-1.312H7.516a2.731,2.731,0,0,0-1.7.8A6.23,6.23,0,0,0,4,11.948a10.177,10.177,0,0,0,2.01,5.42Z" transform="translate(-3.994 -6.546)" fill="#a5b9d5"/>
</svg>
