<svg xmlns="http://www.w3.org/2000/svg" width="23.902" height="21.578" viewBox="0 0 23.902 21.578">
  <g id="Add_contact" data-name="Add contact" transform="translate(-862.502 -368.076)">
    <path id="add-phone" d="M8.6,4.006a1.887,1.887,0,0,0-.741.089l-1.05.345a3.238,3.238,0,0,0-2.1,2.408q-.919,4.1,2.2,9.988T13.747,23.9a2.9,2.9,0,0,0,2.98-.779l.8-.823a2.375,2.375,0,0,0,.253-2.922l-1.2-1.814a1.959,1.959,0,0,0-2.275-.821l-1.828.626a.731.731,0,0,1-.715-.13,8.738,8.738,0,0,1-1.894-2.336,8.319,8.319,0,0,1-1.006-2.789.771.771,0,0,1,.229-.668L10.653,9.92a2.367,2.367,0,0,0,.5-2.574l-.839-2.032A2.061,2.061,0,0,0,8.6,4.006Z" transform="translate(858.002 365.613)" fill="#0080fc" opacity="0.904"/>
    <path id="Caminho_5321" data-name="Caminho 5321" d="M8.434,2a6.434,6.434,0,1,0,6.434,6.434A6.436,6.436,0,0,0,8.434,2Zm2.573,7.077H9.077v1.93a.643.643,0,0,1-1.287,0V9.077H5.86a.643.643,0,0,1,0-1.287H7.79V5.86a.643.643,0,0,1,1.287,0V7.79h1.93a.643.643,0,0,1,0,1.287Z" transform="translate(871.537 366.076)" fill="#0080fc"/>
  </g>
</svg>
