<svg id="Attendants" xmlns="http://www.w3.org/2000/svg" width="28.564" height="17.965" viewBox="0 0 28.564 17.965">
  <g id="Grupo_5392" data-name="Grupo 5392" transform="translate(17.285 0.788)">
    <path id="user" d="M14.88,4a3.564,3.564,0,1,0,3.564,3.564A3.564,3.564,0,0,0,14.88,4Z" transform="translate(-9.301 -4)" fill="#0f7bff"/>
    <path id="Subtração_41" data-name="Subtração 41" d="M5.576,5.7H5.425a5.431,5.431,0,0,0,.422-2.177V2.779c0-1.073-.593-1.946-1.323-1.946H0A1.42,1.42,0,0,1,1.29,0H9.863a1.42,1.42,0,0,1,1.416,1.416v.542C11.279,4.53,8.322,5.7,5.576,5.7Z" transform="translate(0 8.556)" fill="#6bacfd"/>
  </g>
  <g id="Grupo_5393" data-name="Grupo 5393" transform="translate(0 0.788)">
    <path id="user-2" data-name="user" d="M14.88,4a3.564,3.564,0,1,0,3.564,3.564A3.564,3.564,0,0,0,14.88,4Z" transform="translate(-9.175 -4)" fill="#0f7bff"/>
    <path id="Subtração_42" data-name="Subtração 42" d="M5.674,5.707h0a8.037,8.037,0,0,1-3.778-.868A3.286,3.286,0,0,1,0,1.958V1.423A1.423,1.423,0,0,1,1.418,0H9.987A1.424,1.424,0,0,1,11.31.92H6.635c-.775,0-1.4.864-1.4,1.927v.734A5.151,5.151,0,0,0,5.672,5.7Z" transform="translate(0 8.552)" fill="#6bacfd"/>
  </g>
  <g id="_1" data-name="1" transform="translate(6.958)">
    <path id="user-3" data-name="user" d="M15.83,4a4.514,4.514,0,1,0,4.514,4.514A4.514,4.514,0,0,0,15.83,4Z" transform="translate(-8.605 -4)" fill="#0f7bff"/>
    <path id="user-4" data-name="user" d="M20.649,17.262H9.8a1.8,1.8,0,0,0-1.8,1.8v.687a4.148,4.148,0,0,0,2.4,3.64,10.178,10.178,0,0,0,4.827,1.1c3.478,0,7.222-1.483,7.222-4.74v-.687A1.8,1.8,0,0,0,20.649,17.262Z" transform="translate(-8 -6.52)" fill="#0f7bff"/>
  </g>
</svg>
