<svg id="Attendants" xmlns="http://www.w3.org/2000/svg" width="28.564" height="17.965" viewBox="0 0 28.564 17.965">
  <g id="_1" data-name="1" transform="translate(6.958)">
    <path id="user-3" data-name="user" d="M15.83,4a4.514,4.514,0,1,0,4.514,4.514A4.514,4.514,0,0,0,15.83,4Z" transform="translate(-8.605 -4)" fill="#0f7bff"/>
    <path id="user-4" data-name="user" d="M20.649,17.262H9.8a1.8,1.8,0,0,0-1.8,1.8v.687a4.148,4.148,0,0,0,2.4,3.64,10.178,10.178,0,0,0,4.827,1.1c3.478,0,7.222-1.483,7.222-4.74v-.687A1.8,1.8,0,0,0,20.649,17.262Z" transform="translate(-8 -6.52)" fill="#0f7bff"/>
  </g>
</svg>
