<svg xmlns="http://www.w3.org/2000/svg" width="20" height="20" viewBox="0 0 20 20">
  <path id="Audio_type" data-name="Audio type" d="M24.191,6a.811.811,0,0,0-.182.02L13.38,8.436a2.421,2.421,0,0,0-1.894,2.372v9.355a4.756,4.756,0,0,0-2.432-.649C6.815,19.514,5,20.966,5,22.757S6.815,26,9.054,26a4.593,4.593,0,0,0,2.931-1A2.907,2.907,0,0,0,13.1,22.606a.811.811,0,0,0,.007-.119v-8l10.27-2.334V18a4.756,4.756,0,0,0-2.432-.649c-2.239,0-4.054,1.452-4.054,3.243s1.815,3.243,4.054,3.243a4.593,4.593,0,0,0,2.931-1,2.907,2.907,0,0,0,1.116-2.389A.81.81,0,0,0,25,20.324V6.811A.811.811,0,0,0,24.191,6Z" transform="translate(-5 -6)" fill="#a5b9d5"/>
</svg>
