<svg xmlns="http://www.w3.org/2000/svg" width="15.795" height="19.838" viewBox="0 0 15.795 19.838">
  <g id="Bell_with_notification" data-name="Bell with notification" transform="translate(-1794.9 -1551.828)">
    <path id="Caminho_582" data-name="Caminho 582" d="M13.657,27.118a2.04,2.04,0,0,0,2.034-2.034H11.623A2.034,2.034,0,0,0,13.657,27.118Z" transform="translate(1788.959 1544.548)" fill="#bed1ea"/>
    <path id="Subtração_19" data-name="Subtração 19" d="M20923.1,26207.033h-13.393a1,1,0,0,1-.934-.623,1.016,1.016,0,0,1,.225-1.119l1.309-1.309v-5.084a7.231,7.231,0,0,1,1.193-4.135,5.616,5.616,0,0,1,3.385-2.3v-.689a1.525,1.525,0,1,1,3.051,0v.689a5.709,5.709,0,0,1,1.561.617,5,5,0,0,0,1.992,9.584,5.34,5.34,0,0,0,1.025-.1v1.42l1.309,1.309a1.022,1.022,0,0,1-.723,1.742Z" transform="translate(-19113.791 -24638.418)" fill="#a5b9d5"/>
    <circle id="Elipse_205" data-name="Elipse 205" cx="3" cy="3" r="3" transform="translate(1804.695 1556.25)" fill="#ff3636"/>
  </g>
</svg>
