<svg xmlns="http://www.w3.org/2000/svg" width="21" height="20.5" viewBox="0 0 21 20.5">
  <g id="Calendar" transform="translate(0.5)">
    <path id="Caminho_396" data-name="Caminho 396" d="M7,6A1,1,0,0,1,6,5V3A1,1,0,1,1,8,3V5A1,1,0,0,1,7,6ZM17,6a1,1,0,0,1-1-1V3a1,1,0,1,1,2,0V5a1,1,0,0,1-1,1Z" transform="translate(-2 -2)" fill="#57a4ef"/>
    <path id="Caminho_397" data-name="Caminho 397" d="M19,4H18V5a1,1,0,0,1-2,0V4H8V5A1,1,0,0,1,6,5V4H5A3,3,0,0,0,2,7V9H22V7a3,3,0,0,0-3-3Z" transform="translate(-2 -2)" fill="#0080fc"/>
    <circle id="Elipse_163" data-name="Elipse 163" cx="1" cy="1" r="1" transform="translate(4 10)" fill="#67a7e5"/>
    <circle id="Elipse_164" data-name="Elipse 164" cx="1" cy="1" r="1" transform="translate(4 14)" fill="#67a7e5"/>
    <circle id="Elipse_165" data-name="Elipse 165" cx="1" cy="1" r="1" transform="translate(9 10)" fill="#67a7e5"/>
    <circle id="Elipse_166" data-name="Elipse 166" cx="1" cy="1" r="1" transform="translate(9 14)" fill="#67a7e5"/>
    <circle id="Elipse_167" data-name="Elipse 167" cx="1" cy="1" r="1" transform="translate(14 10)" fill="#67a7e5"/>
    <circle id="Elipse_168" data-name="Elipse 168" cx="1" cy="1" r="1" transform="translate(14 14)" fill="#67a7e5"/>
    <path id="Caminho_398" data-name="Caminho 398" d="M2,9V19a3,3,0,0,0,3,3H19a3,3,0,0,0,3-3V9Zm5,9a1,1,0,1,1,1-1A1,1,0,0,1,7,18Zm0-4a1,1,0,1,1,1-1A1,1,0,0,1,7,14Zm5,4a1,1,0,1,1,1-1A1,1,0,0,1,12,18Zm0-4a1,1,0,1,1,1-1A1,1,0,0,1,12,14Zm5,4a1,1,0,1,1,1-1A1,1,0,0,1,17,18Zm0-4a1,1,0,1,1,1-1A1,1,0,0,1,17,14Z" transform="translate(-2 -2)" fill="#0f7ce6" stroke="#0080fc" stroke-width="1" opacity="0.284"/>
  </g>
</svg>
