<svg xmlns="http://www.w3.org/2000/svg" width="18" height="20" viewBox="0 0 18 20">
  <path id="Clips" d="M17.51,8.7A6.241,6.241,0,0,1,16.1,10.739L7.923,18.682a4.741,4.741,0,0,1-6.564,0,4.417,4.417,0,0,1,0-6.374L9.639,4.264a2.814,2.814,0,0,1,.911-.6,2.885,2.885,0,0,1,2.154,0,2.815,2.815,0,0,1,.913.592,2.723,2.723,0,0,1,.61.887,2.654,2.654,0,0,1,0,2.092,2.724,2.724,0,0,1-.613.885L7.335,14.213a.331.331,0,0,1-.459,0l-.917-.891a.309.309,0,0,1,0-.445l6.274-6.093a.836.836,0,0,0,.187-.272.815.815,0,0,0,0-.641.836.836,0,0,0-.187-.272.9.9,0,0,0-1.219,0L2.734,13.642a2.566,2.566,0,0,0,0,3.7,2.754,2.754,0,0,0,3.814,0L14.727,9.4a4.312,4.312,0,0,0,0-6.224,4.628,4.628,0,0,0-6.409,0L4.74,6.653a.331.331,0,0,1-.459,0l-.917-.891a.309.309,0,0,1,0-.445L6.942,1.842A6.54,6.54,0,0,1,10.258.121,6.657,6.657,0,0,1,14,.479,6.441,6.441,0,0,1,16.908,2.8,6.162,6.162,0,0,1,18,6.29h0A6.093,6.093,0,0,1,17.51,8.7Z" fill="#0072ff"/>
</svg>
