<svg id="Collaborator_-_Profile_Gray" data-name="Collaborator - Profile | Gray" xmlns="http://www.w3.org/2000/svg" width="18.363" height="22.953" viewBox="0 0 18.363 22.953">
  <path id="user" d="M17.054,4a5.738,5.738,0,1,0,5.738,5.738A5.738,5.738,0,0,0,17.054,4Z" transform="translate(-7.869 -4)" fill="#9ab3d5"/>
  <path id="user-2" data-name="user" d="M24.079,17.262h-13.8A2.286,2.286,0,0,0,8,19.546v.873a5.274,5.274,0,0,0,3.045,4.627,12.939,12.939,0,0,0,6.136,1.4c4.422,0,9.181-1.886,9.181-6.025v-.873A2.286,2.286,0,0,0,24.079,17.262Z" transform="translate(-8 -3.49)" fill="#b7cfeb"/>
</svg>
