<svg id="Configure_Self-Service" data-name="Configure Self-Service" xmlns="http://www.w3.org/2000/svg" width="25.004" height="24" viewBox="0 0 25.004 24">
  <path id="Subtração_46" data-name="Subtração 46" d="M.932,19.334a.939.939,0,0,1-.9-1.16l1.041-4.232A9.665,9.665,0,0,1,.105,8.213,9.681,9.681,0,0,1,8.432.074,10.634,10.634,0,0,1,9.6,0c.293,0,.533.01.762.027l.059.1a7.462,7.462,0,0,0-.34.809l-1.4.346a1.107,1.107,0,0,0-.844,1.076V4.3a1.1,1.1,0,0,0,.832,1.08l1.4.352a7.19,7.19,0,0,0,.34.8l-.74,1.24A1.091,1.091,0,0,0,9.83,9.125l1.363,1.363a1.118,1.118,0,0,0,1.359.17L13.8,9.916c.277.129.543.24.811.34l.35,1.4a1.1,1.1,0,0,0,1.07.844H17.98a1.1,1.1,0,0,0,1.074-.844l.221-.891a.192.192,0,0,1,0,.033.22.22,0,0,1-.006.035.427.427,0,0,1-.006.07,9.68,9.68,0,0,1-8.141,8.324,9.446,9.446,0,0,1-1.35.1H9.758a9.746,9.746,0,0,1-4.365-1.061L1.158,19.307A.9.9,0,0,1,.932,19.334Z" transform="translate(0 4.666)" fill="#cbdaee"/>
  <path id="Subtração_45" data-name="Subtração 45" d="M8.857,16H7.15a.967.967,0,0,1-.936-.733l-.307-1.224a7.451,7.451,0,0,1-.7-.293l-1.082.648a1,1,0,0,1-.5.138.954.954,0,0,1-.684-.285L1.742,13.054a.956.956,0,0,1-.141-1.18l.643-1.083a7.025,7.025,0,0,1-.293-.7l-1.225-.3A.971.971,0,0,1,0,8.845v-1.7a.969.969,0,0,1,.732-.936l1.225-.3a5.916,5.916,0,0,1,.3-.7L1.6,4.117A.968.968,0,0,1,1.742,2.93L2.936,1.743a.955.955,0,0,1,.684-.284,1,1,0,0,1,.5.138L5.2,2.245a5.776,5.776,0,0,1,.7-.294L6.209.728A1.029,1.029,0,0,1,6.391.373.956.956,0,0,1,7.145,0H8.832a.97.97,0,0,1,.936.734l.307,1.224c.232.083.463.18.7.293l1.1-.654a.973.973,0,0,1,.5-.138.963.963,0,0,1,.686.284L14.258,2.93A.968.968,0,0,1,14.4,4.117L13.75,5.193a6.309,6.309,0,0,1,.3.7l1.223.306A.973.973,0,0,1,16,7.145V8.833a.971.971,0,0,1-.74.936l-1.225.306a6.689,6.689,0,0,1-.293.7l.654,1.1a.956.956,0,0,1-.141,1.18l-1.193,1.193a.971.971,0,0,1-1.186.147L10.8,13.745a6.793,6.793,0,0,1-.7.293l-.3,1.224A.967.967,0,0,1,8.857,16Zm-.842-10.4A2.4,2.4,0,0,0,6.4,9.769a2.421,2.421,0,0,0,1.6.624h.012a2.4,2.4,0,0,0,.875-4.637,2.359,2.359,0,0,0-.867-.165Z" transform="translate(9.002)" fill="#a5b9d5" opacity="0.997"/>
</svg>
