<svg id="Contact" xmlns="http://www.w3.org/2000/svg" width="18" height="18" viewBox="0 0 18 18">
  <path id="Caminho_5293" data-name="Caminho 5293" d="M6.438,14.438a1.219,1.219,0,1,0,0-2.438H5.219a1.219,1.219,0,1,0,0,2.438Z" transform="translate(-4 -9.562)" fill="#0f7bff" opacity="0.6"/>
  <path id="Caminho_5294" data-name="Caminho 5294" d="M6.438,30.438a1.219,1.219,0,0,0,0-2.438H5.219a1.219,1.219,0,1,0,0,2.438Z" transform="translate(-4 -20.219)" fill="#0f7bff" opacity="0.6"/>
  <path id="Caminho_5295" data-name="Caminho 5295" d="M4,45.219a1.219,1.219,0,0,0,1.219,1.219H6.438a1.219,1.219,0,1,0,0-2.438H5.219A1.219,1.219,0,0,0,4,45.219Z" transform="translate(-4 -30.876)" fill="#0f7bff" opacity="0.6"/>
  <path id="Caminho_5296" data-name="Caminho 5296" d="M22.144,4H8.968a.964.964,0,1,0,0,1.929h.239a1.989,1.989,0,0,1,2.02,1.691A1.931,1.931,0,0,1,9.291,9.786H8.468A.467.467,0,0,0,8,10.252v.354a.467.467,0,0,0,.468.466h.739a1.989,1.989,0,0,1,2.02,1.691,1.931,1.931,0,0,1-1.936,2.166H8.468A.467.467,0,0,0,8,15.395v.354a.467.467,0,0,0,.468.466h.739a1.989,1.989,0,0,1,2.02,1.691,1.931,1.931,0,0,1-1.936,2.166H8.968a.964.964,0,1,0,0,1.929H22.144a2.631,2.631,0,0,0,2.637-2.626V6.626A2.631,2.631,0,0,0,22.144,4ZM20.208,16.857H15.164a.534.534,0,0,1-.536-.588,3.732,3.732,0,0,1,2.359-3.246.077.077,0,0,0,0-.148,1.935,1.935,0,1,1,1.378,0,.077.077,0,0,0,0,.148,3.75,3.75,0,0,1,2.369,3.25.534.534,0,0,1-.536.585Z" transform="translate(-6.781 -4)" fill="#0072ff"/>
</svg>
