<svg id="Disable_read_receipt" data-name="Disable read receipt" xmlns="http://www.w3.org/2000/svg" width="24.004" height="19.936" viewBox="0 0 24.004 19.936">
  <path id="Subtração_47" data-name="Subtração 47" d="M6.78,15.682H6.77a1,1,0,0,1-.758-.377L.275,8.341A1.231,1.231,0,0,1,0,7.507,1.211,1.211,0,0,1,.339,6.7a.985.985,0,0,1,.7-.305,1,1,0,0,1,.769.376L6.8,12.823l1.021-1.189L5.213,8.321a1.237,1.237,0,0,1-.256-.842,1.2,1.2,0,0,1,.355-.8A.983.983,0,0,1,6,6.4a1,1,0,0,1,.786.4L9.267,9.95,17.5.371A1,1,0,0,1,18.213,0h.053a1.046,1.046,0,0,1,.953.685,1.25,1.25,0,0,1-.208,1.29L14.649,7.049a7.712,7.712,0,0,0-4.581,7.238c0,.07,0,.14,0,.21L9.2,13.389,7.535,15.324A1,1,0,0,1,6.78,15.682ZM19.334,7.06h0a6.251,6.251,0,0,0-2.356-.46h-.137L22.2.371A1,1,0,0,1,22.907,0h.053a1.046,1.046,0,0,1,.953.685,1.267,1.267,0,0,1-.207,1.29L19.334,7.06Z" transform="translate(0 0)" fill="#c6d6ed"/>
  <path id="block-microphone" d="M23.241,14.226a5.9,5.9,0,1,0,5.905,5.9A5.912,5.912,0,0,0,23.241,14.226Zm0,1.61a4.266,4.266,0,0,1,2.411.744l-5.962,5.961a4.266,4.266,0,0,1-.744-2.411,4.29,4.29,0,0,1,4.295-4.294Zm3.55,1.883a4.291,4.291,0,0,1-5.962,5.961Z" transform="translate(-5.902 -6.101)" fill="#8ba5c9"/>
</svg>
