<svg id="Disable_audio_notification" data-name="Disable audio notification" xmlns="http://www.w3.org/2000/svg" width="18.799" height="22.8" viewBox="0 0 18.799 22.8">
  <path id="block-microphone" d="M16.6,2a4.565,4.565,0,0,0-4.557,4.56v7.6a4.567,4.567,0,0,0,3.549,4.448,6.374,6.374,0,0,1,.055-.775c.029-.216.073-.427.122-.635a6.587,6.587,0,0,1,3.93-4.58,6.365,6.365,0,0,1,.617-.216c.027-.008.054-.018.081-.026a6.936,6.936,0,0,1,.76-.167V6.56A4.565,4.565,0,0,0,16.6,2Zm0,16.72Z" transform="translate(-9 -2)" fill="#0f7bff"/>
  <path id="block-microphone-2" data-name="block-microphone" d="M22.906,14.226a5.57,5.57,0,1,0,5.57,5.57A5.576,5.576,0,0,0,22.906,14.226Zm0,1.519a4.024,4.024,0,0,1,2.275.7L19.557,22.07a4.023,4.023,0,0,1-.7-2.274,4.047,4.047,0,0,1,4.051-4.051Zm3.349,1.776a4.047,4.047,0,0,1-5.623,5.623Z" transform="translate(-9.676 -3.072)" fill="#0f7bff"/>
  <path id="block-microphone-3" data-name="block-microphone" d="M9.76,11.627a.759.759,0,0,0-.76.76V14.16a7.606,7.606,0,0,0,6.836,7.559V24.04a.76.76,0,1,0,1.519,0v-.826a6.728,6.728,0,0,1-1.032-1.459c-.086-.167-.166-.337-.238-.51s-.137-.35-.193-.529-.106-.354-.146-.536a6.084,6.084,0,0,1-5.226-6.02V12.387A.759.759,0,0,0,9.76,11.627ZM16.6,18.72Z" transform="translate(-9 -2)" fill="#6bacfd"/>
</svg>
