<svg xmlns="http://www.w3.org/2000/svg" width="50.25" height="50.429" viewBox="0 0 50.25 50.429">
  <g id="Disconnect_from_this_user_Pop_Up" data-name="Disconnect from this user | Pop Up" transform="translate(0 0.155)">
    <path id="Subtração_48" data-name="Subtração 48" d="M17.157,43.829h0A26.038,26.038,0,0,1,6,40.844,14.385,14.385,0,0,1,1.6,37.43,7.062,7.062,0,0,1,0,32.844v-2c0-2.414,1.608-5,4-5H21.417a16.018,16.018,0,0,0-4.261,17.983ZM18,21.844A10.988,10.988,0,0,1,10.233,3.071,10.924,10.924,0,0,1,18-.156a9.821,9.821,0,0,1,4.112.866,9.322,9.322,0,0,1,3.154,2.361A11.734,11.734,0,0,1,28,10.844a11.734,11.734,0,0,1-2.734,7.773,9.322,9.322,0,0,1-3.154,2.361A9.821,9.821,0,0,1,18,21.844Z" fill="#6bacfd"/>
    <path id="broken-link" d="M9.838-.1a3.283,3.283,0,0,0-2,1c-.224.433.7.614,1,1l1,3c.263.375,1.545.05,2,0s.825-.577,1-1-.714-.643-1-1l-1-2C10.613.588,10.22-.086,9.838-.1Zm8,0c-.414-.012-.756.665-1,1l-2,2c-.286.357-.175.577,0,1s.545.95,1,1,.737.375,1,0l2-3c.288-.374,1.2-.574,1-1A3.5,3.5,0,0,0,17.838-.1Zm-11,6a7.091,7.091,0,0,0-7,7,7.091,7.091,0,0,0,7,7h3c.693,0,1-.307,1-1s-.307-1-1-1h-3c-2.441,0-4-2.559-4-5a3.737,3.737,0,0,1,4-4h3c.693,0,1-.307,1-1s-.307-2-1-2Zm11,0c-.693,0-1,1.307-1,2s.307,1,1,1h3a3.737,3.737,0,0,1,4,4c0,2.441-1.559,5-4,5h-3c-.693,0-1,.307-1,1s.307,1,1,1h3a7.091,7.091,0,0,0,7-7,7.091,7.091,0,0,0-7-7Zm-6,15a4.392,4.392,0,0,0-2,1l-1,2c-.286.357-1.175,1.577-1,2s.545-.05,1,0,1.737.375,2,0l1-3c.288-.374,1.2-.574,1-1S12.309,20.911,11.838,20.9Zm5,0a3.283,3.283,0,0,0-2,1c-.224.433-.3.614,0,1l2,3c.263.375,1.545.05,2,0s.825.423,1,0-.714-1.643-1-2l-2-2C16.613,21.588,17.22,20.914,16.838,20.9Z" transform="translate(21.661 23.447)" fill="#0072ff" stroke="#0072ff" stroke-width="1.5"/>
  </g>
</svg>
