<svg xmlns="http://www.w3.org/2000/svg" width="20" height="20" viewBox="0 0 20 20">
  <g id="Do_not_sign_Active_-_Hover" data-name="Do not sign | Active - Hover" transform="translate(-1.807 -2.997)">
    <path id="Do_not_sign" data-name="Do not sign" d="M2.112,3.522h0a1.038,1.038,0,0,0,0,1.469L9,11.879l-5.793,5.8a.512.512,0,0,0-.156.375v3.168a.516.516,0,0,0,.521.521H6.739A.489.489,0,0,0,7.1,21.59L12.9,15.8l6.887,6.887a1.038,1.038,0,0,0,1.469,0h0a1.038,1.038,0,0,0,0-1.469L3.592,3.522A1.05,1.05,0,0,0,2.112,3.522Z" transform="translate(0 0.009)" fill="#b7cfeb"/>
    <path id="Caminho_5316" data-name="Caminho 5316" d="M20.944,7.21a1.038,1.038,0,0,0,0-1.469L18.506,3.3a1.038,1.038,0,0,0-1.469,0L15.13,5.209l3.907,3.907Z" transform="translate(0.559 0)" fill="#9ab3d5"/>
    <rect id="Retângulo_1369" data-name="Retângulo 1369" width="3.709" height="5.522" transform="translate(11.943 8.949) rotate(-45)" fill="#9ab3d5"/>
  </g>
</svg>
