<svg id="Do_you_really_want_to_delete_" data-name="Do you really want to delete?" xmlns="http://www.w3.org/2000/svg" width="34.877" height="50" viewBox="0 0 34.877 50">
  <path id="Caminho_434" data-name="Caminho 434" d="M13.518,19.963a1.948,1.948,0,0,0-2,2v20c0,4.412,3.856,7,8,7h13c4.144,0,8-2.588,8-7v-20c0-1.182-1.889-2-3-2Zm7,21c0,.824-1.226,1-2,1s-1-.176-1-1v-14c0-.824.226-1,1-1s2,.176,2,1Zm7,0c0,.824-1.226,1-2,1s-1-.176-1-1v-14c0-.824.226-1,1-1s2,.176,2,1Zm7,0c0,.824-.226,1-1,1s-2-.176-2-1v-14c0-.824,1.226-1,2-1s1,.176,1,1Z" transform="translate(-6.575 1.037)" fill="#fa4b57"/>
  <path id="Caminho_435" data-name="Caminho 435" d="M34,6.609A2.262,2.262,0,0,0,31.73,4.476h-8.4a.684.684,0,0,1-.666-.7V2.984A2.911,2.911,0,0,0,19.832,0H14.166a2.911,2.911,0,0,0-2.833,2.984v.791a.684.684,0,0,1-.666.7h-8.4A2.262,2.262,0,0,0,0,6.609,2.307,2.307,0,0,0,.588,8.26a2.074,2.074,0,0,0,1.538.692H31.872A2.074,2.074,0,0,0,33.41,8.26,2.307,2.307,0,0,0,34,6.609ZM19.832,3.73a.728.728,0,0,1-.708.746H14.875a.747.747,0,0,1,0-1.492h4.249A.728.728,0,0,1,19.832,3.73Z" transform="translate(0 12.736) rotate(-22)" fill="#fa4b57"/>
</svg>
