<svg xmlns="http://www.w3.org/2000/svg" width="22.342" height="21.338" viewBox="0 0 22.342 21.338">
  <path id="End_call" data-name="End call" d="M15.23,5C10.555,4.994,7.4,5.984,5.2,7.924A3.411,3.411,0,0,0,4.056,11.1l.222,1.163a2.162,2.162,0,0,0,2.382,1.71l2.3-.222A2.43,2.43,0,0,0,11.067,12l.7-2.4a9.6,9.6,0,0,1,3.466-.668,8.956,8.956,0,0,1,3.346.638l.7,2.4a2.43,2.43,0,0,0,2.11,1.756l2.3.222a2.16,2.16,0,0,0,2.381-1.709l.222-1.163a3.412,3.412,0,0,0-1.14-3.178C22.946,5.954,19.906,5.006,15.23,5Zm-.013,8.411a.842.842,0,0,0-.829.854v9.2L12.176,21.25a.842.842,0,1,0-1.191,1.191l3.65,3.65a.842.842,0,0,0,1.191,0l3.65-3.65a.842.842,0,1,0-1.191-1.191l-2.212,2.212v-9.2a.842.842,0,0,0-.855-.854Z" transform="translate(-4 -5)" fill="#fa4b57"/>
</svg>
