<svg id="Exclamation_alert" data-name="Exclamation alert" xmlns="http://www.w3.org/2000/svg" width="21.986" height="19.003" viewBox="0 0 21.986 19.003">
  <path id="Path" d="M21.547,14.3l-7.67-12.72a3.43,3.43,0,0,0-5.78,0L.427,14.3a3,3,0,0,0-.05,3A3.37,3.37,0,0,0,3.317,19h15.34a3.37,3.37,0,0,0,2.94-1.66,3,3,0,0,0-.05-3.04Z" transform="translate(0)" fill="#f8bf7e"/>
  <circle id="Elipse_200" data-name="Elipse 200" cx="1" cy="1" r="1" transform="translate(10.066 13.503)" fill="#fff"/>
  <path id="Caminho_807" data-name="Caminho 807" d="M12,14a1,1,0,0,1-1-1V9a1,1,0,0,1,2,0v4A1,1,0,0,1,12,14Z" transform="translate(-0.934 -2.497)" fill="#fff"/>
</svg>
