<svg xmlns="http://www.w3.org/2000/svg" width="22" height="22" viewBox="0 0 22 22">
  <g id="exclamation_information_content" data-name="exclamation information content" transform="translate(0.5 0.5)">
    <circle id="Elipse_161" data-name="Elipse 161" cx="10.5" cy="10.5" r="10.5" transform="translate(0)" fill="rgba(222,222,222,0.13)" stroke="#707070" stroke-width="1" opacity="0.999"/>
    <path id="Caminho_394" data-name="Caminho 394" d="M1,6A1,1,0,0,1,0,5V1A1,1,0,0,1,2,1V5A1,1,0,0,1,1,6Z" transform="translate(11.5 15.5) rotate(180)" fill="#707070"/>
    <path id="Caminho_395" data-name="Caminho 395" d="M1,2A1,1,0,0,1,0,1H0A1,1,0,0,1,2,1H2A1,1,0,0,1,1,2Z" transform="translate(11.5 7.5) rotate(180)" fill="#707070"/>
  </g>
</svg>
