<svg xmlns="http://www.w3.org/2000/svg" width="18" height="18" viewBox="0 0 18 18">
  <g id="Filter" transform="translate(-492.5 236)">
    <path id="Caminho_5297" data-name="Caminho 5297" d="M21.431,4,4.569,4.029A.569.569,0,0,0,4,4.6v2.25a2.494,2.494,0,0,0,.733,1.768L9.84,13.7a4.179,4.179,0,0,1,1.231,2.964v4.821a.511.511,0,0,0,.511.517h2.832a.511.511,0,0,0,.514-.511V16.667a4.179,4.179,0,0,1,1.221-2.954l5.124-5.143A2.494,2.494,0,0,0,22,6.809V4.559A.569.569,0,0,0,21.431,4Z" transform="translate(488.5 -240)" fill="#0072ff"/>
  </g>
</svg>
