<svg id="Icon_WhatsApp" data-name="Icon WhatsApp" xmlns="http://www.w3.org/2000/svg" width="30.486" height="30.486" viewBox="0 0 30.486 30.486">
  <path id="Caminho_5046" data-name="Caminho 5046" d="M5.581,28.072l-.7,2.8A2.173,2.173,0,0,0,7.509,33.5l2.787-.7a4.21,4.21,0,0,1,2.743.255,15.242,15.242,0,1,0-7.713-7.73,4.194,4.194,0,0,1,.255,2.743Zm7.844-15.536a1.749,1.749,0,0,1,1-.462c.25,0,1.249-.092,1.559.652s1.086,2.569,1.152,2.749a.674.674,0,0,1,.033.652,2.483,2.483,0,0,1-.375.619c-.185.217-.391.483-.543.652s-.38.386-.163.755a11.125,11.125,0,0,0,2.042,2.553,10.229,10.229,0,0,0,3.009,1.841c.375.185.592.152.809-.092s.934-1.086,1.184-1.45.5-.31.842-.185,2.173,1.021,2.558,1.206.619.277.717.429a3.08,3.08,0,0,1-.217,1.76,3.438,3.438,0,0,1-1.755,1.89c-.722.244-1.521.375-5.068-1.054-3.764-1.543-6.377-5.345-6.562-5.595a7.2,7.2,0,0,1-1.526-3.83,3.965,3.965,0,0,1,1.3-3.1Z" transform="translate(-4.011 -3.899)" fill="#d1d8ec"/>
</svg>
