<svg xmlns="http://www.w3.org/2000/svg" width="22.725" height="19.998" viewBox="0 0 22.725 19.998">
  <path id="Identification_documents" data-name="Identification documents" d="M23.29,8.332H17.068V9.443a1.643,1.643,0,0,1-1.623,1.666H13.28a1.643,1.643,0,0,1-1.623-1.666V8.332H5.435A2.468,2.468,0,0,0,3,10.831V22.5A2.471,2.471,0,0,0,5.435,25H23.29a2.468,2.468,0,0,0,2.435-2.5V10.831A2.468,2.468,0,0,0,23.29,8.332Zm-14.338,5A1.667,1.667,0,1,1,7.329,15,1.646,1.646,0,0,1,8.952,13.33Zm2.705,5.826-.011.117-.027.172c-.243,1.122-1.228,1.66-2.667,1.66-1.515,0-2.521-.594-2.695-1.833l-.011-.122v-.544l.005-.111a.819.819,0,0,1,.806-.722h3.788l.108.006a.826.826,0,0,1,.7.827Zm10.118.827-.108.006H16.262l-.114-.006a.836.836,0,0,1,0-1.649l.114-.011h5.405l.108.011a.835.835,0,0,1,0,1.649Zm0-3.882-.108.006H16.256l-.108-.006a.839.839,0,0,1,0-1.655l.114-.006h5.405l.108.006a.838.838,0,0,1,0,1.655ZM14.363,5h0a2.742,2.742,0,0,0-2.705,2.777v.555h5.411V7.777A2.742,2.742,0,0,0,14.363,5Z" transform="translate(-3 -5)" fill="#0072ff"/>
</svg>
