<svg xmlns="http://www.w3.org/2000/svg" xmlns:xlink="http://www.w3.org/1999/xlink" width="499.58" height="353.87" viewBox="0 0 499.58 353.87">
  <defs>
    <linearGradient id="linear-gradient" x1="0.105" y1="0.022" x2="0.96" y2="1.057" gradientUnits="objectBoundingBox">
      <stop offset="0" stop-color="#2a9dde"/>
      <stop offset="1" stop-color="#2d3aa3"/>
    </linearGradient>
    <linearGradient id="linear-gradient-2" y1="0.5" x2="1" y2="0.5" gradientUnits="objectBoundingBox">
      <stop offset="0" stop-color="#588afd"/>
      <stop offset="1" stop-color="#4d71d9"/>
    </linearGradient>
    <linearGradient id="linear-gradient-3" x1="0" y1="0.501" x2="1.001" y2="0.501" xlink:href="#linear-gradient-2"/>
    <linearGradient id="linear-gradient-4" x1="-31.291" y1="-3.792" x2="-30.206" y2="-3.792" xlink:href="#linear-gradient-2"/>
    <linearGradient id="linear-gradient-5" x1="-68.1" y1="-10.664" x2="-67.043" y2="-10.664" xlink:href="#linear-gradient-2"/>
    <linearGradient id="linear-gradient-6" x1="-66.874" y1="-4.004" x2="-65.974" y2="-4.004" xlink:href="#linear-gradient-2"/>
    <linearGradient id="linear-gradient-7" x1="-132.436" y1="-8.441" x2="-131.539" y2="-8.441" xlink:href="#linear-gradient-2"/>
    <linearGradient id="linear-gradient-8" x1="-0.004" y1="0.5" x2="1" y2="0.5" xlink:href="#linear-gradient-2"/>
  </defs>
  <g id="Initial_Illustration" data-name="Initial Illustration" transform="translate(-646.078 -332.793)">
    <g id="Video" transform="translate(873.729 332.793)">
      <rect id="Retângulo_1449" data-name="Retângulo 1449" width="205.547" height="143.516" transform="translate(11.437 43.14)" fill="#d0d6d6"/>
      <rect id="Retângulo_1450" data-name="Retângulo 1450" width="205.547" height="143.516" transform="translate(0 32.076)" fill="url(#linear-gradient)"/>
      <path id="Caminho_5797" data-name="Caminho 5797" d="M1154.122,509.1h-22.811c-41.893,6.837-43.011,39.966-43.011,39.966h108.834C1197.134,549,1195.953,515.937,1154.122,509.1Z" transform="translate(-1040.13 -399.516)" fill="#fd669b"/>
      <rect id="Retângulo_1451" data-name="Retângulo 1451" width="205.547" height="28.343" transform="translate(0 147.25)" fill="#e9eaf1"/>
      <path id="Caminho_5798" data-name="Caminho 5798" d="M1179.283,519.075c-1.243,1.74-4.164,3.854-7.645,5.408a15.187,15.187,0,0,1-2.859.87,16.213,16.213,0,0,1-2.984.311,14.737,14.737,0,0,1-5.9-1.181c-3.543-1.492-6.4-3.667-7.645-5.408-9.51-12.928,2.3-19.019,2.3-19.019V485.2h22.562v14.855C1176.983,500.055,1188.793,506.084,1179.283,519.075Z" transform="translate(-1062.928 -390.471)" fill="#fbe4d4"/>
      <path id="Caminho_5799" data-name="Caminho 5799" d="M1180.562,485.2v8.08c-11,7.4-17.963,4.413-22.562,2.921v-11Z" transform="translate(-1066.507 -390.471)" opacity="0.15"/>
      <path id="Caminho_5800" data-name="Caminho 5800" d="M1187.576,419.857,1182.231,394h-48.295l-5.345,25.857c-.373,18.274,6.464,16.72,6.464,16.72,3.481,16.471,13.923,21.817,19.952,23.557a10.028,10.028,0,0,0,3.046.435h0a10.028,10.028,0,0,0,3.046-.435c6.029-1.74,16.533-7.086,19.952-23.557C1181.112,436.576,1188.011,438.13,1187.576,419.857Z" transform="translate(-1055.372 -355.957)" fill="#fbe4d4"/>
      <path id="Caminho_5801" data-name="Caminho 5801" d="M1132.821,407.695s-.746-23.246,12.928-31.2a25.115,25.115,0,0,0,21.319,11.064s16.72,5.345,14.109,19.02c0,0,6.464-5.718,7.21-19.02s-5.718-23.246-13.674-29.71c0,0,7.21-15.6-8.391-23.619,0,0-16.72-6.091-25.484,6.837,0,0-4.973,6.464,0,16.347,0,0-12.058,5.78-13.674,22.811C1126.419,387.245,1125.238,395.139,1132.821,407.695Z" transform="translate(-1054.63 -332.793)" fill="#1f2873"/>
      <path id="Caminho_5802" data-name="Caminho 5802" d="M1028.4,583.6l.187,11.81,10.566-5.9Z" transform="translate(-1017.461 -427.71)" fill="#a9bdc4"/>
      <path id="Caminho_5803" data-name="Caminho 5803" d="M1196.29,589.846a3.051,3.051,0,0,1-3.046,3.046h-133.2a3.046,3.046,0,1,1,0-6.091h133.2a3.275,3.275,0,0,1,2.175.87A3.106,3.106,0,0,1,1196.29,589.846Z" transform="translate(-1028.284 -428.922)" fill="#d0d6d6"/>
      <path id="Caminho_5804" data-name="Caminho 5804" d="M1152.533,586.8v6.091h-92.487a3.046,3.046,0,1,1,0-6.091Z" transform="translate(-1028.284 -428.922)" fill="#a6b0b9"/>
    </g>
    <g id="Plat" transform="translate(646.077 549.67)">
      <path id="Caminho_5805" data-name="Caminho 5805" d="M648.391,741.548a6.791,6.791,0,0,1,6.216.435c3.232,1.927,25.67,12.555,32.818,8.018,0,0,2.486-3.232-2.424-5.283a69.97,69.97,0,0,0-20.014-4.848c-7.086-.5-22.127-2.113-12.369-27.41a1.963,1.963,0,0,1,2.921-.932c4.661,3.108,16.1,10.442,19.268,9.758,0,0,3.418-.311,1.429-3.854s-16.782-10.815-17.03-14.793-.062-14.731-1.554-18.212.932-5.034,5.967-4.662,22.376-4.04,30.145,14.047c0,0,1.678,24.427,3.232,26.23s3.729,3.108,5.159-.746-1.554-25.608-1.554-25.608,4.848-4.724,14.731-.622c0,0,11.25,1.367,9.323,12.555s-5.221,33.564-5.221,33.564-1.554,5.532,4.289,3.108c0,0,9.51-6.651,13.363-29.026,0,0,.373-5.656-.559-7.956-.995-2.362,26.6,8.142,31.823,30.021,5.035,20.946.311,43.571-25.484,76.016,0,0-79.559,20.946-84.469-21.319,0,0-1.43-4.04,5.283-3.046,0,0,18.46,2.983,23.246-8.515,0,0,1.927-6.961-4.91-6.837s-15.725,6.216-15.725,6.216-9.51,6.091-14.358-4.972S643.543,745.775,648.391,741.548Zm85.277,20.263c1.243.435,3.108-1.989,4.227-5.283,1.119-3.356,1.057-6.4-.187-6.775-1.243-.435-3.108,1.989-4.227,5.283C732.363,758.392,732.425,761.438,733.668,761.811Zm-25.359-44.192c-1.243-.435-3.108,1.989-4.226,5.283-1.119,3.356-1.057,6.4.187,6.775,1.243.435,3.108-1.989,4.226-5.283S709.552,718.054,708.309,717.618Zm-12.8,68.557c.435,2.051,5.408,2.735,11,1.492,5.656-1.243,9.821-3.916,9.385-5.967s-5.407-2.735-11-1.492S695.07,784.125,695.5,786.176Zm1.43-22.189c5.1.373,9.323-.87,9.448-2.735s-3.916-3.667-9.012-4.04-9.323.87-9.448,2.735S691.838,763.613,696.934,763.986Z" transform="translate(-646.077 -679.546)" fill="#d6dbee"/>
      <path id="Caminho_5806" data-name="Caminho 5806" d="M664.884,729.5c.187.124,18.46,9.82,37.417,12-12.8-23-21.506-40.96-21.692-41.271l1.243-.622c.311.684,33.813,69.49,66.133,110.7l-1.119.87c-15.6-19.89-31.451-46.181-43.757-68.184C683.592,741,664.387,730.8,664.2,730.74Z" transform="translate(-652.936 -687.135)" fill="#abc6ce"/>
    </g>
    <g id="Plant_1_" transform="translate(886.043 587.76)">
      <path id="Caminho_5807" data-name="Caminho 5807" d="M1119.044,785.562a4.96,4.96,0,0,0-4.475.311c-2.362,1.367-18.584,9.075-23.681,5.781,0,0-1.8-2.3,1.8-3.792a49.512,49.512,0,0,1,14.482-3.481c5.159-.373,15.974-1.554,8.95-19.765a1.415,1.415,0,0,0-2.113-.683c-3.356,2.237-11.623,7.521-13.923,7.086,0,0-2.486-.249-.995-2.8s12.12-7.831,12.307-10.691.062-10.629,1.119-13.177-.683-3.605-4.351-3.356-16.161-2.922-21.755,10.131c0,0-1.181,17.652-2.3,18.957s-2.673,2.238-3.729-.559c-.994-2.8,1.119-18.46,1.119-18.46s-3.543-3.418-10.691-.5c0,0-8.08.995-6.713,9.075s3.791,24.241,3.791,24.241,1.119,3.978-3.108,2.238c0,0-6.9-4.848-9.7-20.946,0,0-.311-4.04.435-5.78.684-1.678-19.206,5.843-23,21.692-3.6,15.1-.187,31.513,18.4,54.883,0,0,57.494,15.1,61.036-15.414,0,0,.994-2.921-3.854-2.176,0,0-13.363,2.176-16.782-6.153,0,0-1.367-5.034,3.543-4.972s11.375,4.475,11.375,4.475,6.837,4.413,10.38-3.605C1120.1,800.231,1122.525,788.608,1119.044,785.562Zm-61.6,14.669c-.87.311-2.237-1.43-3.046-3.854s-.746-4.6.124-4.91,2.237,1.43,3.046,3.854S1058.319,799.92,1057.448,800.231Zm18.336-31.948c.87-.311,2.237,1.43,3.046,3.854s.746,4.6-.124,4.91-2.237-1.43-3.046-3.854S1074.852,768.594,1075.784,768.283Zm9.2,49.538c-.311,1.492-3.916,1.989-7.956,1.119-4.1-.87-7.086-2.8-6.775-4.289s3.916-1.989,7.956-1.119C1082.311,814.4,1085.294,816.329,1084.983,817.821Zm-.995-16.036c-3.667.249-6.775-.622-6.837-1.989-.124-1.367,2.8-2.673,6.526-2.921s6.775.622,6.837,1.989S1087.656,801.536,1083.989,801.785Z" transform="translate(-1031.251 -740.828)" fill="#d6dbee"/>
      <path id="Caminho_5808" data-name="Caminho 5808" d="M1124.7,776.83c-.124.062-13.364,7.086-27.038,8.64,9.261-16.6,15.539-29.586,15.663-29.835l-.932-.435c-.249.5-24.427,50.159-47.8,79.994l.808.622c11.25-14.358,22.749-33.377,31.575-49.227,14.109-1.43,27.97-8.764,28.094-8.888Z" transform="translate(-1043.871 -746.267)" fill="#abc6ce"/>
    </g>
    <g id="Chat_1_" transform="translate(1047.453 403.115)">
      <path id="Caminho_5809" data-name="Caminho 5809" d="M1295.4,445.4h88.012a5.12,5.12,0,0,1,5.1,5.1v38.909a5.12,5.12,0,0,1-5.1,5.1H1323.8l-21.319,17.155V494.5H1295.4a5.12,5.12,0,0,1-5.1-5.1V450.5A5.08,5.08,0,0,1,1295.4,445.4Z" transform="translate(-1290.3 -445.4)" fill="#d0d6d6" opacity="0.7"/>
      <rect id="Retângulo_1452" data-name="Retângulo 1452" width="74.213" height="4.537" transform="translate(12.742 9.696)" fill="#fff"/>
      <rect id="Retângulo_1453" data-name="Retângulo 1453" width="74.213" height="4.537" transform="translate(12.555 18.274)" fill="#fff"/>
      <rect id="Retângulo_1454" data-name="Retângulo 1454" width="74.213" height="4.537" transform="translate(12.555 26.975)" fill="#fff"/>
      <rect id="Retângulo_1455" data-name="Retângulo 1455" width="57.494" height="4.537" transform="translate(12.555 35.739)" fill="#fff"/>
    </g>
    <g id="Chair" transform="translate(687.176 585.691)">
      <path id="Caminho_5810" data-name="Caminho 5810" d="M779.576,737.5H732.4a20.2,20.2,0,0,0-20.2,20.2v80.242h67.376Z" transform="translate(-712.2 -737.5)" fill="#525263"/>
    </g>
    <g id="Man" transform="translate(694.98 470.961)">
      <path id="Caminho_5811" data-name="Caminho 5811" d="M849.575,616.614s-28.156-36.547-1.119-51.029c3.729-1.989,8.453-2.611,16.222-2.362a11.546,11.546,0,0,0,3.543-.435c3.356-.995,10.38-3.419,14.855-7.086,6.091-4.972,18.647-3.046,21.692,3.791a24.867,24.867,0,0,1-12.183,31.575C876.612,599.459,849.575,616.614,849.575,616.614Z" transform="translate(-767.129 -552.913)" fill="#1f2873"/>
      <path id="Caminho_5812" data-name="Caminho 5812" d="M878.88,647.554l.062.622.746,11.25,1.492,21.257L843.7,680.5l8.391-56.686s-9.137-8.018-4.164-14.482,8.391-3.046,8.391-3.046L868.5,596.4s18.647,4.972,27.411,2.673C895.786,599.01,902.064,650.972,878.88,647.554Z" transform="translate(-769.769 -569.371)" fill="#fbe4d4"/>
      <ellipse id="Elipse_482" data-name="Elipse 482" cx="10.566" cy="11.437" rx="10.566" ry="11.437" transform="translate(77.287 27.713)" fill="#e55e92"/>
      <path id="Caminho_5813" data-name="Caminho 5813" d="M864.587,563.887c-6.961,4.1-8.391,14.855-8.7,19.641a6.758,6.758,0,0,0-1.119-.062c-5.843,0-10.566,5.1-10.566,11.437s4.724,11.437,10.566,11.437,10.566-5.1,10.566-11.437a11.466,11.466,0,0,0-5.967-10.256c2.611-20.7,13.8-19.7,13.8-19.7a85.3,85.3,0,0,0,9.137-3.978A24.523,24.523,0,0,0,864.587,563.887Z" transform="translate(-769.959 -555.753)" fill="#fd669b"/>
      <g id="Grupo_5997" data-name="Grupo 5997" transform="translate(115.388 41.014)">
        <path id="Caminho_5814" data-name="Caminho 5814" d="M921.464,644.819H910.4v-2.3h11.064a2.389,2.389,0,0,0,2.362-2.3c.062-3.232.187-9.013-.062-11.685a15.407,15.407,0,0,0-1.927-5.78c-.5-.932,0-3.854,0-3.854,0,.062,1.119,1.181,1.305,1.554A18.784,18.784,0,0,1,926,628.348c.249,2.673.186,7.956.124,11.934A4.712,4.712,0,0,1,921.464,644.819Z" transform="translate(-910.4 -618.9)" fill="#fd669b"/>
      </g>
      <path id="Caminho_5815" data-name="Caminho 5815" d="M889.868,684.441C885.7,682.017,877,675.615,870.6,662.5a31.155,31.155,0,0,0,18.522,10.691Z" transform="translate(-779.95 -594.386)" opacity="0.15"/>
      <path id="Caminho_5816" data-name="Caminho 5816" d="M904.745,657.032h0a3.21,3.21,0,0,1-3.232,3.232h-5.78a3.21,3.21,0,0,1-3.232-3.232h0a3.21,3.21,0,0,1,3.232-3.232h5.78A3.291,3.291,0,0,1,904.745,657.032Z" transform="translate(-788.238 -591.093)" fill="#1f2873"/>
      <path id="Caminho_5817" data-name="Caminho 5817" d="M922.5,775.526l-16.347,20.2-23.619-17.9-14.855-11.064,4.164,54.075-112.439.186V803.869h-20.7a13.976,13.976,0,0,1-13.8-16.036c3.046-20.076,10.256-48.295,23.868-72.659,0,0,9.883-15.974,53.2-22.873,0,0,29.213,21.506,32.818,0l21.63,5.718a31.887,31.887,0,0,1,17.59,11.934Z" transform="translate(-724.755 -605.664)" fill="url(#linear-gradient-2)"/>
      <path id="Caminho_5818" data-name="Caminho 5818" d="M851.295,874.34v8.08L780.5,884.907V872.6Z" transform="translate(-745.852 -673.898)" opacity="0.15"/>
      <path id="Caminho_5819" data-name="Caminho 5819" d="M889.8,865.086l3.792-11.81,16.968-4.91a9.05,9.05,0,0,1,5.594.124l23.868,7.831,4.972,8.764Z" transform="translate(-787.216 -664.582)" fill="#fbe4d4"/>
      <path id="Caminho_5820" data-name="Caminho 5820" d="M788.572,780,783.6,810.083l66.133,12.182L788.945,807.41Z" transform="translate(-747.025 -638.854)" opacity="0.15"/>
    </g>
    <g id="Table" transform="translate(749.87 676.438)">
      <rect id="Retângulo_1456" data-name="Retângulo 1456" width="260.12" height="9.696" fill="#55526a"/>
    </g>
    <g id="Chat" transform="translate(675.242 488.939)">
      <path id="Caminho_5821" data-name="Caminho 5821" d="M736.549,593.9h22.438a18.131,18.131,0,0,1,18.149,18.149h0A18.107,18.107,0,0,1,759.3,630.2v5.532l-8.08-5.532H736.549A18.131,18.131,0,0,1,718.4,612.049h0A18.171,18.171,0,0,1,736.549,593.9Z" transform="translate(-702.612 -587.063)" fill="#55526a"/>
      <path id="Caminho_5822" data-name="Caminho 5822" d="M733.587,582.9H711.149A18.131,18.131,0,0,0,693,601.049h0A18.107,18.107,0,0,0,710.839,619.2v5.532l8.08-5.532h14.669a18.131,18.131,0,0,0,18.149-18.149h0A18.091,18.091,0,0,0,733.587,582.9Z" transform="translate(-693 -582.9)" fill="url(#linear-gradient-3)"/>
      <circle id="Elipse_483" data-name="Elipse 483" cx="2.859" cy="2.859" r="2.859" transform="translate(15.601 14.109)" fill="#fff"/>
      <circle id="Elipse_484" data-name="Elipse 484" cx="2.859" cy="2.859" r="2.859" transform="translate(26.665 14.109)" fill="#fff"/>
      <circle id="Elipse_485" data-name="Elipse 485" cx="2.859" cy="2.859" r="2.859" transform="translate(38.039 14.109)" fill="#fff"/>
    </g>
    <g id="laptop" transform="translate(793.256 612.17)">
      <path id="Caminho_5823" data-name="Caminho 5823" d="M952.6,840.018l17.839-56.064a5.522,5.522,0,0,1,5.221-3.854h91.12l-19.019,59.918Z" transform="translate(-908.843 -780.1)" fill="#8c8c89"/>
      <path id="Caminho_5824" data-name="Caminho 5824" d="M1072.112,784.389l-17.652,55.629H959.3L977.574,782.4a3.264,3.264,0,0,1,3.108-2.3h88.26a3.358,3.358,0,0,1,3.294,2.983A3.125,3.125,0,0,1,1072.112,784.389Z" transform="translate(-911.378 -780.1)" fill="#55526a"/>
      <rect id="Retângulo_1457" data-name="Retângulo 1457" width="52.521" height="5.656" transform="translate(0 59.234)" fill="#55526a"/>
      <rect id="Retângulo_1458" data-name="Retângulo 1458" width="95.16" height="5.656" transform="translate(47.922 59.234)" fill="#55526a"/>
      <ellipse id="Elipse_486" data-name="Elipse 486" cx="6.713" cy="5.283" rx="6.713" ry="5.283" transform="translate(99.242 34.992) rotate(-71.034)" fill="#ededed"/>
      <path id="Caminho_5825" data-name="Caminho 5825" d="M1084.865,786.205l-17.652,55.629H993c30.456-2.735,77.632-14.047,92.052-56.934A4.732,4.732,0,0,1,1084.865,786.205Z" transform="translate(-924.132 -781.917)" opacity="0.15"/>
    </g>
    <g id="card" transform="translate(816.446 377.736)">
      <rect id="Retângulo_1459" data-name="Retângulo 1459" width="113.247" height="36.485" transform="translate(0)" fill="#d0d6d6" opacity="0.7"/>
      <path id="Caminho_5826" data-name="Caminho 5826" d="M958.183,425.2a15.01,15.01,0,0,1-12.245,14.731,13.782,13.782,0,0,1-2.8.249,16.2,16.2,0,0,1-2.983-.311A15.036,15.036,0,1,1,958.183,425.2Z" transform="translate(-922.755 -406.992)" fill="#fff"/>
      <path id="Caminho_5827" data-name="Caminho 5827" d="M953.28,452.3v3.667a13.778,13.778,0,0,1-2.8.249,16.2,16.2,0,0,1-2.983-.311v-3.6Z" transform="translate(-930.097 -422.963)" fill="#f4aaa9"/>
      <path id="Caminho_5828" data-name="Caminho 5828" d="M955,435.588,953.632,429H941.264l-1.367,6.588c-.124,4.662,1.616,4.289,1.616,4.289.87,4.164,3.543,5.532,5.1,5.967a3.119,3.119,0,0,0,.746.124h0a3.117,3.117,0,0,0,.746-.124c1.554-.435,4.227-1.8,5.1-5.967C953.384,439.877,955.124,440.25,955,435.588Z" transform="translate(-927.216 -414.145)" fill="#f4aaa9"/>
      <path id="Caminho_5829" data-name="Caminho 5829" d="M941.154,432.448s-.187-5.9,3.294-7.956a6.326,6.326,0,0,0,5.407,2.8s4.289,1.367,3.605,4.848c0,0,1.616-1.43,1.865-4.848a8.9,8.9,0,0,0-3.481-7.583s1.865-3.978-2.113-6.029c0,0-4.289-1.554-6.464,1.74a4.019,4.019,0,0,0,0,4.164,7.2,7.2,0,0,0-3.481,5.78A9.248,9.248,0,0,0,941.154,432.448Z" transform="translate(-927.107 -408.207)" fill="#1f2873"/>
      <rect id="Retângulo_1460" data-name="Retângulo 1460" width="57.059" height="2.983" transform="translate(43.136 10.504)" fill="#fff"/>
      <rect id="Retângulo_1461" data-name="Retângulo 1461" width="57.059" height="2.983" transform="translate(43.136 16.906)" fill="#fff"/>
      <rect id="Retângulo_1462" data-name="Retângulo 1462" width="57.059" height="2.983" transform="translate(43.136 23.37)" fill="#fff"/>
    </g>
    <g id="Gear" transform="translate(688.544 368.723)">
      <g id="Grupo_5998" data-name="Grupo 5998" transform="translate(0 0)">
        <path id="Caminho_5830" data-name="Caminho 5830" d="M784.263,419.875a30.748,30.748,0,0,0-3.046-7.583l2.611-6.091-9.137-8.888-6.091,2.61a30.259,30.259,0,0,0-7.583-3.046l-2.175-6.278h-12.8l-2.362,6.278a30.751,30.751,0,0,0-7.583,3.046L730,397.313l-8.888,8.888,2.611,6.091a30.255,30.255,0,0,0-3.046,7.583l-6.278,2.362v12.8l6.278,2.362a30.751,30.751,0,0,0,3.046,7.583l-2.611,6.091,9.137,8.888,6.091-2.611a30.256,30.256,0,0,0,7.583,3.046l2.362,6.278h12.555L761.2,460.4a30.752,30.752,0,0,0,7.583-3.046l6.091,2.611,9.137-8.888-2.61-6.091a30.261,30.261,0,0,0,3.046-7.583l6.278-2.362v-12.8Zm-31.886,24.241a15.6,15.6,0,1,1,15.6-15.6A15.532,15.532,0,0,1,752.377,444.116Z" transform="translate(-714.4 -390.6)" fill="#d6deee"/>
        <path id="Caminho_5831" data-name="Caminho 5831" d="M813.021,521.982a12.09,12.09,0,0,0,0-3.667l2.175-2.176-2.175-5.407h-3.046a25.83,25.83,0,0,0-2.611-2.611v-3.046l-5.407-2.175-2.175,2.175a12.09,12.09,0,0,0-3.667,0l-2.175-2.175-5.408,2.175v3.046a25.828,25.828,0,0,0-2.611,2.611h-3.046l-2.175,5.407,2.175,2.176a12.086,12.086,0,0,0,0,3.667l-2.175,2.175,2.175,5.408h3.046a25.822,25.822,0,0,0,2.611,2.611v3.046l5.408,2.175,2.175-2.175a12.09,12.09,0,0,0,3.667,0l2.175,2.175,5.407-2.175v-3.046a25.828,25.828,0,0,0,2.611-2.611h3.046l2.175-5.408Zm-17.341,4.537a7.029,7.029,0,1,1,9.137-3.916A6.917,6.917,0,0,1,795.679,526.519Z" transform="translate(-739.491 -433.1)" fill="#d6deee"/>
        <path id="Caminho_5832" data-name="Caminho 5832" d="M858.721,476.282a12.086,12.086,0,0,0,0-3.667l2.176-2.175-2.176-5.408h-3.046a25.831,25.831,0,0,0-2.61-2.611v-3.046l-5.407-2.175-2.175,2.175a12.086,12.086,0,0,0-3.667,0l-2.176-2.175-5.407,2.175v3.046a25.813,25.813,0,0,0-2.61,2.611h-3.046l-2.175,5.408,2.175,2.175a12.09,12.09,0,0,0,0,3.667l-2.175,2.175,2.175,5.408h3.046a25.832,25.832,0,0,0,2.61,2.611v3.046l5.407,2.175,2.176-2.175a12.09,12.09,0,0,0,3.667,0l2.175,2.175,5.407-2.175v-3.046a25.842,25.842,0,0,0,2.61-2.611h3.046l2.176-5.408Zm-17.59,4.786a7.029,7.029,0,1,1,9.137-3.916A6.849,6.849,0,0,1,841.131,481.068Z" transform="translate(-756.786 -415.805)" fill="#d6deee"/>
      </g>
    </g>
    <g id="Enviroment" transform="translate(655.974 356.852)">
      <g id="Grupo_6000" data-name="Grupo 6000" transform="translate(225.749 181.245)">
        <g id="Grupo_5999" data-name="Grupo 5999">
          <path id="Caminho_5833" data-name="Caminho 5833" d="M1034.9,690.821v-.186a13.435,13.435,0,0,1,.932-5.035,8.459,8.459,0,0,1,2.549-3.667c.373-.311.87-.746,1.554-1.305,2.984-2.362,4.475-4.351,4.475-5.9a3.653,3.653,0,0,0-1.43-2.983,5.864,5.864,0,0,0-3.792-1.119,5.159,5.159,0,0,0-3.854,1.43,5.821,5.821,0,0,0-1.367,4.1v.311H1024.4c.187-4.351,1.492-7.645,4.04-9.945,2.486-2.3,6.029-3.419,10.629-3.419,4.475,0,8.08,1.057,10.753,3.108a9.657,9.657,0,0,1,4.04,8.142,11.147,11.147,0,0,1-.932,4.662,10.936,10.936,0,0,1-2.921,3.729c-.311.249-.746.622-1.368,1.119-3.108,2.61-4.661,4.848-4.786,6.837H1034.9Zm-.373,12.555v-9.385h9.883v9.385Z" transform="translate(-1024.4 -663.1)" fill="#d6deee"/>
        </g>
      </g>
      <g id="Grupo_6002" data-name="Grupo 6002" transform="translate(353.061 188.89)">
        <g id="Grupo_6001" data-name="Grupo 6001">
          <path id="Caminho_5834" data-name="Caminho 5834" d="M1239.428,696.657a10.629,10.629,0,1,1,10.629-10.629A10.624,10.624,0,0,1,1239.428,696.657Zm0-16.72a6.091,6.091,0,1,0,6.091,6.091A6.1,6.1,0,0,0,1239.428,679.937Z" transform="translate(-1228.8 -675.4)" fill="#d6deee"/>
        </g>
      </g>
      <g id="Grupo_6003" data-name="Grupo 6003" transform="translate(448.972 0)">
        <path id="Caminho_5835" data-name="Caminho 5835" d="M1389.761,385.423a6.961,6.961,0,1,1,6.961-6.961A6.95,6.95,0,0,1,1389.761,385.423Zm0-11.188a4.289,4.289,0,1,0,4.289,4.289A4.3,4.3,0,0,0,1389.761,374.235Z" transform="translate(-1382.8 -371.5)" fill="#d6e7ee"/>
      </g>
      <g id="Grupo_6005" data-name="Grupo 6005" transform="translate(0 79.186)">
        <g id="Grupo_6004" data-name="Grupo 6004">
          <path id="Caminho_5836" data-name="Caminho 5836" d="M668.961,512.823a6.961,6.961,0,1,1,6.961-6.961A6.95,6.95,0,0,1,668.961,512.823Zm0-11.25a4.289,4.289,0,1,0,4.289,4.289A4.3,4.3,0,0,0,668.961,501.573Z" transform="translate(-662 -498.9)" fill="#d6dbee"/>
        </g>
      </g>
    </g>
    <g id="Plant" transform="translate(960.584 598.06)">
      <path id="Caminho_5837" data-name="Caminho 5837" d="M1151,791.641s34.185-3.916,30.145,18.584C1181.145,810.163,1165.917,823.527,1151,791.641Z" transform="translate(-1151 -770.26)" fill="url(#linear-gradient-4)"/>
      <path id="Caminho_5838" data-name="Caminho 5838" d="M1173,775.932s14.109-4.289,14.109,5.532C1187.109,781.526,1181.7,788.3,1173,775.932Z" transform="translate(-1159.326 -764.061)" fill="url(#linear-gradient-5)"/>
      <path id="Caminho_5839" data-name="Caminho 5839" d="M1223.121,769.9s-22.376,9.075-12.307,21.568C1210.814,791.468,1224.613,794.576,1223.121,769.9Z" transform="translate(-1172.651 -762.131)" fill="url(#linear-gradient-6)"/>
      <path id="Caminho_5840" data-name="Caminho 5840" d="M1206.909,757.4s-11.064,4.475-6.091,10.629C1200.818,768.029,1207.655,769.582,1206.909,757.4Z" transform="translate(-1169.367 -757.4)" fill="url(#linear-gradient-7)"/>
      <path id="Caminho_5841" data-name="Caminho 5841" d="M1181.024,793.735c11.437,4.724,15.352,11.437,16.6,16.285,0,.124.062.186.062.311a87.22,87.22,0,0,0-2.859-25.857c-2.921-5.035-9.385-7.645-9.448-7.645l.249-.559a23.61,23.61,0,0,1,8.7,6.34,9.656,9.656,0,0,1-.311-1.057,48.366,48.366,0,0,0-5.9-12.68l.5-.373a41.824,41.824,0,0,1,3.916,7.21,19.6,19.6,0,0,1,2.673-7.086l.559.311a20.794,20.794,0,0,0-2.673,7.956c.56,1.305,1.057,2.8,1.616,4.413a77.308,77.308,0,0,1,3.419,17.279,38.352,38.352,0,0,1,9.385-19.7l.435.435c-.062.062-8.142,7.894-9.572,22.189h0a107.833,107.833,0,0,1,0,11.872,15.738,15.738,0,0,1-.559,6.153l-.995,2.921.373-3.108c.249-2.051.435-4.04.5-5.967a16.052,16.052,0,0,0-.559-3.232c-1.243-4.724-5.1-11.25-16.223-15.85Z" transform="translate(-1162.316 -761.601)" fill="#55526a"/>
      <path id="Caminho_5842" data-name="Caminho 5842" d="M1213.462,837.2l-2.673,24.738a4.971,4.971,0,0,1-4.91,4.413h-12a4.918,4.918,0,0,1-4.91-4.413L1186.3,837.2Z" transform="translate(-1164.359 -787.6)" fill="url(#linear-gradient-8)"/>
      <path id="Caminho_5843" data-name="Caminho 5843" d="M1216.262,837.2l-2.673,24.738a4.971,4.971,0,0,1-4.91,4.413h-12a4.919,4.919,0,0,1-2.983-.994c13.736-4.91,20.076-20.138,22.562-28.156Z" transform="translate(-1167.16 -787.6)" opacity="0.15"/>
    </g>
  </g>
</svg>
