<svg xmlns="http://www.w3.org/2000/svg" width="21.553" height="25.561" viewBox="0 0 21.553 25.561">
  <g id="Link" transform="translate(21.553 5.885) rotate(120)">
    <path id="Caminho_462" data-name="Caminho 462" d="M9.164,11.663l-3.408-.046A5.932,5.932,0,0,1,0,5.732,5.565,5.565,0,0,1,5.6,0L9.012.046a1.186,1.186,0,0,1,1.151,1.177A1.113,1.113,0,0,1,9.042,2.37L5.635,2.324A3.339,3.339,0,0,0,2.272,5.763,3.559,3.559,0,0,0,5.726,9.294l3.408.046a1.186,1.186,0,0,1,1.151,1.177A1.113,1.113,0,0,1,9.164,11.663Zm7.951.107-3.408-.046a1.186,1.186,0,0,1-1.151-1.177A1.113,1.113,0,0,1,13.677,9.4l3.408.046a3.339,3.339,0,0,0,3.362-3.439,3.559,3.559,0,0,0-3.453-3.531l-3.408-.046a1.186,1.186,0,0,1-1.151-1.177A1.113,1.113,0,0,1,13.556.107l3.408.046a5.932,5.932,0,0,1,5.755,5.885A5.565,5.565,0,0,1,17.115,11.77Z" transform="translate(0 0)" fill="#0f7bff"/>
    <path id="Caminho_463" data-name="Caminho 463" d="M8.271,2.337,1.2,2.248A1.19,1.19,0,0,1,0,1.109,1.117,1.117,0,0,1,1.164,0L8.24.089a1.19,1.19,0,0,1,1.2,1.139A1.117,1.117,0,0,1,8.271,2.337Z" transform="translate(7.387 4.448)" fill="#6fafff"/>
  </g>
</svg>
