<svg xmlns="http://www.w3.org/2000/svg" width="18.361" height="23.971" viewBox="0 0 18.361 23.971">
  <g id="Manager_Gray" data-name="Manager | Gray" transform="translate(-401.225 -152.158)">
    <path id="user" d="M17.054,4a5.738,5.738,0,1,0,5.738,5.738A5.738,5.738,0,0,0,17.054,4Z" transform="translate(393.354 148.158)" fill="#9ab3d5"/>
    <path id="Subtração_25" data-name="Subtração 25" d="M9.181,10.2A11.894,11.894,0,0,1,3.045,8.645,5.924,5.924,0,0,1,0,3.506v-.97A2.422,2.422,0,0,1,2.283,0h13.8a2.422,2.422,0,0,1,2.282,2.536v.97C18.362,8.1,13.6,10.2,9.181,10.2ZM7.479.05,8.555,1.638,6.892,6.107a18.341,18.341,0,0,0,1.871.1,18.249,18.249,0,0,0,2.6-.188L9.735,1.638,10.81.05Z" transform="translate(401.224 165.93)" fill="#b7cfeb"/>
  </g>
</svg>
