<svg xmlns="http://www.w3.org/2000/svg" width="54.748" height="49.751" viewBox="0 0 54.748 49.751">
  <g id="No_send_failure_message" data-name="No send failure message" transform="translate(-270.002 -83.25)">
    <path id="Subtração_77" data-name="Subtração 77" d="M22387,21007.75a20,20,0,1,1,7.053-38.721,16.4,16.4,0,0,0,12.9,17.365c.029.445.045.9.045,1.355a19.982,19.982,0,0,1-20,20Zm7.693-29.562a1.047,1.047,0,0,0-.326.051l-18.727,6.242a.992.992,0,0,0-.479.342,1.02,1.02,0,0,0-.225.547,1.052,1.052,0,0,0,.107.574,1.067,1.067,0,0,0,.41.428l6.76,3.861v7.723a1.05,1.05,0,0,0,.209.619,1.023,1.023,0,0,0,.529.377,1.115,1.115,0,0,0,.3.039.962.962,0,0,0,.355-.061,1.016,1.016,0,0,0,.512-.4l3.619-5.432,6.439,3.682a1.1,1.1,0,0,0,.508.135h.01a1.056,1.056,0,0,0,.518-.146,1.028,1.028,0,0,0,.383-.377,1.041,1.041,0,0,0,.141-.518v-16.65a1.02,1.02,0,0,0-.117-.473,1.073,1.073,0,0,0-.314-.367,1.09,1.09,0,0,0-.457-.186A.861.861,0,0,0,22394.7,20978.188Zm-10.395,16.328v-4.357l3.814-2.723-1.621,3.8-2.191,3.277Z" transform="translate(-22097 -20874.75)" fill="#b9c9e0"/>
    <path id="Caminho_5345" data-name="Caminho 5345" d="M23.125,5.625a12.375,12.375,0,1,0,0,17.5,12.375,12.375,0,0,0,0-17.5ZM20.2,18.45a1.237,1.237,0,1,1-1.75,1.75l-4.075-4.075L10.3,20.2a1.237,1.237,0,1,1-1.75-1.75l4.075-4.075L8.55,10.3A1.237,1.237,0,1,1,10.3,8.55l4.075,4.075L18.45,8.55A1.237,1.237,0,1,1,20.2,10.3l-4.075,4.075Z" transform="translate(298 81.25)" fill="#cbdaee"/>
  </g>
</svg>
