<svg id="No_schedule_message" data-name="No schedule message" xmlns="http://www.w3.org/2000/svg" width="40.348" height="37.467" viewBox="0 0 40.348 37.467">
  <path id="Subtração_57" data-name="Subtração 57" d="M25.979,31.7H5.724A5.73,5.73,0,0,1,0,25.977V9.687H12.286a14.885,14.885,0,0,0,1.881,5.649,1.762,1.762,0,0,0,1.6,2.274,15.141,15.141,0,0,0,5.761,4.172A1.761,1.761,0,1,0,24.657,22.9a1.791,1.791,0,0,0-.014-.221,15.233,15.233,0,0,0,2.576.22,15.043,15.043,0,0,0,4.483-.679v3.763A5.73,5.73,0,0,1,25.979,31.7ZM15.852,21.134a1.761,1.761,0,1,0,1.76,1.761A1.763,1.763,0,0,0,15.852,21.134Zm-7.925,0A1.761,1.761,0,1,0,9.687,22.9,1.763,1.763,0,0,0,7.926,21.134Zm0-7.044a1.761,1.761,0,1,0,1.76,1.761A1.763,1.763,0,0,0,7.926,14.09ZM12.2,7.045H0V5.724A5.73,5.73,0,0,1,5.724,0h8.657A15.039,15.039,0,0,0,12.2,7.044Z" transform="translate(0 5.766)" fill="#b9c9e0"/>
  <path id="Subtração_58" data-name="Subtração 58" d="M12.968,25.94A12.97,12.97,0,1,1,25.937,12.97,12.984,12.984,0,0,1,12.968,25.94ZM17.96,6.767a.7.7,0,0,0-.213.034L5.6,10.848a.678.678,0,0,0-.385.951.675.675,0,0,0,.264.277l4.385,2.5v5.006a.683.683,0,0,0,.133.4.675.675,0,0,0,.347.242.666.666,0,0,0,.193.029.672.672,0,0,0,.562-.3l2.348-3.522,4.176,2.39a.68.68,0,0,0,.673-.006.684.684,0,0,0,.247-.245.668.668,0,0,0,.092-.337V7.441a.681.681,0,0,0-.282-.546.673.673,0,0,0-.293-.121A.8.8,0,0,0,17.96,6.767ZM11.218,17.36V14.534l2.476-1.768L12.64,15.228l-1.42,2.127Z" transform="translate(14.411 0)" fill="#cbdaee"/>
</svg>
