<svg xmlns="http://www.w3.org/2000/svg" width="24.846" height="27.619" viewBox="0 0 24.846 27.619">
  <path id="Online_attendants" data-name="Online attendants" d="M28.909,13.774A21.24,21.24,0,0,1,27.687,11.6,10.548,10.548,0,0,0,17.733,3.98v8.831a3.087,3.087,0,0,1,0,5.83v.536a2.073,2.073,0,0,0,2.07,2.07h1.733a1.725,1.725,0,1,1,0,2.07H19.8a4.145,4.145,0,0,1-4.141-4.141v-.536a3.087,3.087,0,0,1,0-5.83V4.077C9.9,4.749,6,8.777,6,14.346A11.54,11.54,0,0,0,7.874,20.97c1.115,1.939,2.267,3.944,2.267,9.594A1.035,1.035,0,0,0,11.176,31.6H22.219a1.035,1.035,0,0,0,1.035-1.035V27.777a.345.345,0,0,1,.345-.345,4.491,4.491,0,0,0,4.486-4.486v-3c2.761-.9,2.761-1.733,2.761-2.148C30.846,17.06,30.256,16.005,28.909,13.774Z" transform="translate(-6 -3.98)" fill="#a5b9d5"/>
</svg>
