<svg xmlns="http://www.w3.org/2000/svg" width="27.078" height="19.998" viewBox="0 0 27.078 19.998">
  <g id="Private_service" data-name="Private service" transform="translate(0.998 -1.648)">
    <path id="Subtração_69" data-name="Subtração 69" d="M7.113,17.256A10.245,10.245,0,0,1,2.359,16.2,3.941,3.941,0,0,1,0,12.726V12.07a1.744,1.744,0,0,1,1.766-1.717h9.8v5.854c0,.047,0,.1,0,.147A10.662,10.662,0,0,1,7.113,17.256Zm0-8.625A4.386,4.386,0,0,1,2.671,4.316,4.386,4.386,0,0,1,7.113,0a4.39,4.39,0,0,1,4.451,4.316A4.39,4.39,0,0,1,7.113,8.631Z" transform="translate(-0.998 3.521)" fill="#6bacfd"/>
    <path id="user-lock" d="M26.082,16.764a5,5,0,0,1,5,5v2.243a2.851,2.851,0,0,1,2.143,2.756V33.9a2.856,2.856,0,0,1-2.857,2.857H21.8A2.856,2.856,0,0,1,18.939,33.9V26.763a2.851,2.851,0,0,1,2.143-2.756V21.763A5.005,5.005,0,0,1,26.082,16.764Zm0,2.857a2.145,2.145,0,0,0-2.143,2.143v2.143h4.285V21.763A2.145,2.145,0,0,0,26.082,19.62Z" transform="translate(-7.144 -15.115)" fill="#0072ff"/>
  </g>
</svg>
