<svg xmlns="http://www.w3.org/2000/svg" width="24.443" height="24.441" viewBox="0 0 24.443 24.441">
  <path id="Quick_answers" data-name="Quick answers" d="M16.221,4A12.235,12.235,0,0,0,4,16.219a12.107,12.107,0,0,0,1.382,5.54L4.057,26.5a1.559,1.559,0,0,0,1.883,1.883l4.747-1.325a12.106,12.106,0,0,0,5.534,1.38A12.221,12.221,0,1,0,16.221,4Zm2.139,7.945a.914.914,0,0,1,.648.269l3.666,3.666a.917.917,0,0,1,0,1.3L19.008,20.84a.916.916,0,0,1-1.3-1.3l2.1-2.1h-9.4a.917.917,0,1,1,0-1.833h9.4l-2.1-2.1a.917.917,0,0,1,.648-1.565Z" transform="translate(-4 -3.998)" fill="#0072ff"/>
</svg>
