<svg xmlns="http://www.w3.org/2000/svg" width="67" height="49" viewBox="0 0 67 49">
  <g id="Release_private_service_" data-name="Release private service?" transform="translate(3.004 -1.649)">
    <path id="Subtração_69" data-name="Subtração 69" d="M18,42.352c-4.083,0-8.7-.238-12-2a12.077,12.077,0,0,1-4.416-3.93A9.212,9.212,0,0,1,0,31.352v-1a5.94,5.94,0,0,1,1.093-3.378A3.6,3.6,0,0,1,4,25.352H30V39.559A23.982,23.982,0,0,1,18,42.352Zm0-21a10.882,10.882,0,0,1-7.784-3.29,11.2,11.2,0,0,1-2.354-3.5A10.7,10.7,0,0,1,7,10.353a9.5,9.5,0,0,1,3.216-7.21A11.665,11.665,0,0,1,18,.353a11.665,11.665,0,0,1,7.784,2.79A9.5,9.5,0,0,1,29,10.353a10.7,10.7,0,0,1-.862,4.2,11.2,11.2,0,0,1-2.354,3.5A10.882,10.882,0,0,1,18,21.352Z" transform="translate(-3.003 6.297)" fill="#0072ff"/>
    <path id="unlock-message" d="M65.6,69a6.944,6.944,0,0,1-7,7h-22a6.944,6.944,0,0,1-7-7V52c0-3.291,2.95-6.212,6-7V39a11.751,11.751,0,0,1,12-12,12.607,12.607,0,0,1,10,5,3.606,3.606,0,0,1-6,4,4.749,4.749,0,0,0-4-2,4.8,4.8,0,0,0-5,5v6h16a6.944,6.944,0,0,1,7,7Z" transform="translate(-1.606 -25.351)" fill="#6bacfd"/>
  </g>
</svg>
