<svg xmlns="http://www.w3.org/2000/svg" width="50.004" height="50" viewBox="0 0 50.004 50">
  <path id="_Right_arrow" data-name=" Right arrow" d="M25,50A24.99,24.99,0,0,1,7.323,7.324,25.018,25.018,0,0,1,48.039,15.27,25,25,0,0,1,25,50ZM22.178,14a2.152,2.152,0,0,0-.833.166A2.181,2.181,0,0,0,20,16.178a2.127,2.127,0,0,0,.634,1.535l7.694,7.7L20.638,33.1a2.175,2.175,0,1,0,3.077,3.076l9.229-9.234a2.164,2.164,0,0,0,0-3.072l-9.229-9.234A2.157,2.157,0,0,0,22.178,14Z" fill="#e4ebf4" opacity="0.65"/>
</svg>
