<svg id="schedule_messages" data-name="schedule messages" xmlns="http://www.w3.org/2000/svg" width="27.998" height="25.999" viewBox="0 0 27.998 25.999">
  <path id="Subtração_57" data-name="Subtração 57" d="M18.027,22H3.973A3.977,3.977,0,0,1,0,18.026V6.722H8.526a10.328,10.328,0,0,0,1.305,3.919,1.223,1.223,0,0,0,1.113,1.578,10.506,10.506,0,0,0,4,2.895,1.222,1.222,0,1,0,2.169.773,1.246,1.246,0,0,0-.01-.154,10.567,10.567,0,0,0,1.787.152A10.443,10.443,0,0,0,22,15.415v2.611A3.976,3.976,0,0,1,18.027,22ZM11,14.666a1.222,1.222,0,1,0,1.222,1.222A1.224,1.224,0,0,0,11,14.666Zm-5.5,0a1.222,1.222,0,1,0,1.222,1.222A1.224,1.224,0,0,0,5.5,14.666Zm0-4.889A1.222,1.222,0,1,0,6.722,11,1.224,1.224,0,0,0,5.5,9.777ZM8.463,4.889H0V3.972A3.977,3.977,0,0,1,3.973,0H9.979A10.436,10.436,0,0,0,8.463,4.888Z" transform="translate(0 4.001)" fill="#0072ff"/>
  <path id="Subtração_58" data-name="Subtração 58" d="M9,18a9,9,0,1,1,9-9A9.01,9.01,0,0,1,9,18ZM12.463,4.7a.486.486,0,0,0-.148.023L3.889,7.528a.471.471,0,0,0-.267.66.468.468,0,0,0,.183.192l3.043,1.737v3.474a.474.474,0,0,0,.092.279.468.468,0,0,0,.241.168.462.462,0,0,0,.134.02.466.466,0,0,0,.39-.211L9.333,11.4l2.9,1.658a.472.472,0,0,0,.467,0,.474.474,0,0,0,.171-.17.463.463,0,0,0,.064-.234V5.164a.473.473,0,0,0-.2-.379.467.467,0,0,0-.2-.084A.554.554,0,0,0,12.463,4.7ZM7.784,12.047V10.085L9.5,8.858l-.731,1.709-.985,1.476Z" transform="translate(10)" fill="#6bacfd"/>
</svg>
