<svg xmlns="http://www.w3.org/2000/svg" width="22.258" height="20.646" viewBox="0 0 22.258 20.646">
  <g id="Sector_Active" data-name="Sector | Active" transform="translate(-3.971 -38.572)">
    <path id="Caminho_5064" data-name="Caminho 5064" d="M4.776,28.646H13.21a.3.3,0,0,0,.3-.3v-2.08a1.588,1.588,0,0,1,3.176,0v2.08a.3.3,0,0,0,.3.3h8.389a.822.822,0,0,0,.838-.659.794.794,0,0,0-.794-.929h-.032a.762.762,0,0,1-.762-.762V13.638a.862.862,0,0,1,.794-.873.48.48,0,0,0,.433-.695L24.116,8.564A1.024,1.024,0,0,0,23.2,8H7a1.024,1.024,0,0,0-.913.564L4.332,12.07a.48.48,0,0,0,.445.695.862.862,0,0,1,.794.873v12.67a.75.75,0,0,1-.75.75.822.822,0,0,0-.838.659.794.794,0,0,0,.794.929ZM19.07,14.126a.568.568,0,0,1,.568-.568h2.037a.568.568,0,0,1,.572.568v.449a.568.568,0,0,1-.568.572H19.638a.568.568,0,0,1-.568-.568Zm0,3.97a.568.568,0,0,1,.568-.568h2.037a.568.568,0,0,1,.572.568v.449a.568.568,0,0,1-.568.572H19.638a.568.568,0,0,1-.568-.568Zm0,3.97a.568.568,0,0,1,.568-.568h2.037a.568.568,0,0,1,.572.568v.449a.568.568,0,0,1-.568.572H19.638a.568.568,0,0,1-.568-.568Zm-5.559-7.941a.568.568,0,0,1,.568-.568h2.037a.568.568,0,0,1,.572.568v.449a.568.568,0,0,1-.568.572H14.079a.568.568,0,0,1-.568-.568Zm0,3.97a.568.568,0,0,1,.568-.568h2.037a.568.568,0,0,1,.572.568v.449a.568.568,0,0,1-.568.572H14.079a.568.568,0,0,1-.568-.568Zm0,3.97a.568.568,0,0,1,.568-.568h2.037a.568.568,0,0,1,.572.568v.449a.568.568,0,0,1-.568.572H14.079a.568.568,0,0,1-.568-.568ZM7.953,14.126a.568.568,0,0,1,.568-.568h2.037a.568.568,0,0,1,.572.568v.449a.568.568,0,0,1-.568.572H8.521a.568.568,0,0,1-.568-.568Zm0,3.97a.568.568,0,0,1,.568-.568h2.037a.568.568,0,0,1,.572.568v.449a.568.568,0,0,1-.568.572H8.521a.568.568,0,0,1-.568-.568Zm0,3.97a.568.568,0,0,1,.568-.568h2.037a.568.568,0,0,1,.572.568v.449a.568.568,0,0,1-.568.572H8.521a.568.568,0,0,1-.568-.568Z" transform="translate(0 30.572)" fill="#0080fc"/>
  </g>
</svg>
