<svg xmlns="http://www.w3.org/2000/svg" width="28" height="28" viewBox="0 0 28 28">
  <path id="Select_or_drop_your_image_here_" data-name="Select or drop your image here!" d="M9.85,6A3.857,3.857,0,0,0,6,9.85v17.5a3.856,3.856,0,0,0,.525,1.932L16.633,19.4a2.807,2.807,0,0,1,3.843-.085A9.081,9.081,0,0,1,31.2,18.636V9.85A3.857,3.857,0,0,0,27.35,6Zm13.3,5.6a2.45,2.45,0,1,1-2.45,2.45A2.453,2.453,0,0,1,23.15,11.6Zm3.15,7A7.7,7.7,0,1,0,34,26.3,7.7,7.7,0,0,0,26.3,18.6Zm-7.749,2.1a.726.726,0,0,0-.462.2L8.037,30.745A3.846,3.846,0,0,0,9.85,31.2h8.786a9.078,9.078,0,0,1,.391-10.361A.715.715,0,0,0,18.551,20.7Zm7.749,0a.7.7,0,0,1,.7.7v4.2h4.2a.7.7,0,1,1,0,1.4H27v4.2a.7.7,0,1,1-1.4,0V27H21.4a.7.7,0,1,1,0-1.4h4.2V21.4A.7.7,0,0,1,26.3,20.7Z" transform="translate(-6 -6)" fill="#0080fc"/>
</svg>
