<svg id="Select_or_drop_your_video_here_" data-name="Select or drop your video here!" xmlns="http://www.w3.org/2000/svg" width="29.572" height="27.999" viewBox="0 0 29.572 27.999">
  <path id="add-image" d="M30.562,24a6.562,6.562,0,1,0,6.562,6.562A6.562,6.562,0,0,0,30.562,24Zm0,1.79a.6.6,0,0,1,.6.6v3.579h3.579a.6.6,0,1,1,0,1.193H31.158v3.579a.6.6,0,1,1-1.193,0V31.158H26.386a.6.6,0,1,1,0-1.193h3.579V26.386A.6.6,0,0,1,30.562,25.79Z" transform="translate(-13.557 -9.124)" fill="#0080fc"/>
  <path id="Subtração_64" data-name="Subtração 64" d="M8.875,21.684H4.126A4.026,4.026,0,0,1,1.2,20.42,4.4,4.4,0,0,1,0,17.375V4.309A4.36,4.36,0,0,1,1.2,1.264,4.026,4.026,0,0,1,4.126,0H16.792a3.984,3.984,0,0,1,2.9,1.252,4.391,4.391,0,0,1,1.194,3.024V14.29A8.133,8.133,0,0,0,8.872,21.437c0,.065,0,.141,0,.246ZM16.67,3.251a1.086,1.086,0,1,0,1.041,1.086A1.065,1.065,0,0,0,16.67,3.251Z" fill="#0f7bff"/>
  <path id="Caminho_5327" data-name="Caminho 5327" d="M54.579,31.741V19.026a1.424,1.424,0,0,0-.69-1.22,1.454,1.454,0,0,0-1.412-.05l-3.451,1.752a1.766,1.766,0,0,0-.966,1.552v8.65a1.766,1.766,0,0,0,.966,1.568l3.451,1.757a1.454,1.454,0,0,0,1.421-.056A1.424,1.424,0,0,0,54.579,31.741Z" transform="translate(-25.008 -14.542)" fill="#6aabfd"/>
</svg>
