<svg id="Sent" xmlns="http://www.w3.org/2000/svg" width="23.693" height="23.693" viewBox="0 0 23.693 23.693">
  <path id="Vector" d="M9.476,23.693a1.186,1.186,0,0,1-.949-.477,1.187,1.187,0,0,1-.232-.706V13.72l-7.7-4.4A1.19,1.19,0,0,1,.006,8.178a1.2,1.2,0,0,1,.253-.623,1.185,1.185,0,0,1,.549-.387L22.129.06A1.2,1.2,0,0,1,22.5,0a1.183,1.183,0,0,1,.181.014,1.194,1.194,0,0,1,1.01,1.171V20.141a1.194,1.194,0,0,1-1.184,1.183H22.5a1.2,1.2,0,0,1-.581-.151l-7.332-4.195-4.123,6.185a1.179,1.179,0,0,1-.986.531Zm5.535-13.16-4.348,3.1V18.6l2.5-3.744Z" transform="translate(0)" fill="#0072ff"/>
</svg>
