<svg xmlns="http://www.w3.org/2000/svg" width="16.99" height="17.003" viewBox="0 0 16.99 17.003">
  <path id="Setting" d="M24367.832,6637.715h-1.811a1.025,1.025,0,0,1-.988-.787l-.328-1.3a7.268,7.268,0,0,1-.744-.311l-1.158.685a1.024,1.024,0,0,1-.527.15,1.036,1.036,0,0,1-.73-.3l-1.262-1.263a1.017,1.017,0,0,1-.154-1.262l.686-1.143a7.146,7.146,0,0,1-.311-.75l-1.3-.321a1.043,1.043,0,0,1-.777-1.006v-1.8a1.012,1.012,0,0,1,.787-.987l1.3-.33a5.071,5.071,0,0,1,.313-.74l-.7-1.162a1.027,1.027,0,0,1,.154-1.253l1.262-1.271a1.047,1.047,0,0,1,.727-.3,1.031,1.031,0,0,1,.531.15l1.15.686a7.834,7.834,0,0,1,.742-.321l.328-1.3a.991.991,0,0,1,.191-.376,1,1,0,0,1,.8-.393h1.793a1.013,1.013,0,0,1,.994.778l.32,1.3a7.19,7.19,0,0,1,.752.319l1.17-.695a1.021,1.021,0,0,1,.531-.15,1.043,1.043,0,0,1,.73.3l1.262,1.271a1.017,1.017,0,0,1,.156,1.253l-.691,1.152a5.732,5.732,0,0,1,.316.741l1.3.33a1.008,1.008,0,0,1,.77,1v1.793a1.015,1.015,0,0,1-.777,1l-1.3.321a7.623,7.623,0,0,1-.307.75l.691,1.161a1.029,1.029,0,0,1-.156,1.262l-1.262,1.263a1.029,1.029,0,0,1-.73.3,1.017,1.017,0,0,1-.531-.15l-1.145-.685a7.835,7.835,0,0,1-.748.311l-.324,1.3A1.03,1.03,0,0,1,24367.832,6637.715Zm-.9-11.06a2.548,2.548,0,0,0-.018,5.1h.018a2.548,2.548,0,1,0,0-5.1Z" transform="translate(-24358.426 -6620.712)" fill="#f8fafd"/>
</svg>
