<svg xmlns="http://www.w3.org/2000/svg" width="17.998" height="18.001" viewBox="0 0 17.998 18.001">
  <path id="Setting_chat" data-name="Setting chat" d="M9.963,18H8.045A1.083,1.083,0,0,1,7,17.168l-.347-1.374a7.626,7.626,0,0,1-.789-.329l-1.228.724A1.075,1.075,0,0,1,3.3,16.025L1.968,14.688A1.075,1.075,0,0,1,1.8,13.352l.727-1.209a7.727,7.727,0,0,1-.327-.795L.824,11.01A1.108,1.108,0,0,1,0,9.944V8.037A1.073,1.073,0,0,1,.833,6.991L2.21,6.643a5.5,5.5,0,0,1,.332-.783L1.8,4.629A1.08,1.08,0,0,1,1.968,3.3L3.3,1.956A1.089,1.089,0,0,1,4.636,1.8l1.219.726c.25-.125.523-.241.784-.339L6.989.814a1.033,1.033,0,0,1,.2-.4A1.066,1.066,0,0,1,8.039,0h1.9a1.076,1.076,0,0,1,1.055.824L11.33,2.2a7.529,7.529,0,0,1,.793.337L13.366,1.8a1.078,1.078,0,0,1,.562-.159,1.106,1.106,0,0,1,.773.314L16.038,3.3A1.069,1.069,0,0,1,16.2,4.629l-.729,1.219a5.9,5.9,0,0,1,.336.785l1.375.348A1.065,1.065,0,0,1,18,8.037v1.9a1.074,1.074,0,0,1-.824,1.055l-1.38.34a8.523,8.523,0,0,1-.323.794l.729,1.229a1.082,1.082,0,0,1-.163,1.336L14.7,16.025a1.091,1.091,0,0,1-.773.323,1.073,1.073,0,0,1-.562-.159l-1.215-.724a8,8,0,0,1-.793.329l-.341,1.374A1.094,1.094,0,0,1,9.963,18ZM9.01,6.292a2.7,2.7,0,0,0-.018,5.4H9.01a2.7,2.7,0,1,0,0-5.4Z" fill="#a5b9d5" opacity="0.997"/>
</svg>
