<?xml version="1.0"?>
<svg width="45.018" height="40.218" xmlns="http://www.w3.org/2000/svg" xmlns:svg="http://www.w3.org/2000/svg">
 <g class="layer">
  <title>Layer 1</title>
  <g data-name="There are no messages" id="There_are_no_messages">
   <path d="m1.38,34.007c-0.1,0 -0.207,-0.063 -0.361,-0.218c-0.418,-0.418 -1.14,-1.433 -1,-2l2,-7a13.918,13.918 0 0 1 -1.267,-5.248a27.471,27.471 0 0 1 0.267,-5.752a16.786,16.786 0 0 1 4.582,-9.474a15.824,15.824 0 0 1 9.417,-4.526a5.326,5.326 0 0 1 0.664,-0.041c0.215,0 0.431,0.01 0.64,0.019s0.44,0.019 0.667,0.019l0.03,0c0.217,0 0.434,-0.009 0.645,-0.017s0.453,-0.017 0.678,-0.017c0.152,0 0.289,0 0.419,0.012a15.01,15.01 0 0 0 2.652,17.629a14.9,14.9 0 0 0 10.607,4.393a15.162,15.162 0 0 0 2.375,-0.184a17.676,17.676 0 0 1 -5.472,8.081a17.83,17.83 0 0 1 -8.909,4.107a13.654,13.654 0 0 1 -1.987,0.146a17.693,17.693 0 0 1 -8.013,-2.147l-8,2a2.136,2.136 0 0 0 -0.393,0.141a0.634,0.634 0 0 1 -0.241,0.077z" data-name="Subtração 43" fill="#cbdaee" id="Subtração_43" transform="translate(0 6.21)"/>
   <circle cx="13.395" cy="12.648" data-name="Elipse 394" fill="#a5b9d5" id="Elipse_394" r="13" transform="translate(18.623 0.352)"/>
  </g>
  <text fill="#ffffff" font-family="Cursive" font-size="24" id="svg_1" stroke="#000000" stroke-width="0" text-anchor="middle" transform="matrix(0.553665 0 0 0.563694 13.7845 6.27365)" x="33.130548" xml:space="preserve" y="21.021536">0</text>
 </g>
</svg>