<svg xmlns="http://www.w3.org/2000/svg" width="20" height="22.003" viewBox="0 0 20 22.003">
  <g id="To_sign_Active_-_Hover" data-name="To sign | Active - Hover" transform="translate(-14.98 -13.567)">
    <path id="Caminho_5319" data-name="Caminho 5319" d="M13.06,5.19l3.75,3.75L8.04,17.71a.967.967,0,0,1-.7.29H5a1,1,0,0,1-1-1V14.66a1.033,1.033,0,0,1,.29-.71Zm4.82,2.68L14.13,4.12l1.83-1.83a1,1,0,0,1,1.41,0l2.34,2.34a1,1,0,0,1,0,1.41Z" transform="translate(12.98 11.57)" fill="#9ab3d5"/>
    <path id="Caminho_5320" data-name="Caminho 5320" d="M20,24H4a2.006,2.006,0,0,1-2-2H2a2.006,2.006,0,0,1,2-2H20a2.006,2.006,0,0,1,2,2h0A2.006,2.006,0,0,1,20,24Z" transform="translate(12.98 11.57)" fill="#b7cfeb"/>
  </g>
</svg>
