<svg id="To_update" data-name="To update" xmlns="http://www.w3.org/2000/svg" width="17.211" height="17.211" viewBox="0 0 17.211 17.211">
  <path id="Caminho_5290" data-name="Caminho 5290" d="M14.79,10.147a1.229,1.229,0,0,0,1.229,1.229h6.147V5.229a1.229,1.229,0,0,0-2.459,0V6.6A8.605,8.605,0,0,0,5.45,9.735a1.229,1.229,0,1,0,2.318.821A6.147,6.147,0,0,1,18.478,8.917H16.019A1.229,1.229,0,0,0,14.79,10.147Z" transform="translate(-4.955 -4)" fill="#0072ff"/>
  <path id="Caminho_5291" data-name="Caminho 5291" d="M4,42.147a1.229,1.229,0,0,0,2.459,0V40.782a8.605,8.605,0,0,0,14.257-3.135,1.229,1.229,0,1,0-2.318-.821A6.147,6.147,0,0,1,7.688,38.459h2.459a1.229,1.229,0,1,0,0-2.459H4Z" transform="translate(-4 -26.165)" fill="#0072ff"/>
</svg>
