<svg xmlns="http://www.w3.org/2000/svg" width="19.998" height="19.998" viewBox="0 0 19.998 19.998">
  <path id="Transfer_service" data-name="Transfer service" d="M10,20A9.818,9.818,0,0,1,5.47,18.865L1.587,19.952A1.178,1.178,0,0,1,1.272,20a1.284,1.284,0,0,1-1.01-.521A1.212,1.212,0,0,1,.046,18.41l1.081-3.881A9.9,9.9,0,0,1,0,10,10,10,0,1,1,10,20Zm.165-12a4.756,4.756,0,0,0-4.751,4.75v1a.75.75,0,0,0,1.5,0v-1a3.256,3.256,0,0,1,3.252-3.251h2.688l-1.722,1.72a.751.751,0,1,0,1.066,1.06l3-3a.761.761,0,0,0,0-1.06l-3-3a.751.751,0,1,0-1.066,1.06L12.852,8Z" fill="#0072ff"/>
</svg>
