<svg xmlns="http://www.w3.org/2000/svg" width="457.148" height="353.868" viewBox="0 0 457.148 353.868">
  <g id="Trying_to_connect_to_synced_cell_phone" data-name="Trying to connect to synced cell phone" transform="translate(-897.57 -347.675)">
    <path id="Caminho_5615" data-name="Caminho 5615" d="M949.664,768.773H1386.9s0-51.73-35.245-51.73c-27.625,0-13.336-81.922-61.918-81.922s-20.414-144.162-85.462-144.162-63.958,79.561-63.958,97.486-57.907,7.62-57.907,46.677-59.534,15.235-59.534,59.534S949.664,693.808,949.664,768.773Z" transform="translate(-32.181 -88.516)" fill="#e2d7d2"/>
    <ellipse id="Elipse_457" data-name="Elipse 457" cx="38.628" cy="7.558" rx="38.628" ry="7.558" transform="translate(971.591 686.427)" fill="#f9f1ed"/>
    <ellipse id="Elipse_458" data-name="Elipse 458" cx="38.628" cy="7.558" rx="38.628" ry="7.558" transform="translate(1187.967 686.427)" fill="#f9f1ed"/>
    <path id="Caminho_5616" data-name="Caminho 5616" d="M950.742,820.84l-7.364,2.317,2.791-12.7a197.747,197.747,0,0,0-9.791-18.012c-3.526,1.4-7.282,2.8-7.282,2.8l1.88-11.177c-16.574-24.394-33.4-38.283-33.4-38.283a208.008,208.008,0,0,1,16.886,51.231l5.782,1.772-5.007,2.623a154.86,154.86,0,0,1,2.124,29.008C916.2,874.486,948.614,926.2,948.614,926.2h7.853C968.2,885.574,962.4,849.693,950.742,820.84Z" transform="translate(0 -245.941)" fill="#f9a17a"/>
    <path id="Caminho_5617" data-name="Caminho 5617" d="M1033.808,759.216l12.852-3.342-7.611-7.11c.577-.988,1.167-1.97,1.783-2.937,3.674-5.766,6.913-11.165,9.774-16.213l12.109.972-6.524-11.291c16.989-33,15.794-47.684,15.794-47.684s8.838,22.888,9.8,59.67l-8.69,4.033,8.769,4.512a255.369,255.369,0,0,1-1.539,25.864l-15.01,4.409a65.37,65.37,0,0,0,12.363,13.725c-5.265,29-16.215,61.885-36.847,96.551H1032.7S1011.787,810.7,1033.808,759.216Z" transform="translate(-77.934 -200.116)" fill="#fcb490"/>
    <path id="Caminho_5618" data-name="Caminho 5618" d="M976.458,1160.889s-8.246-15.129-4.581-13.6,7.024,8.246,7.024,8.246-7.33-18.783-5.956-20.31,8.552,15.271,8.552,15.271-3.665-9.926-1.68-11.148,5.956,9.926,5.956,9.926-7.363-20.4-2.689-23.411,13.989,35.028,13.989,35.028Z" transform="translate(-45.324 -480.632)" fill="#fcc5b1"/>
    <path id="Caminho_5619" data-name="Caminho 5619" d="M1109.033,1196.281s5.268-11.311,0-13.144-17.92,13.144-17.92,13.144Z" transform="translate(-119.564 -516.024)" fill="#f98f7a"/>
    <path id="Caminho_5620" data-name="Caminho 5620" d="M1050.837,939.89l5.156,1.622-1.954-8.891a138.349,138.349,0,0,1,6.855-12.61c2.469.982,5.1,1.964,5.1,1.964l-1.316-7.824c11.6-17.078,23.386-26.8,23.386-26.8a145.619,145.619,0,0,0-11.822,35.865l-4.048,1.241,3.505,1.837a108.431,108.431,0,0,0-1.487,20.308c.809,30.847-21.883,67.05-21.883,67.05h-5.5C1038.614,985.208,1042.676,960.089,1050.837,939.89Z" transform="translate(-89.429 -333.392)" fill="#fca17a"/>
    <path id="Caminho_5621" data-name="Caminho 5621" d="M1040.071,1083.248s-7.941-83.237-10.384-83.237,7.635,83.237,7.635,83.237Z" transform="translate(-81.381 -402.991)" fill="#fcc5b1"/>
    <path id="Caminho_5622" data-name="Caminho 5622" d="M1046.611,1073.62s-2.291-88.735-5.5-89.193,2.749,89.193,2.749,89.193Z" transform="translate(-88.09 -393.363)" fill="#f9b7a2"/>
    <path id="Caminho_5623" data-name="Caminho 5623" d="M1047.487,1083.248s5.04-83.237,8.018-83.237-5.5,83.237-5.5,83.237Z" transform="translate(-92.613 -402.991)" fill="#f9b7a2"/>
    <path id="Caminho_5624" data-name="Caminho 5624" d="M1058.062,1073.62s-2.291-88.735-5.5-89.193,2.749,89.193,2.749,89.193Z" transform="translate(-95.164 -393.363)" fill="#fcc5b1"/>
    <path id="Caminho_5625" data-name="Caminho 5625" d="M1058.937,1083.248s5.039-83.237,8.017-83.237-5.5,83.237-5.5,83.237Z" transform="translate(-99.686 -402.991)" fill="#fcc5b1"/>
    <path id="Caminho_5626" data-name="Caminho 5626" d="M1065.879,996.179c1.123-5.129-2.651-6.34-4.836-6.617,1.193-3.763,2.5-7.344,3.909-10.747,2.216,2.267,5.467,4.2,7.511-.94,2.456-6.173-.311-9.512-1.946-10.847a126.218,126.218,0,0,1,9.2-14.674c2.272,2.657,5.836,5.757,8.377,2.908,3.2-3.586.218-9.641-1.123-11.953,11.522-13.042,21.647-18.8,21.647-18.8a139.678,139.678,0,0,1-.889,26.009c-2.256,1.145-5.188,3.217-5.411,6.329-.193,2.7,1.644,4.309,3.421,5.229a139.1,139.1,0,0,1-5.115,17.792c-1.866-.584-7.525-2.046-8.639,1.294-.834,2.5,2.259,6.105,4.7,8.461-13.508,30.251-33.425,46.985-33.425,46.985H1054.1a159.74,159.74,0,0,1,4.174-37.021C1061.292,1000.281,1064.992,1000.226,1065.879,996.179Z" transform="translate(-96.696 -356.345)" fill="#f77d69"/>
    <path id="Caminho_5627" data-name="Caminho 5627" d="M1095.633,1013.136l2.561,3.59v-7.074a61.649,61.649,0,0,1,9.194-9.836,30.6,30.6,0,0,0,3.369-3.317l6.532,3.989V987.31c1.93-3.224,3.775-6.742,5.51-10.365l6.482,5.391-2.249-14.889a300.444,300.444,0,0,0,10.135-28.562,105.272,105.272,0,0,1,5.022,34.456l-4.132,2.233,3.832,3.4a80.526,80.526,0,0,1-4.166,20l-3.822,1.914,2.428,1.74a68.39,68.39,0,0,1-6.092,11.516l-4.746-.9.548,6.6c-8.368,10.2-20.733,19.282-38.766,25.639h-9.2S1085.348,1027.744,1095.633,1013.136Z" transform="translate(-111.505 -365.23)" fill="#fcc5b1"/>
    <path id="Caminho_5628" data-name="Caminho 5628" d="M994.153,1030.281l-2.582-1.862c-1.394-6.621-2.474-13.158-3.311-19.316l2.428-.65-2.887-2.876a309.648,309.648,0,0,1-2.421-34.33s.611,10.079,18.249,28.709a28.585,28.585,0,0,1,2.374,2.873c-.867,2.861-2.367,7.448-2.367,7.448l7.055,1.36a63.821,63.821,0,0,1,2.962,10.3l-6.5,3.84,7.957,5.983c.342,3.487.517,6.939.579,10.229l-4.988.383,4.987,5.361a155.578,155.578,0,0,1-1.29,17.746h-10.766c-5.066-10.305-8.724-22.151-11.368-33.888Z" transform="translate(-54.245 -385.221)" fill="#f98f7a"/>
    <path id="Caminho_5629" data-name="Caminho 5629" d="M1967.065,1045.239l2.5,2.609a21.7,21.7,0,0,0,9.354-1.647l-4.468-4.585,6.684,3.424c.438-.27.871-.555,1.3-.874a46.447,46.447,0,0,1,3.975-2.672l-3.5-3.77,6.816,1.975c5.818-2.8,9.692-2.848,9.692-2.848a42.594,42.594,0,0,0-13.04-6.957l-3.468,4.463.728-5.2a25.278,25.278,0,0,0-8.937-.445l-1.185,5.642v-5.44a21.592,21.592,0,0,0-8.589,3.776v3.65l-1.229-2.7a33.314,33.314,0,0,0-7.226,8.631l2.895,3.5a31.66,31.66,0,0,0,8.557,1.974Z" transform="translate(-654.147 -420.592)" fill="#f98f7a"/>
    <path id="Caminho_5630" data-name="Caminho 5630" d="M1959.421,746.142s9.448,0,17.147.005a27.229,27.229,0,0,0,1.1-3.86c1.585-7.879,1.326-16.472.511-25.042-5.2-1.4-10.409-2.951-10.409-2.951l9.47-5.47c-1.873-15.189-4.19-29.527.428-38.763a54.009,54.009,0,0,0-25.649,10.19l3.069,12.081-10.552-5.385a56.24,56.24,0,0,0-11.023,17.877c-.871,2.23-1.656,4.489-2.376,6.758l8.176,7.661-10.139-.768a164.879,164.879,0,0,0-4.612,31.462c3.62,1.14,6.557,2.095,6.557,2.095l-6.781,3.7a168.486,168.486,0,0,0,.592,20.12l8.583,4.021s18.608-6.168,31.8-18.045Z" transform="translate(-634.266 -199.159)" fill="#fcb490"/>
    <path id="Caminho_5631" data-name="Caminho 5631" d="M1796.1,1025.817l-1.061,1.635v-2.87a48.67,48.67,0,0,0-6.375-5.907l-2.215,3.474-.309-5.319a59.9,59.9,0,0,0-6.539-3.91l-1.607,2.663v-3.463a53.525,53.525,0,0,0-8.757-3.381,37.971,37.971,0,0,0,4.392,12.314l4.365.569-3.339,1.1a32.22,32.22,0,0,0,5.425,6.313l5.881-1.585-3.019,3.882a35.9,35.9,0,0,0,5.018,2.993l1.575-1.3-.506,1.808a38.49,38.49,0,0,0,12.69,3.384l.965-1.4A40.4,40.4,0,0,0,1796.1,1025.817Z" transform="translate(-538.485 -408.384)" fill="#fca17a"/>
    <path id="Caminho_5632" data-name="Caminho 5632" d="M1717.653,923.272c-.783,2.577-1.438,4.643-1.537,4.693a61.161,61.161,0,0,1-2.215-6.24,53.162,53.162,0,0,0-11.969-2.939l-1.551,8.239-3.872-8.623a54.923,54.923,0,0,0-11.5,1.007l1.85,8.556-7.638-7.131a65.612,65.612,0,0,0-9.912,3.88l.775,3.252-2.359-2.455a57.643,57.643,0,0,0-9.949,6.4c2.313,1.793,4.589,3.39,6.827,4.824l5.481-3-2.8,4.648a72.185,72.185,0,0,0,9.456,4.7l7.84-3.71-1.5,5.9a54.4,54.4,0,0,0,10.805,1.952l5.326-5.707-1.186,5.854a49.491,49.491,0,0,0,10.35-1.154l7.746-8.323L1714.9,944.3a43.862,43.862,0,0,0,13.106-7.354l2.743-5.7A65.782,65.782,0,0,0,1717.653,923.272Z" transform="translate(-469.629 -352.57)" fill="#fcb490"/>
    <path id="Caminho_5633" data-name="Caminho 5633" d="M1849.338,1054.8s-9.26-41.049-12.079-51.315-11.877-47.911-11.877-47.911l-16.91-1.61h18.118s10.669,45.7,11.877,48.112,16.709,52.724,16.709,52.724Z" transform="translate(-562.724 -374.547)" fill="#fc9c72"/>
    <path id="Caminho_5634" data-name="Caminho 5634" d="M1933.817,1114.343l6.039-56.146,22.546-7.851s-20.332,8.253-20.533,8.858-1.007,55.14-1.007,55.14Z" transform="translate(-640.157 -434.086)" fill="#f77d69"/>
    <path id="Caminho_5635" data-name="Caminho 5635" d="M1926.97,963.434c0-1.2,1.409-98.622,1.409-98.622l29.905-58.749-27.49,59.353,3.624,98.018Z" transform="translate(-635.927 -283.177)" fill="#f9a17a"/>
    <path id="Caminho_5636" data-name="Caminho 5636" d="M1857.379,1114.343s-6.462-37.8-8.254-38.038-29.592-25.96-29.592-25.96l29.592,28.626,6.015,35.372Z" transform="translate(-569.557 -434.086)" fill="#f78d69"/>
    <path id="Caminho_5637" data-name="Caminho 5637" d="M1895.332,1019.992s5.033-39.723-25.767-122.376c0,0,20.533,55.873,20.936,122.376Z" transform="translate(-600.464 -339.735)" fill="#fcc5b1"/>
    <path id="Caminho_5638" data-name="Caminho 5638" d="M1929.9,1094.822s-3.422-52.322,8.253-76.076c0,0-8.721,24.358-4.36,76.076Z" transform="translate(-637.449 -414.565)" fill="#f9ad95"/>
    <path id="Caminho_5639" data-name="Caminho 5639" d="M1909.4,1114.343s-3.422-49.906-10.871-64c0,0,5.738,20.624,7.65,64Z" transform="translate(-618.359 -434.086)" fill="#f9b7a2"/>
    <path id="Caminho_5640" data-name="Caminho 5640" d="M1910.563,1150.131s-.5-30.178-6.893-41.854c0,0,3.471,9.83,4.478,41.854Z" transform="translate(-621.533 -469.874)" fill="#fcc5b1"/>
    <path id="Caminho_5641" data-name="Caminho 5641" d="M1936.976,1144.6s3.423-34.405,5.838-45.276l-4.36,45.276Z" transform="translate(-642.109 -464.343)" fill="#fcc5b1"/>
    <path id="Caminho_5642" data-name="Caminho 5642" d="M1891.865,1136.289l-16.507-50.418,14.269,50.418Z" transform="translate(-604.043 -456.032)" fill="#f9ad95"/>
    <path id="Caminho_5643" data-name="Caminho 5643" d="M1894.562,1168.025s-6.845-24.139-12.884-30.782c0,0,6.442,10.586,10.266,30.782Z" transform="translate(-607.948 -487.768)" fill="#f9ad95"/>
    <rect id="Retângulo_1437" data-name="Retângulo 1437" width="176.814" height="332.582" rx="15" transform="translate(1027.238 347.674)" fill="#fc8856"/>
    <path id="Caminho_5644" data-name="Caminho 5644" d="M1416.379,379.831V677.517a8.339,8.339,0,0,1-8.34,8.348H1267.287a8.339,8.339,0,0,1-8.339-8.348V379.831a8.327,8.327,0,0,1,8.339-8.348h140.753A8.339,8.339,0,0,1,1416.379,379.831Z" transform="translate(-223.246 -14.708)" fill="#e4edeb"/>
    <path id="Caminho_5645" data-name="Caminho 5645" d="M1451.389,371.483l-6.951,10.836a5.891,5.891,0,0,1-5,2.545h-30.324a6.432,6.432,0,0,1-1.124-.1,5.688,5.688,0,0,1-3.876-2.448l-.972-1.517-5.979-9.319Z" transform="translate(-308.63 -14.708)" fill="#fc8856"/>
    <circle id="Elipse_459" data-name="Elipse 459" cx="2.767" cy="2.767" r="2.767" transform="translate(1099.472 360.696)" fill="#e4edeb"/>
    <rect id="Retângulo_1438" data-name="Retângulo 1438" width="5.997" height="5.534" rx="2.767" transform="translate(1108.137 360.696)" fill="#485a8c"/>
    <rect id="Retângulo_1439" data-name="Retângulo 1439" width="13.927" height="5.534" rx="2.767" transform="translate(1115.307 360.696)" fill="#e4edeb"/>
    <circle id="Elipse_460" data-name="Elipse 460" cx="60.346" cy="60.346" r="60.346" transform="translate(1055.299 425.712)" fill="#8b8bf2"/>
    <circle id="Elipse_461" data-name="Elipse 461" cx="53.39" cy="53.39" r="53.39" transform="translate(1062.255 432.668)" fill="#e4edeb"/>
    <rect id="Retângulo_1440" data-name="Retângulo 1440" width="128.375" height="4.489" rx="2.245" transform="translate(1050.229 660.974)" fill="#caddda"/>
    <path id="Caminho_5646" data-name="Caminho 5646" d="M1399.52,636.541c16.972.823,31.062,9,40.363,25.162.771,1.34,1.648,2.661,1.427,4.31a4.46,4.46,0,0,1-3.852,3.868,4.26,4.26,0,0,1-4.586-2.468,39.262,39.262,0,0,0-8.192-11.154,37.557,37.557,0,0,0-21.39-10.266,38.311,38.311,0,0,0-29.995,8.29,40.483,40.483,0,0,0-10.358,12.868,4.325,4.325,0,0,1-7.452.769,4.141,4.141,0,0,1-.357-4.848,46.161,46.161,0,0,1,10.145-13.589,47.379,47.379,0,0,1,23.227-11.949A56.9,56.9,0,0,1,1399.52,636.541Z" transform="translate(-282.285 -178.452)" fill="#9797f7"/>
    <path id="Caminho_5647" data-name="Caminho 5647" d="M1417.319,682.144q20.506.8,30.742,18.628a4.463,4.463,0,1,1-7.883,4.179,25.692,25.692,0,0,0-13.808-12.165,25.978,25.978,0,0,0-31.339,10.842c-.324.547-.628,1.108-.971,1.643a4.472,4.472,0,0,1-5.972,1.536,4.341,4.341,0,0,1-1.745-5.891c5.82-10.433,14.543-16.732,26.456-18.462A40.877,40.877,0,0,1,1417.319,682.144Z" transform="translate(-301.614 -206.624)" fill="#7d7dea"/>
    <path id="Caminho_5648" data-name="Caminho 5648" d="M1440.095,736.655a8.478,8.478,0,0,0-7.894,5.7c-.165.472-.293.957-.481,1.419a4.455,4.455,0,0,1-8.511-2.555c1.379-7,8.075-12.736,15.37-13.425a17.646,17.646,0,0,1,18.5,12.568c1.021,3.537-1.583,6.564-5.142,5.919-1.976-.358-2.964-1.761-3.536-3.568a8.2,8.2,0,0,0-6.282-5.81A17.148,17.148,0,0,0,1440.095,736.655Z" transform="translate(-324.663 -234.777)" fill="#7070e5"/>
    <path id="Caminho_5649" data-name="Caminho 5649" d="M1736.659,1214.126s3.4,13.608,3.791,14.483-4.083.68-6.124-1.555a46.726,46.726,0,0,1-3.791-4.86l2.333-9.623Z" transform="translate(-514.576 -534.303)" fill="#fc8856"/>
    <path id="Caminho_5650" data-name="Caminho 5650" d="M1741.731,1221.1s5.832,6.072,5.929,6.655-3.6.972-4.666,0-3.3-3.694-3.3-3.694Z" transform="translate(-520.232 -539.571)" fill="#fc8856"/>
    <path id="Caminho_5651" data-name="Caminho 5651" d="M1774,882.739s-10.109,69.7-10.4,72.514-8.176,37.132-8.176,37.132l1.08-56.767,2.819-48.31Z" transform="translate(-529.955 -330.544)" fill="#485a8c"/>
    <path id="Caminho_5652" data-name="Caminho 5652" d="M1763.97,906.11s.8,6.068.938,7.463-1.843,5.207-1.843,5.207-4.69,47.409-4.817,49.943a32.655,32.655,0,0,1-1.465,6.571L1749,922.835Z" transform="translate(-525.981 -344.982)" fill="#23375b"/>
    <path id="Caminho_5653" data-name="Caminho 5653" d="M1747.575,888.117s-.486,9.428-.486,11.421a5.572,5.572,0,0,1-1.167,3.354s-5.832,61.433-6.318,63.863-6.8,45.783-6.8,45.783-5.443,1.944-6.8-.972c0,0,3.791-44.228,3.791-45.394s-7-56.948-7.485-61.134a82.185,82.185,0,0,1,0-11.379l20.315-9.137Z" transform="translate(-509.357 -331.645)" fill="#485a8c"/>
    <path id="Caminho_5654" data-name="Caminho 5654" d="M1874.221,612.889c0,.522-4,7.665-4,7.665l-4.366-1.22s-1.02-6.445-.442-6.59c.185-.04.369.144.562.425.257.377.506.923.706,1.252.112.185.217.305.3.281a.661.661,0,0,0,.233-.217c.5-.61,1.413-2.288,1.533-2.408.144-.144.617-5,1.236-4.9a10.222,10.222,0,0,1,2.248,2.552A16.1,16.1,0,0,1,1874.221,612.889Z" transform="translate(-597.791 -160.309)" fill="#f9d5c5"/>
    <path id="Caminho_5655" data-name="Caminho 5655" d="M1873.288,593.563l-5.153-.353a.5.5,0,0,0-.546.489l-.417,10.844c.257.377.506.923.706,1.252l.53.064,4.19.554a.52.52,0,0,0,.586-.49l.241-4.824.345-7A.511.511,0,0,0,1873.288,593.563Z" transform="translate(-598.986 -151.682)" fill="#fc8856"/>
    <path id="Caminho_5656" data-name="Caminho 5656" d="M1873.529,594.215l-4.7-.34a.471.471,0,0,0-.5.471l-.381,10.426c.234.363.461.888.644,1.2l.483.062,3.821.532a.482.482,0,0,0,.534-.471l.22-4.638.315-6.73A.483.483,0,0,0,1873.529,594.215Z" transform="translate(-599.467 -152.093)" fill="#ededed"/>
    <path id="Caminho_5657" data-name="Caminho 5657" d="M1748.957,785.394s-23.108,14.367-29.2,14.825a25.063,25.063,0,0,1-5.065-.1c-2.9-.353-4.479-1.164-4.479-1.4,0-.08-.088-3.829-.217-9.52-.048-2.055-.1-4.366-.152-6.855-.136-6.068-.281-13.155-.4-20.066-.289-15.363-.465-29.867-.145-30.348.69-1.035,15.475-6.036,16.984-6.357,3.042-.642,14.054-2.5,16.117,2.336S1748.957,785.394,1748.957,785.394Z" transform="translate(-501.351 -232.908)" fill="#8b8bf2"/>
    <path id="Caminho_5658" data-name="Caminho 5658" d="M1721.046,772.666c.225,2.384-8.147,23.55-10.692,29.907-.136-6.068-.281-13.155-.4-20.066l6.847-25.083S1720.773,769.857,1721.046,772.666Z" transform="translate(-501.862 -253.129)" fill="#7070e5"/>
    <path id="Caminho_5659" data-name="Caminho 5659" d="M1771.947,670.064s22.829-9.077,23.749-9.536,11.151-23.911,11.151-23.911a6.605,6.605,0,0,1,7.242,2.069s-6.9,24.716-7.357,25.865-25.865,21.727-25.865,21.727Z" transform="translate(-540.159 -178.282)" fill="#8b8bf2"/>
    <path id="Caminho_5660" data-name="Caminho 5660" d="M1716.1,904.391c-2.9-.353-4.479-1.164-4.479-1.4,0-.08-.089-3.829-.217-9.52Z" transform="translate(-502.757 -337.177)" fill="#7070e5"/>
    <path id="Caminho_5661" data-name="Caminho 5661" d="M1711.971,945.888s.68,10.887,1.361,10.887,2.138-8.457,2.138-8.457.875,1.944,1.166,1.75-.875-6.8-.875-6.8Z" transform="translate(-503.108 -367.935)" fill="#f9d5c5"/>
    <path id="Caminho_5662" data-name="Caminho 5662" d="M1691.508,824.341a7.432,7.432,0,0,0,5.913-4.168s-8.057-23.476-8.057-24.726,11.53-29.866,11.53-29.866-.695-13.2-2.222-16.67-6.991-5.263-6.991-5.263-1.2,3.224-3.011,8.966-8.057,42.832-8.057,43.944S1691.508,824.341,1691.508,824.341Z" transform="translate(-483.736 -244.62)" fill="#8b8bf2"/>
    <path id="Caminho_5663" data-name="Caminho 5663" d="M1751.037,714.031a2.868,2.868,0,0,1-1.068,1.156,3.619,3.619,0,0,1-1.677.554c-2.769.249-3.563-1.011-3.563-1.011l1.34-9.383,4.872,1.357.241,1.854.313,2.392A5.252,5.252,0,0,0,1751.037,714.031Z" transform="translate(-523.345 -220.957)" fill="#f9d5c5"/>
    <path id="Caminho_5664" data-name="Caminho 5664" d="M1757.484,719.22a2.867,2.867,0,0,1-1.067,1.156v-2.448a7.884,7.884,0,0,0-1.252-3.869l2.465-.313.313,2.392A5.252,5.252,0,0,0,1757.484,719.22Z" transform="translate(-529.791 -226.146)" fill="#edb09a"/>
    <path id="Caminho_5665" data-name="Caminho 5665" d="M1747.256,678.185s1.455,5.971,2.057,8.379,1.319,5.825-1.756,6.623c-3.864,1-5.118-4.265-5.118-4.265s-3.462.6-3.613.652-2.609-5.921-2.659-6.071,7.125-6.122,7.125-6.122S1746.638,675.655,1747.256,678.185Z" transform="translate(-518.055 -203.326)" fill="#f9d5c5"/>
    <path id="Caminho_5666" data-name="Caminho 5666" d="M1734.8,675.84a1.064,1.064,0,0,0-1.756-.5c-1.255.9.672,4.244,2.569,3.878l.341.838-2.158,3.763s-8.078-7.426-8.129-7.928,4.466-14.7,12.945-13.347,4.416,11.139,4.416,11.139l-1.093.4-2.218-4.714s-.653,2.91-2.86,3.462a2.278,2.278,0,0,0-1.605,2.86Z" transform="translate(-511.568 -194.459)" fill="#485a8c"/>
    <path id="Caminho_5667" data-name="Caminho 5667" d="M1695.563,875.9c.609,1.295-3.944,0-3.944,0S1694.743,874.154,1695.563,875.9Z" transform="translate(-490.535 -325.84)" fill="#7070e5"/>
    <path id="Caminho_5668" data-name="Caminho 5668" d="M1836.737,699.217c-.9,1.195,4.451.8,4.451.8S1837.344,698.408,1836.737,699.217Z" transform="translate(-580.122 -217.03)" fill="#7070e5"/>
    <path id="Caminho_5669" data-name="Caminho 5669" d="M1744.477,1095.175c-.166,2.151,6.546-.8,6.546-.8S1744.557,1094.137,1744.477,1095.175Z" transform="translate(-523.188 -461.272)" fill="#23375b"/>
    <path id="Caminho_5670" data-name="Caminho 5670" d="M1251.711,895.981l3.474,1.336s2.405,1.6,2.048,3.029-1.923,3.3-2.743,3.117-1.885-1.6-1.885-1.6-1.339.624-1.339.267-.8-4-.8-4Z" transform="translate(-218.005 -338.725)" fill="#f9d5c5"/>
    <path id="Caminho_5671" data-name="Caminho 5671" d="M1140.216,749.741s12.7,31.791,14.8,34.216,26.312,21.422,26.312,21.422a3.375,3.375,0,0,1-1.982,3.815l-33.144-17.28-11.115-27.157Z" transform="translate(-146.73 -248.383)" fill="#8b8bf2"/>
    <path id="Caminho_5672" data-name="Caminho 5672" d="M1216.885,715.272s-2.262-3.337-2.884-3.506-4.75-1.357-4.92-.792,2.618,2.715,2.016,3.337-1.394-.083-1.394.524,5.121,2.51,5.121,2.51Z" transform="translate(-192.436 -224.341)" fill="#f9d5c5"/>
    <path id="Caminho_5673" data-name="Caminho 5673" d="M1151.972,1221.68a46.815,46.815,0,0,0,5.963,3.227c1.445.419.777,1.509.777,1.509s-8.995,3.392-9.683,3.143a13.273,13.273,0,0,1-1.619-.779l.264-6.8Z" transform="translate(-154.342 -539.931)" fill="#fc8856"/>
    <path id="Caminho_5674" data-name="Caminho 5674" d="M1137.02,906.318s.147,6.373-.226,7.553,2.642,40.494,2.664,47.246c0,1.693-.344,6.579-.867,12.948l0,.026c-1.55,18.958-4.652,50.992-4.652,50.992-1.827,1.118-6.694.066-6.694.066s2.138-61.1,1.283-64.569-7.6-26.174-11.125-37.289a51.442,51.442,0,0,1-1.786-21.57l5.918,1.274Z" transform="translate(-134.437 -342.27)" fill="#485a8c"/>
    <path id="Caminho_5675" data-name="Caminho 5675" d="M1195.992,1233.536s5,3.1,6.594,3.568.859,1.668.859,1.668-9.946,3.752-10.707,3.476a14.675,14.675,0,0,1-1.79-.862l.291-7.514Z" transform="translate(-181.238 -547.255)" fill="#fc8856"/>
    <path id="Caminho_5676" data-name="Caminho 5676" d="M1139.148,908.519s.122,6.375-.289,7.557,2.624,40.5,2.608,47.25c-.005,1.693-.41,6.584-1.012,12.958.028-1-1.679-19.116-4.821-25.005a90.615,90.615,0,0,1-9.961-34.98l-7.039-10.236,3.789-.78Z" transform="translate(-136.565 -344.471)" fill="#23375b"/>
    <path id="Caminho_5677" data-name="Caminho 5677" d="M1161.94,1039.8s4.378,1.09,6.006-.014c0,0,3.093-57.536,3.025-64.283s-1.6-45.674-1.27-46.85.148-7.549.148-7.549l-25.4-2.027s.614,14.45,3.86,25.585,10.133,31.258,10.925,34.732S1161.94,1039.8,1161.94,1039.8Z" transform="translate(-152.512 -352.991)" fill="#485a8c"/>
    <path id="Caminho_5678" data-name="Caminho 5678" d="M1183.044,726.5l.174,2.461-.505,1.066-.956,2.029-6.491-.2,3.637-6.228,3.836.809Z" transform="translate(-171.551 -233.485)" fill="#f9d5c5"/>
    <path id="Caminho_5679" data-name="Caminho 5679" d="M1168.544,741.757l1.73-2.035s6.755-.518,8.6,1.3,1.826,3.189,1.826,3.189l-11.393-.481Z" transform="translate(-167.398 -242.152)" fill="#fc8856"/>
    <path id="Caminho_5680" data-name="Caminho 5680" d="M1111.9,805.762c.007.341.014.682.021,1.03,0,0,13.227,8.941,40.167,7.466,0,0,.2-3.3.48-8.356q.031-.511.063-1.044v-.049c.118-2.192.257-4.676.4-7.333.766-14.138,1.719-33.251,1.746-40.759a22.671,22.671,0,0,0-.1-2.971c-.237-1.343-5.309-7.723-14.924-8.676-8.44-.835-16.518,2.248-17.353,3.59-.612.995-6.464,15.432-9.163,35.352-.369,2.728-.682,5.566-.912,8.474C1111.987,796.752,1111.827,801.2,1111.9,805.762Z" transform="translate(-132.396 -245.409)" fill="#8b8bf2"/>
    <path id="Caminho_5681" data-name="Caminho 5681" d="M1192.727,727.807l.174,2.461-.505,1.066a3.82,3.82,0,0,1-1.455-2.47l1.482-1.123Z" transform="translate(-181.234 -234.792)" fill="#edb09a"/>
    <path id="Caminho_5682" data-name="Caminho 5682" d="M1182.865,704.3a43.233,43.233,0,0,1,1.939,4.781c.75,2.328.932,4.345-1.413,5.409s-3.489-1.861-3.489-1.861l-1.95,1.114-4.27-4.616,6.642-6.521A3.34,3.34,0,0,1,1182.865,704.3Z" transform="translate(-170.572 -219.268)" fill="#f9d5c5"/>
    <path id="Caminho_5683" data-name="Caminho 5683" d="M1175.721,700.344s-.393-1.689-1.535-1.192.248,3.6,1.656,2.9l-.575,2.175s-2.952.45-2.956.457-4.1-4.942-4.4-5.5,1.076-6.483,5.274-7.835,2.023-5.608,4.511-5.2,3.987,7.2,1.455,8.946-3.335,3.093-3.036,4.555Z" transform="translate(-166.982 -209.082)" fill="#485a8c"/>
    <path id="Caminho_5684" data-name="Caminho 5684" d="M1205.8,782.836c3.089,5.184,4.529,7.341,4.529,7.341l-.41,28.9c.118-2.192.257-4.676.4-7.333.766-14.138,1.719-33.251,1.746-40.759l-5.419-2.958S1202.705,777.66,1205.8,782.836Z" transform="translate(-189.682 -259.68)" fill="#7070e5"/>
    <path id="Caminho_5685" data-name="Caminho 5685" d="M1184.783,721.851s-.057-.523.369-.573.286.721.563,1.053l.277.332s-.507,0-.6-.406S1185.3,721.17,1184.783,721.851Z" transform="translate(-177.428 -230.798)" fill="#edb09a"/>
    <path id="Caminho_5686" data-name="Caminho 5686" d="M1207.718,745.16c-.266,6.735,5.967,11.122,5.967,11.122s28.854-10.7,30.969-15.654C1245.6,738.4,1216.9,721,1216.9,721s-4.208-1.355-4.425,3.015c0,0,18.268,12.767,17.345,13.214s-20.025-2.969-20.025-2.969A43.155,43.155,0,0,0,1207.718,745.16Z" transform="translate(-191.593 -230.504)" fill="#8b8bf2"/>
    <path id="Caminho_5687" data-name="Caminho 5687" d="M1104.93,550.55c0-12.453-15.111-22.548-33.753-22.548s-33.752,10.095-33.752,22.548,15.111,22.547,33.752,22.547a45.926,45.926,0,0,0,19.347-4.077,9.137,9.137,0,0,1,.05,8.011s5.85-4.914,3.782-10.1v0C1100.863,562.822,1104.93,557,1104.93,550.55Z" transform="translate(-86.397 -111.4)" fill="#bfbfbf"/>
    <circle id="Elipse_462" data-name="Elipse 462" cx="7.733" cy="7.733" r="7.733" transform="translate(959.582 431.045)" fill="#e4edeb"/>
    <circle id="Elipse_463" data-name="Elipse 463" cx="5.303" cy="5.303" r="5.303" transform="translate(984.12 435.906)" fill="#e4edeb"/>
    <circle id="Elipse_464" data-name="Elipse 464" cx="3.445" cy="3.445" r="3.445" transform="translate(1000.945 439.622)" fill="#e4edeb"/>
  </g>
</svg>
