<svg id="Videp_type_Active_-_Hover" data-name="Videp type | Active - Hover" xmlns="http://www.w3.org/2000/svg" width="27.271" height="20" viewBox="0 0 27.271 20">
  <path id="Caminho_5326" data-name="Caminho 5326" d="M7.805,32h11.68a3.855,3.855,0,0,0,3.776-3.93V15.945a4.014,4.014,0,0,0-1.1-2.789A3.7,3.7,0,0,0,19.485,12H7.805a3.732,3.732,0,0,0-2.7,1.165A4.044,4.044,0,0,0,4,15.975v12.05a4.044,4.044,0,0,0,1.109,2.81A3.731,3.731,0,0,0,7.805,32ZM19.374,15a1,1,0,1,1-.961,1A.981.981,0,0,1,19.374,15Z" transform="translate(-4 -12)" fill="#0f7bff"/>
  <path id="Caminho_5327" data-name="Caminho 5327" d="M54.073,30.642V18.915a1.314,1.314,0,0,0-.637-1.125,1.341,1.341,0,0,0-1.3-.046l-3.183,1.616a1.629,1.629,0,0,0-.891,1.431v7.978a1.629,1.629,0,0,0,.891,1.446l3.183,1.621a1.341,1.341,0,0,0,1.311-.051A1.313,1.313,0,0,0,54.073,30.642Z" transform="translate(-26.8 -14.778)" fill="#6aabfd"/>
</svg>
