<svg xmlns="http://www.w3.org/2000/svg" width="27.01" height="16.866" viewBox="0 0 27.01 16.866">
  <path id="View_profile" data-name="View profile" d="M.233,9.28a1.676,1.676,0,0,1,0-1.688C.4,7.272,4.76,0,13.51,0S26.618,7.272,26.787,7.592a1.676,1.676,0,0,1,0,1.688c-.169.321-4.526,7.589-13.277,7.589S.4,9.6.233,9.28Zm8.209-.843A5.068,5.068,0,1,0,13.51,3.376,5.057,5.057,0,0,0,8.443,8.437Zm2.328-.1a2.607,2.607,0,1,1,2.607,2.6A2.6,2.6,0,0,1,10.77,8.337Z" transform="translate(-0.006 -0.003)" fill="#0f7bff" opacity="0.997"/>
</svg>
