<svg xmlns="http://www.w3.org/2000/svg" width="17.769" height="14.085" viewBox="0 0 17.769 14.085">
  <path id="Volume" d="M10.787,7.1c-.053,0,.053-.007,0,0-.214.029-.826-.155-1,0h0l-3,4h-3c-1,0-2,0-2,1v3a2.149,2.149,0,0,0,2,2h3l3,3c.348.311,1.626,1.169,2,1s0-.532,0-1V8.1c0-.468.374-.831,0-1A5.3,5.3,0,0,0,10.787,7.1Zm7,0c-.214.009-.9.811-1,1s-.11-.185,0,0a10.062,10.062,0,0,1,0,11,1.516,1.516,0,0,0,0,1c.108.195.778,0,1,0s-.1.2,0,0a11.061,11.061,0,0,0,0-12C17.675,7.9,18.015,7.091,17.787,7.1Zm-2,2c-.214,0-.89-.185-1,0a1.613,1.613,0,0,0,0,1,8.146,8.146,0,0,1,0,8c-.155.3.7.844,1,1s-.155-.7,0-1a9.27,9.27,0,0,0,0-9C15.684,8.9,16.016,9.1,15.787,9.1Zm-2,2c-.2.009.105-.175,0,0s-1.087.815-1,1a4.568,4.568,0,0,1,0,4c-.14.306.7.859,1,1s.86-.694,1-1a5.891,5.891,0,0,0,0-5C14.686,10.87,14.037,11.09,13.787,11.1Z" transform="translate(-1.787 -7.038)" fill="#fff"/>
</svg>
