<svg xmlns="http://www.w3.org/2000/svg" width="33" height="32" viewBox="0 0 33 32">
  <g id="WhatsApp_icon_Setting" data-name="WhatsApp | icon Setting" transform="translate(24846.682 15354)">
    <rect id="Retângulo_1446" data-name="Retângulo 1446" width="33" height="32" rx="2" transform="translate(-24846.682 -15354)" fill="#e3f2ff"/>
    <g id="Layer_2" data-name="Layer 2" transform="translate(-24845.1 -15351)">
      <path id="Caminho_5041" data-name="Caminho 5041" d="M22.8,10.173a.952.952,0,0,0,.114-1.108L22.3,8.006a.952.952,0,0,0-1.017-.432l-1.254.257a2.924,2.924,0,0,1-2.053-.357H17.96a2.924,2.924,0,0,1-1.316-1.6l-.4-1.228a.952.952,0,0,0-.9-.65H14.12a.952.952,0,0,0-.9.65L12.81,5.868a2.924,2.924,0,0,1-1.3,1.6h-.019a2.924,2.924,0,0,1-2.047.348l-1.27-.237a.952.952,0,0,0-1.017.458L6.546,9.078a.952.952,0,0,0,.11,1.095l.832.936A2.957,2.957,0,0,1,8.232,13.1h0a2.957,2.957,0,0,1-.744,1.949l-.829.975a.952.952,0,0,0-.114,1.108l.611,1.059a.952.952,0,0,0,1.017.432l1.254-.257a2.924,2.924,0,0,1,2.053.357H11.5a2.924,2.924,0,0,1,1.316,1.6l.4,1.228a.952.952,0,0,0,.9.65h1.225a.952.952,0,0,0,.9-.65l.406-1.215a2.924,2.924,0,0,1,1.3-1.6h.019a2.924,2.924,0,0,1,2.047-.348l1.254.257a.952.952,0,0,0,1.017-.458l.611-1.059a.952.952,0,0,0-.094-1.1l-.851-.975a2.924,2.924,0,0,1-.725-1.949h0a2.924,2.924,0,0,1,.721-1.949ZM14.731,15.7a2.6,2.6,0,1,1,2.6-2.6A2.6,2.6,0,0,1,14.731,15.7Z" transform="translate(0)" fill="#0072ff"/>
    </g>
  </g>
</svg>
