<svg xmlns="http://www.w3.org/2000/svg" width="506.048" height="413.452" viewBox="0 0 506.048 413.452">
  <g id="Illustration_-_Register_Attendants" data-name="Illustration - Register Attendants" transform="translate(-86.713 -593.744)">
    <g id="Grupo_6205" data-name="Grupo 6205" transform="translate(222.927 593.744)">
      <g id="Grupo_6204" data-name="Grupo 6204">
        <g id="Grupo_6203" data-name="Grupo 6203">
          <rect id="Retângulo_1534" data-name="Retângulo 1534" width="222.567" height="376.218" fill="#eaf4fe"/>
          <rect id="Retângulo_1535" data-name="Retângulo 1535" width="222.567" height="21.049" fill="#c5e1f9"/>
          <path id="Caminho_6352" data-name="Caminho 6352" d="M186.568,599.774a4.212,4.212,0,1,0,4.216-4.212A4.214,4.214,0,0,0,186.568,599.774Z" transform="translate(20.561 -589.244)" fill="#387bff"/>
          <path id="Caminho_6353" data-name="Caminho 6353" d="M182.733,599.774a4.206,4.206,0,1,0,4.212-4.212A4.211,4.211,0,0,0,182.733,599.774Z" transform="translate(11.068 -589.244)" fill="#fbd260"/>
          <path id="Caminho_6354" data-name="Caminho 6354" d="M178.9,599.774a4.209,4.209,0,1,0,4.209-4.212A4.213,4.213,0,0,0,178.9,599.774Z" transform="translate(1.571 -589.244)" fill="#eaf4fe"/>
        </g>
      </g>
      <path id="Caminho_6355" data-name="Caminho 6355" d="M126.973,599.8h0Z" transform="translate(-126.973 -578.752)" fill="none" stroke="#0561fc" stroke-linecap="round" stroke-linejoin="round" stroke-width="0.425"/>
    </g>
    <g id="Grupo_6206" data-name="Grupo 6206" transform="translate(153.307 773.354)">
      <circle id="Elipse_499" data-name="Elipse 499" cx="48.652" cy="48.652" r="48.652" transform="translate(0 94.7) rotate(-76.718)" fill="#c5e1f9"/>
    </g>
    <g id="Grupo_6207" data-name="Grupo 6207" transform="translate(211.774 856.616)">
      <path id="Caminho_6356" data-name="Caminho 6356" d="M123.764,678.957v0Z" transform="translate(-123.764 -645.287)" fill="none" stroke="#7eb3ff" stroke-miterlimit="10" stroke-width="3"/>
      <path id="Caminho_6357" data-name="Caminho 6357" d="M123.764,681.246v0Z" transform="translate(-123.764 -640.949)" fill="none" stroke="#7eb3ff" stroke-miterlimit="10" stroke-width="3" stroke-dasharray="1.438 1.438"/>
      <path id="Caminho_6358" data-name="Caminho 6358" d="M123.764,687v2.955h2.956Z" transform="translate(-123.764 -626.706)" fill="none" stroke="#7eb3ff" stroke-miterlimit="10" stroke-width="3"/>
      <path id="Caminho_6359" data-name="Caminho 6359" d="M126.235,687.85h0Z" transform="translate(-117.646 -624.6)" fill="none" stroke="#7eb3ff" stroke-miterlimit="10" stroke-width="3" stroke-dasharray="1.621 1.621"/>
      <path id="Caminho_6360" data-name="Caminho 6360" d="M158.655,689.955h2.955V687Z" transform="translate(-35.074 -626.706)" fill="none" stroke="#7eb3ff" stroke-miterlimit="10" stroke-width="3"/>
      <path id="Caminho_6361" data-name="Caminho 6361" d="M159.505,722.461v0Z" transform="translate(-32.97 -666.998)" fill="none" stroke="#7eb3ff" stroke-miterlimit="10" stroke-width="3" stroke-dasharray="1.665 1.665"/>
      <path id="Caminho_6362" data-name="Caminho 6362" d="M159.505,674.123v0Z" transform="translate(-32.97 -671.165)" fill="none" stroke="#7eb3ff" stroke-miterlimit="10" stroke-width="3"/>
    </g>
    <g id="Grupo_6208" data-name="Grupo 6208" transform="translate(211.775 748.507)">
      <path id="Caminho_6363" data-name="Caminho 6363" d="M123.764,637.953v0Z" transform="translate(-123.764 -637.953)" fill="none" stroke="#7eb3ff" stroke-miterlimit="10" stroke-width="3"/>
      <path id="Caminho_6364" data-name="Caminho 6364" d="M123.764,640.242v0Z" transform="translate(-123.764 -632.572)" fill="none" stroke="#7eb3ff" stroke-miterlimit="10" stroke-width="3" stroke-dasharray="1.438 1.438"/>
      <path id="Caminho_6365" data-name="Caminho 6365" d="M123.764,645.995v0Z" transform="translate(-123.764 -619.047)" fill="none" stroke="#7eb3ff" stroke-miterlimit="10" stroke-width="3"/>
    </g>
    <g id="Grupo_6219" data-name="Grupo 6219" transform="translate(88.213 733.491)">
      <path id="Caminho_6366" data-name="Caminho 6366" d="M123.129,638.114a30.58,30.58,0,1,1-8.626-.007Z" transform="translate(-88.213 -623.666)" fill="none" stroke="#0080fc" stroke-miterlimit="10" stroke-width="3"/>
      <path id="Caminho_6367" data-name="Caminho 6367" d="M115.03,659.683A18.04,18.04,0,0,0,96.9,641.846c-.083,0-.167.007-.25.007Z" transform="translate(-67.316 -614.409)" fill="none" stroke="#0080fc" stroke-miterlimit="10" stroke-width="3"/>
      <g id="Grupo_6209" data-name="Grupo 6209" transform="translate(24.423)">
        <path id="Caminho_6368" data-name="Caminho 6368" d="M107.54,640.5a1.323,1.323,0,0,1-1.331,1.31H96.561a1.316,1.316,0,0,1-1.321-1.31v-5.234a1.319,1.319,0,0,1,1.321-1.317l9.648,0a1.316,1.316,0,0,1,1.328,1.314Z" transform="translate(-95.24 -633.952)" fill="none" stroke="#0080fc" stroke-miterlimit="10" stroke-width="3"/>
      </g>
      <g id="Grupo_6216" data-name="Grupo 6216" transform="translate(6.488 12.906)">
        <g id="Grupo_6212" data-name="Grupo 6212">
          <g id="Grupo_6211" data-name="Grupo 6211">
            <g id="Grupo_6210" data-name="Grupo 6210">
              <path id="Caminho_6369" data-name="Caminho 6369" d="M92.416,645.477l-2.193-3.2a.807.807,0,0,1,.219-1.133l4.967-3.34a.832.832,0,0,1,1.147.215l2.193,3.2Z" transform="translate(-90.08 -637.665)" fill="none" stroke="#0080fc" stroke-miterlimit="10" stroke-width="3"/>
            </g>
          </g>
        </g>
        <g id="Grupo_6215" data-name="Grupo 6215" transform="translate(39.498 0)">
          <g id="Grupo_6214" data-name="Grupo 6214">
            <g id="Grupo_6213" data-name="Grupo 6213">
              <path id="Caminho_6370" data-name="Caminho 6370" d="M107.777,645.477l2.193-3.194a.814.814,0,0,0-.219-1.137l-4.967-3.34a.83.83,0,0,0-1.147.219l-2.193,3.194Z" transform="translate(-101.444 -637.665)" fill="none" stroke="#0080fc" stroke-miterlimit="10" stroke-width="3"/>
            </g>
          </g>
        </g>
      </g>
      <g id="Grupo_6217" data-name="Grupo 6217" transform="translate(4.866 18.959)">
        <path id="Caminho_6371" data-name="Caminho 6371" d="M96.938,639.407v0Z" transform="translate(-71.479 -639.407)" fill="none" stroke="#0080fc" stroke-miterlimit="10" stroke-width="3"/>
        <path id="Caminho_6372" data-name="Caminho 6372" d="M93.25,640.424l2.162,3.705Z" transform="translate(-80.609 -636.889)" fill="none" stroke="#0080fc" stroke-miterlimit="10" stroke-width="3"/>
        <path id="Caminho_6373" data-name="Caminho 6373" d="M90.569,643.129l3.743,2.144Z" transform="translate(-87.246 -630.193)" fill="none" stroke="#0080fc" stroke-miterlimit="10" stroke-width="3"/>
        <path id="Caminho_6374" data-name="Caminho 6374" d="M89.613,646.8h0Z" transform="translate(-89.613 -621.105)" fill="none" stroke="#0080fc" stroke-miterlimit="10" stroke-width="3"/>
        <path id="Caminho_6375" data-name="Caminho 6375" d="M90.639,651.978l3.743-2.141Z" transform="translate(-87.073 -613.586)" fill="none" stroke="#0080fc" stroke-miterlimit="10" stroke-width="3"/>
        <path id="Caminho_6376" data-name="Caminho 6376" d="M93.371,655.746l2.169-3.7Z" transform="translate(-80.31 -608.13)" fill="none" stroke="#0080fc" stroke-miterlimit="10" stroke-width="3"/>
        <path id="Caminho_6377" data-name="Caminho 6377" d="M97.079,657.1l0-4.282Z" transform="translate(-71.13 -606.197)" fill="none" stroke="#0080fc" stroke-miterlimit="10" stroke-width="3"/>
        <path id="Caminho_6378" data-name="Caminho 6378" d="M102.305,655.68l-2.158-3.708Z" transform="translate(-63.535 -608.303)" fill="none" stroke="#0080fc" stroke-miterlimit="10" stroke-width="3"/>
        <path id="Caminho_6379" data-name="Caminho 6379" d="M106.113,651.859l-3.74-2.144Z" transform="translate(-58.024 -613.888)" fill="none" stroke="#0080fc" stroke-miterlimit="10" stroke-width="3"/>
        <path id="Caminho_6380" data-name="Caminho 6380" d="M107.485,646.667l-4.324-.007Z" transform="translate(-56.073 -621.451)" fill="none" stroke="#0080fc" stroke-miterlimit="10" stroke-width="3"/>
        <path id="Caminho_6381" data-name="Caminho 6381" d="M106.048,643.009l-3.747,2.138Z" transform="translate(-58.202 -630.49)" fill="none" stroke="#0080fc" stroke-miterlimit="10" stroke-width="3"/>
        <path id="Caminho_6382" data-name="Caminho 6382" d="M102.189,640.354l-2.165,3.705Z" transform="translate(-63.839 -637.062)" fill="none" stroke="#0080fc" stroke-miterlimit="10" stroke-width="3"/>
      </g>
      <path id="Caminho_6383" data-name="Caminho 6383" d="M97.435,652.734l9.085-9.169Z" transform="translate(-65.383 -610.154)" fill="none" stroke="#0080fc" stroke-miterlimit="10" stroke-width="3"/>
      <g id="Grupo_6218" data-name="Grupo 6218" transform="translate(28.024 41.864)">
        <path id="Caminho_6384" data-name="Caminho 6384" d="M101.371,648.524a2.548,2.548,0,1,0-2.548,2.523A2.543,2.543,0,0,0,101.371,648.524Z" transform="translate(-96.276 -645.997)" fill="none" stroke="#0080fc" stroke-miterlimit="10" stroke-width="3"/>
      </g>
      <path id="Caminho_6385" data-name="Caminho 6385" d="M97.009,644.635v0Z" transform="translate(-66.438 -628.474)" fill="none" stroke="#0080fc" stroke-miterlimit="10" stroke-width="3"/>
    </g>
    <g id="Grupo_6225" data-name="Grupo 6225" transform="translate(194.466 805.228)">
      <g id="Grupo_6220" data-name="Grupo 6220" transform="translate(4.532)">
        <path id="Caminho_6386" data-name="Caminho 6386" d="M120.088,672.849v-7.382a10.932,10.932,0,0,1,10.962-10.875h3.41a10.935,10.935,0,0,1,10.966,10.875v7.4Z" transform="translate(-120.088 -654.592)" fill="none" stroke="#0561fc" stroke-miterlimit="10" stroke-width="3"/>
      </g>
      <rect id="Retângulo_1536" data-name="Retângulo 1536" width="33.617" height="29.926" transform="translate(0.391 18.116)" fill="none" stroke="#0561fc" stroke-miterlimit="10" stroke-width="3"/>
      <g id="Grupo_6223" data-name="Grupo 6223" transform="translate(0 26.279)">
        <g id="Grupo_6221" data-name="Grupo 6221">
          <path id="Caminho_6387" data-name="Caminho 6387" d="M118.784,662.153h0Z" transform="translate(-118.784 -662.153)" fill="none" stroke="#0561fc" stroke-miterlimit="10" stroke-width="3"/>
          <path id="Caminho_6388" data-name="Caminho 6388" d="M118.784,663.963h0Z" transform="translate(-118.784 -657.672)" fill="none" stroke="#0561fc" stroke-miterlimit="10" stroke-width="3"/>
          <path id="Caminho_6389" data-name="Caminho 6389" d="M118.784,665.774h0Z" transform="translate(-118.784 -653.189)" fill="none" stroke="#0561fc" stroke-miterlimit="10" stroke-width="3"/>
        </g>
        <g id="Grupo_6222" data-name="Grupo 6222" transform="translate(28.267)">
          <path id="Caminho_6390" data-name="Caminho 6390" d="M126.917,662.153h0Z" transform="translate(-126.917 -662.153)" fill="none" stroke="#0561fc" stroke-miterlimit="10" stroke-width="3"/>
          <path id="Caminho_6391" data-name="Caminho 6391" d="M126.917,663.963h0Z" transform="translate(-126.917 -657.672)" fill="none" stroke="#0561fc" stroke-miterlimit="10" stroke-width="3"/>
          <path id="Caminho_6392" data-name="Caminho 6392" d="M126.917,665.774h0Z" transform="translate(-126.917 -653.189)" fill="none" stroke="#0561fc" stroke-miterlimit="10" stroke-width="3"/>
        </g>
      </g>
      <g id="Grupo_6224" data-name="Grupo 6224" transform="translate(14.605 26.401)">
        <path id="Caminho_6393" data-name="Caminho 6393" d="M128.179,664.763a2.585,2.585,0,0,1-2.6,2.575h0a2.585,2.585,0,0,1-2.6-2.575h0a2.585,2.585,0,0,1,2.6-2.575h0a2.585,2.585,0,0,1,2.6,2.575Z" transform="translate(-122.986 -662.188)" fill="none" stroke="#0561fc" stroke-miterlimit="10" stroke-width="3"/>
        <path id="Caminho_6394" data-name="Caminho 6394" d="M123.733,663.431v0Z" transform="translate(-121.137 -659.111)" fill="none" stroke="#0561fc" stroke-miterlimit="10" stroke-width="3"/>
      </g>
    </g>
    <g id="Grupo_6226" data-name="Grupo 6226" transform="translate(275.683 645.589)">
      <circle id="Elipse_500" data-name="Elipse 500" cx="48.652" cy="48.652" r="48.652" transform="translate(0 94.7) rotate(-76.718)" fill="#fff"/>
      <g id="Grupo_5269" data-name="Grupo 5269" transform="translate(-369.091 -123.368)">
        <path id="user" d="M28.3,4a16.98,16.98,0,1,0,16.98,16.98A16.98,16.98,0,0,0,28.3,4Z" transform="translate(400.105 148.158)" fill="#0f7bff"/>
        <path id="user-2" data-name="user" d="M55.58,17.262H14.756A6.764,6.764,0,0,0,8,24.019V26.6c0,5.624,3.2,10.487,9.011,13.691,4.834,2.669,11.283,4.138,18.157,4.138,13.085,0,27.168-5.58,27.168-17.829V24.019A6.764,6.764,0,0,0,55.58,17.262Z" transform="translate(393.224 175.649)" fill="#6badfe"/>
      </g>
    </g>
    <g id="Grupo_6227" data-name="Grupo 6227" transform="translate(419.408 682.098)">
      <rect id="Retângulo_1537" data-name="Retângulo 1537" width="105.991" height="80.671" rx="8.452" transform="translate(0)" fill="#c5e1f9"/>
      <path id="Caminho_6395" data-name="Caminho 6395" d="M225.907,668.375V638.3H193.183Z" transform="translate(-159.544 -571.786)" fill="#c5e1f9"/>
    </g>
    <path id="Caminho_6396" data-name="Caminho 6396" d="M217.128,630.4c4.762,2.291,18.139,9.183,27.492,20.048s14.108,16.172,6.194,27.954,15.442,12.637,3.253,18.7c-14.118,7.028-17.642,12.575-27.457,10.441-17.291-3.75-23.377-17.517-17.823-31.19S215.06,662,210.615,653.8,212.457,628.149,217.128,630.4Z" transform="translate(293.559 90.255)" fill="#281617"/>
    <path id="Caminho_6397" data-name="Caminho 6397" d="M231.11,648.958s4.908,19.884,17.43,20.655a69.678,69.678,0,0,0,10.927-.108s-37.484,33.8-45.027,23.572c-3.583-4.855,10.945-11.028,6.2-23.318C211.667,646.487,212.5,621.271,231.11,648.958Z" transform="translate(311.067 106.656)" fill="#f7b68b"/>
    <path id="Caminho_6398" data-name="Caminho 6398" d="M228.584,648.03a22.693,22.693,0,0,0,10.875,3.764c-8.116,16.148-24.4,13.531-24.937,13.409a2.1,2.1,0,0,1-1.675-1.216,3.78,3.78,0,0,1-.487-2.475c.146-.494.66-.984.5-1.081s-1.237-.737-1.5-.9-.341-1.008-.341-1.008a7.466,7.466,0,0,0,.789-.837c-1.4-.831-1.54-1.568-1.592-1.964s.487-.983.949-1.47a2.876,2.876,0,0,0,.188-2.144c-.16-.456-1.564-1.147-1.811-1.589s-.462-1.293-.282-1.474.879-.664,2.217-1.609,3.1-3.392,3.086-7.761,1.036-4.136,1.884-6.107C218.605,628.525,220.9,642.928,228.584,648.03Z" transform="translate(299.496 95.982)" fill="#f7b68b"/>
    <path id="Caminho_6399" data-name="Caminho 6399" d="M236.781,647.024s5.422.358,6.6.334,2.7,5.123,2.812,10.534-22.112,45.885-23.679,49.684a85.237,85.237,0,0,0-3.931,14.678c-.191,2.12-6.037,3.889-9.826,2.791-2.509-.726-4.706-1.46-5.446-2.631a1.969,1.969,0,0,1,.167-2.2c1.592-2.624,10.316-13.162,10.316-13.162s3.966-24.326,8-34.058S230.764,651.859,236.781,647.024Z" transform="translate(284.278 131.9)" fill="#f7b68b"/>
    <g id="Grupo_6234" data-name="Grupo 6234" transform="translate(405.453 772.748)">
      <path id="Caminho_6400" data-name="Caminho 6400" d="M288.8,681.484l-58.985-10.667s-18.827-5.022-22.592,12.547c-4.39,20.482,1.762,111.7,1.762,111.7l-.629,4.393-28.865,15.689h43.928l-3.138-13.809,10.788-92.872s45.179,13.179,60.239,13.179,26.356-5.648,26.356-8.157S299.464,680.229,288.8,681.484Z" transform="translate(-179.489 -583.59)" fill="#212957"/>
      <g id="Grupo_6233" data-name="Grupo 6233" transform="translate(69.464 40.722)">
        <g id="Grupo_6228" data-name="Grupo 6228" transform="translate(96.959 20.758)">
          <path id="Caminho_6401" data-name="Caminho 6401" d="M231.918,760.184a14.859,14.859,0,0,0,9.84-3.559c4.946-4.3,7.083-11.946,6.364-22.724-.483-7.275-3.347-14.639-6.378-22.442-5.106-13.12-10.889-27.992-7.865-47.657l-5.617-.866c-3.253,21.177,3.09,37.481,8.178,50.584,3,7.7,5.585,14.354,6.013,20.756.58,8.741-.928,14.973-4.376,18.014a9.4,9.4,0,0,1-7.511,2.11l-1.14,5.571A13.2,13.2,0,0,0,231.918,760.184Z" transform="translate(-227.372 -662.936)" fill="#367082"/>
        </g>
        <g id="Grupo_6231" data-name="Grupo 6231" transform="translate(3.813 137.993)">
          <g id="Grupo_6229" data-name="Grupo 6229" transform="translate(4.508 25.113)">
            <path id="Caminho_6402" data-name="Caminho 6402" d="M220.085,703.892l-5.537,8.442,46.5,14.893s3.107-2.968-8.3-8.932C239.461,711.344,220.085,703.892,220.085,703.892Z" transform="translate(-170.481 -703.892)" fill="#88bdda"/>
            <path id="Caminho_6403" data-name="Caminho 6403" d="M243.215,703.892l5.537,8.442-46.5,14.893s-3.1-2.968,8.307-8.932C223.841,711.344,243.215,703.892,243.215,703.892Z" transform="translate(-201.869 -703.892)" fill="#88bdda"/>
          </g>
          <rect id="Retângulo_1538" data-name="Retângulo 1538" width="9.716" height="34.592" transform="translate(45.124)" fill="#88bdda"/>
          <g id="Grupo_6230" data-name="Grupo 6230" transform="translate(9.839 26.892)">
            <path id="Caminho_6404" data-name="Caminho 6404" d="M219.691,704.4l-4.734,8.056,39.8,14.212s2.659-2.833-7.1-8.529C236.28,711.512,219.691,704.4,219.691,704.4Z" transform="translate(-174.799 -704.404)" fill="#acd5f4"/>
            <path id="Caminho_6405" data-name="Caminho 6405" d="M238.8,704.4l4.734,8.056-39.8,14.212s-2.659-2.833,7.108-8.529C222.213,711.512,238.8,704.4,238.8,704.4Z" transform="translate(-203.403 -704.404)" fill="#acd5f4"/>
          </g>
          <path id="Caminho_6406" data-name="Caminho 6406" d="M225.111,714.141a3.377,3.377,0,1,0,3.378-3.382A3.376,3.376,0,0,0,225.111,714.141Z" transform="translate(-139.823 -661.779)" fill="#001f46"/>
          <path id="Caminho_6407" data-name="Caminho 6407" d="M202.922,714.141a3.378,3.378,0,1,0,3.382-3.382A3.379,3.379,0,0,0,202.922,714.141Z" transform="translate(-194.754 -661.779)" fill="#001f46"/>
          <path id="Caminho_6408" data-name="Caminho 6408" d="M227.463,714.141a3.377,3.377,0,1,0,3.375-3.382A3.373,3.373,0,0,0,227.463,714.141Z" transform="translate(-134 -661.779)" fill="#367082"/>
          <path id="Caminho_6409" data-name="Caminho 6409" d="M200.572,714.141a3.373,3.373,0,1,0,3.375-3.382A3.373,3.373,0,0,0,200.572,714.141Z" transform="translate(-200.572 -661.779)" fill="#367082"/>
        </g>
        <rect id="Retângulo_1539" data-name="Retângulo 1539" width="7.107" height="12.439" transform="translate(50.367 125.316)" fill="#367082"/>
        <path id="Caminho_6410" data-name="Caminho 6410" d="M212.433,696.068a6.93,6.93,0,0,0,6.927,6.927h3.91a6.931,6.931,0,0,0,6.93-6.927h0a6.93,6.93,0,0,0-6.93-6.934h-3.91a6.929,6.929,0,0,0-6.927,6.934Z" transform="translate(-167.396 -577.322)" fill="#367082"/>
        <path id="Caminho_6411" data-name="Caminho 6411" d="M199.979,701.371c-.167-.817-.264-5.933-.264-6.809,0-5.6,3.615-10.131,8.077-10.131h90.022c4.456,0,8.074,4.532,8.074,10.131,0,.876-.094,5.992-.268,6.809Z" transform="translate(-198.881 -588.964)" fill="#8dcfff"/>
        <path id="Caminho_6412" data-name="Caminho 6412" d="M307.313,692.3c0,1.713-1,3.1-2.238,3.1H201.717c-1.241,0-2.242-1.391-2.242-3.1h0c0-1.71,1-3.1,2.242-3.1H305.074c1.241,0,2.238,1.39,2.238,3.1Z" transform="translate(-199.475 -577.153)" fill="#367082"/>
        <g id="Grupo_6232" data-name="Grupo 6232" transform="translate(52.155)">
          <path id="Caminho_6413" data-name="Caminho 6413" d="M265.128,717.392c-2.224.16-16.332.41-18.765.441-15.446.188-28.75-2.711-29.491-6.517a131.905,131.905,0,0,1-.4-47.838c.66-3.8,14.163-6.7,29.935-6.506,2.478.031,16.878.281,19.144.448A129.429,129.429,0,0,0,265.128,717.392Z" transform="translate(-214.481 -656.963)" fill="#8dcfff"/>
          <path id="Caminho_6414" data-name="Caminho 6414" d="M234.551,657.094c1.727.021,2.937.845,2.7,1.835a129.256,129.256,0,0,0-.487,56.315c.219.994-.977,1.814-2.666,1.832h0c-1.693.028-3.26-.768-3.472-1.766a129.441,129.441,0,0,1,.365-56.451c.233-1,1.828-1.786,3.562-1.766Z" transform="translate(-181.784 -656.64)" fill="#367082"/>
          <path id="Caminho_6415" data-name="Caminho 6415" d="M239.552,717.2a39.247,39.247,0,0,1-4.053.271c-3.368.042-6.833-2.93-7.5-6.67a129.608,129.608,0,0,1,.216-47.108c.7-3.743,4.254-6.708,7.688-6.67a39.6,39.6,0,0,1,4.122.275A129.275,129.275,0,0,0,239.552,717.2Z" transform="translate(-186.094 -656.807)" fill="#7dc2f5"/>
        </g>
      </g>
      <path id="Caminho_6416" data-name="Caminho 6416" d="M202.738,661.743c4.063,5.526,30.9,37.971,30.9,37.971s27.395,12.436,18.963-7.709" transform="translate(-121.933 -604.409)" fill="#ec9568"/>
      <path id="Caminho_6417" data-name="Caminho 6417" d="M202.868,709.553s.629,6.117.629,8-4.08,7.215-4.393,8.786l-.313,1.567H229.54s.626-3.139-4.393-7.215-6.59-6.9-7.215-12.081S202.868,709.553,202.868,709.553Z" transform="translate(-131.705 -493.529)" fill="#c5e1f9"/>
      <path id="Caminho_6418" data-name="Caminho 6418" d="M231.273,645.925s-17.885,2.822-20.238,9.881-1.411,11.3-1.411,14.591S232.212,658.632,231.273,645.925Z" transform="translate(-105.348 -643.569)" fill="#dd000b"/>
      <path id="Caminho_6419" data-name="Caminho 6419" d="M253.467,645.247l-19.3,2.357s-24.722,76.008-25.886,82.987c-.626,3.764,16.944,5.491,26.356,6.9s22.591,0,22.591,0-4.706-15.06-1.411-30.592,17.882-27.3,14.587-38.12S276.527,657.957,253.467,645.247Z" transform="translate(-108.245 -645.247)" fill="#fd2227"/>
      <path id="Caminho_6420" data-name="Caminho 6420" d="M233.489,649.623s-12.53,5.8-11.588,15.216S233.016,706.1,233.016,706.1s5.648,26.825,16.471,23.53,9.885-33.883,2.356-53.18S236.78,644.914,233.489,649.623Z" transform="translate(-74.618 -636.913)" fill="#dd000b"/>
      <path id="Caminho_6421" data-name="Caminho 6421" d="M286.786,694.37s-.469,5.412-.469,6.586-5.179,2.589-10.59,2.589-45.416-23.061-49.18-24.708a85.345,85.345,0,0,0-14.591-4.237c-2.117-.233-3.764-6.117-2.589-9.881.779-2.492,1.557-4.675,2.746-5.387a1.959,1.959,0,0,1,2.2.209c2.589,1.647,12.943,10.59,12.943,10.59s24.235,4.47,33.884,8.706S282.08,688.25,286.786,694.37Z" transform="translate(-106.492 -610.99)" fill="#f7b68b"/>
      <path id="Caminho_6422" data-name="Caminho 6422" d="M206.79,660.776l12.394-1.62-2.746,5.387,1.647,8.234-6.823,1.178s-.942-1.178.233-1.648,2.826-1.178,2.826-1.178-3.295-.469-4.706-.706-1.647-.706-1.647-1.411,1.411-1.175,1.411-1.175-2.589-.942-2.822-1.648-.709-1.647-.236-2.353S206.085,661.248,206.79,660.776Z" transform="translate(-113.564 -610.814)" fill="#ec9568"/>
      <path id="Caminho_6423" data-name="Caminho 6423" d="M299.9,682.949H277.309l-65.672-14.434s-26.356-6.9-19.453,11.925,30.53,121.737,30.53,121.737l14.434-1.254s-2.509-68.4-9.412-80.322-7.532-15.689-7.532-15.689,45.809,24.472,64.636,23.217S319.353,712.443,299.9,682.949Z" transform="translate(-150.914 -590.703)" fill="#3b47bc"/>
      <path id="Caminho_6424" data-name="Caminho 6424" d="M282.742,673.226s12.551,21.962.626,24.472-87.853-25.73-87.853-25.73,19.648,31.378,30.533,117.347Z" transform="translate(-139.815 -579.096)" fill="none" stroke="#8dcfff" stroke-miterlimit="10" stroke-width="0.204"/>
    </g>
    <g id="Grupo_6239" data-name="Grupo 6239" transform="translate(248.685 772.224)">
      <g id="Grupo_6237" data-name="Grupo 6237" transform="translate(136.905)">
        <path id="Caminho_6425" data-name="Caminho 6425" d="M281.331,663.088l.042-.08-.042-2.509h-103.8v2.509a.118.118,0,0,0,0,.08l.264.466c1.335,2.172,3.726,2.565,6.468,2.565H274.6c2.742,0,5.13-.393,6.468-2.565Z" transform="translate(-164.498 -606.964)" fill="#d0dee6"/>
        <path id="Caminho_6426" data-name="Caminho 6426" d="M200.2,662.808a.112.112,0,0,0,0,.07l.261.379a4.2,4.2,0,0,0,1.515,1.276h15.786c2.638,0,4.939-.313,6.221-2.071l.247-.382.049-.062-.028-1.234H200.2Z" transform="translate(-108.38 -606.264)" fill="#b6c2c9"/>
        <g id="Grupo_6235" data-name="Grupo 6235" transform="translate(25.936 54.115)">
          <rect id="Retângulo_1540" data-name="Retângulo 1540" width="51.868" height="1.773" fill="#b6c2c9"/>
        </g>
        <g id="Grupo_6236" data-name="Grupo 6236">
          <path id="Caminho_6427" data-name="Caminho 6427" d="M265.016,698.54l-13.458-51a3.389,3.389,0,0,0-3.079-2.44H175.651a1.815,1.815,0,0,0-1.793,2.44l13.458,51Z" transform="translate(-173.774 -645.096)" fill="#d7dfe2"/>
          <path id="Caminho_6428" data-name="Caminho 6428" d="M195.008,656.147a3.51,3.51,0,0,1-3.469,4.713,6.565,6.565,0,0,1-5.961-4.713c-.688-2.61.865-4.72,3.472-4.72A6.554,6.554,0,0,1,195.008,656.147Z" transform="translate(-144.952 -629.423)" fill="#b6c2c9"/>
        </g>
      </g>
      <g id="Grupo_6238" data-name="Grupo 6238" transform="translate(0 59.088)">
        <path id="Caminho_6429" data-name="Caminho 6429" d="M145.011,833.459H134.384l17.531-169.776h15.4Z" transform="translate(-134.384 -658.171)" fill="#163f59"/>
        <path id="Caminho_6430" data-name="Caminho 6430" d="M154.087,671.508l-6.758,51.416-8.014-55.411.393-3.831h13.466Z" transform="translate(-122.177 -658.171)" fill="#212957"/>
        <path id="Caminho_6431" data-name="Caminho 6431" d="M185.963,833.459H175.34L192.87,663.682h15.4Z" transform="translate(-32.991 -658.171)" fill="#163f59"/>
        <path id="Caminho_6432" data-name="Caminho 6432" d="M195.044,671.508l-6.756,51.416-8.019-55.411.4-3.831h13.465Z" transform="translate(-20.789 -658.171)" fill="#212957"/>
        <path id="Caminho_6433" data-name="Caminho 6433" d="M226.383,833.459h10.625L219.479,663.682H204.073Z" transform="translate(38.139 -658.171)" fill="#163f59"/>
        <path id="Caminho_6434" data-name="Caminho 6434" d="M204.369,671.508l20.619,52.4-5.847-56.39-.393-3.831H205.281Z" transform="translate(38.871 -658.171)" fill="#212957"/>
        <rect id="Retângulo_1541" data-name="Retângulo 1541" width="128.095" height="9.921" transform="translate(144.394)" fill="#387bff"/>
        <rect id="Retângulo_1542" data-name="Retângulo 1542" width="145.453" height="9.921" transform="translate(4.865)" fill="#7eb3ff"/>
      </g>
    </g>
    <path id="Caminho_6435" data-name="Caminho 6435" d="M209.38,634.187c.514-2.2,26.571-9.176,39.751-2.232,22.136,11.664,18.654,27.138,17.1,29.557-14.817,23.075,6.614,25.483,13.419,30.238,7.685,5.366.358,20.614-9.412,22.595-17.2,3.486-34.6-19.794-33.884-34.169.792-15.96-3.118-21.5-13.805-27.847C214.065,647.29,208.31,638.729,209.38,634.187Z" transform="translate(299.646 87.161)" fill="#212957"/>
    <g id="Grupo_6240" data-name="Grupo 6240" transform="translate(506.712 738.998)">
      <path id="Caminho_6436" data-name="Caminho 6436" d="M227.344,640.964a6.368,6.368,0,1,1-7.243-5.356A6.367,6.367,0,0,1,227.344,640.964Z" transform="translate(-193.635 -635.536)" fill="#c5e1f9"/>
      <path id="Caminho_6437" data-name="Caminho 6437" d="M233,638.545c5.954-8.741-11.8,20.207-23.148,17.4C209.85,655.944,220.294,657.2,233,638.545Z" transform="translate(-205.586 -632.176)" fill="none" stroke="#eaf4fe" stroke-miterlimit="10" stroke-width="0.367"/>
      <path id="Caminho_6438" data-name="Caminho 6438" d="M212.29,645.067l-2.464-.254a1.344,1.344,0,0,1-1.2-1.47h0a1.343,1.343,0,0,1,1.47-1.2l2.464.254a1.343,1.343,0,0,1,1.2,1.47h0A1.344,1.344,0,0,1,212.29,645.067Z" transform="translate(-208.623 -619.189)" fill="#eaf4fe"/>
      <path id="Caminho_6439" data-name="Caminho 6439" d="M224.285,639.948a4.571,4.571,0,1,1-5.2-3.844A4.572,4.572,0,0,1,224.285,639.948Z" transform="translate(-192.355 -634.257)" fill="#eaf4fe"/>
    </g>
    <g id="Grupo_6246" data-name="Grupo 6246" transform="translate(185.092 594.943)">
      <g id="Grupo_6241" data-name="Grupo 6241">
        <path id="Caminho_6440" data-name="Caminho 6440" d="M138.251,625.123H123.473v-3.472a14.778,14.778,0,1,1,14.778,0Zm-11.821-2.958H135.3V619.85l.82-.407a11.822,11.822,0,1,0-10.507,0l.82.407Z" transform="translate(-116.087 -594.089)" fill="#7eb3ff"/>
      </g>
      <g id="Grupo_6242" data-name="Grupo 6242" transform="translate(7.387 32.51)">
        <rect id="Retângulo_1543" data-name="Retângulo 1543" width="14.778" height="2.956" fill="#7eb3ff"/>
      </g>
      <g id="Grupo_6243" data-name="Grupo 6243" transform="translate(13.298 16.255)">
        <rect id="Retângulo_1544" data-name="Retângulo 1544" width="2.956" height="11.823" fill="#7eb3ff"/>
      </g>
      <g id="Grupo_6244" data-name="Grupo 6244" transform="translate(11.821 14.777)">
        <rect id="Retângulo_1545" data-name="Retângulo 1545" width="5.911" height="2.956" fill="#7eb3ff"/>
      </g>
      <g id="Grupo_6245" data-name="Grupo 6245" transform="translate(5.909 5.909)">
        <path id="Caminho_6441" data-name="Caminho 6441" d="M120.745,604.659h-2.958a8.88,8.88,0,0,1,8.866-8.87v2.958A5.915,5.915,0,0,0,120.745,604.659Z" transform="translate(-117.787 -595.789)" fill="#7eb3ff"/>
      </g>
    </g>
    <circle id="Elipse_501" data-name="Elipse 501" cx="5.813" cy="5.813" r="5.813" transform="translate(112.875 707.268)" fill="none" stroke="#7eb3ff" stroke-miterlimit="10" stroke-width="3"/>
    <g id="Grupo_6247" data-name="Grupo 6247" transform="translate(118.402 637.515)">
      <path id="Caminho_6442" data-name="Caminho 6442" d="M124.564,606.338h0Z" transform="translate(-39.477 -606.337)" fill="none" stroke="#7eb3ff" stroke-miterlimit="10" stroke-width="3"/>
      <path id="Caminho_6443" data-name="Caminho 6443" d="M169.427,606.338h0Z" transform="translate(-92.824 -606.337)" fill="none" stroke="#7eb3ff" stroke-miterlimit="10" stroke-width="3" stroke-dasharray="1.591 1.591"/>
      <path id="Caminho_6444" data-name="Caminho 6444" d="M99.856,606.338H96.9v2.956Z" transform="translate(-96.899 -606.338)" fill="none" stroke="#7eb3ff" stroke-miterlimit="10" stroke-width="3"/>
      <path id="Caminho_6445" data-name="Caminho 6445" d="M96.9,608.807v0Z" transform="translate(-96.899 -600.225)" fill="none" stroke="#7eb3ff" stroke-miterlimit="10" stroke-width="3" stroke-dasharray="1.619 1.619"/>
      <path id="Caminho_6446" data-name="Caminho 6446" d="M96.9,625v0Z" transform="translate(-96.899 -561.352)" fill="none" stroke="#7eb3ff" stroke-miterlimit="10" stroke-width="3"/>
    </g>
    <path id="Caminho_6447" data-name="Caminho 6447" d="M122.174,680.866a5.811,5.811,0,1,1,5.811,5.815A5.811,5.811,0,0,1,122.174,680.866Z" transform="translate(84.074 198.294)" fill="none" stroke="#7eb3ff" stroke-miterlimit="10" stroke-width="3"/>
    <path id="Caminho_6448" data-name="Caminho 6448" d="M122.174,638.259a5.811,5.811,0,1,1,5.811,5.815A5.811,5.811,0,0,1,122.174,638.259Z" transform="translate(84.074 97.816)" fill="none" stroke="#7eb3ff" stroke-miterlimit="10" stroke-width="3"/>
    <rect id="Retângulo_1546" data-name="Retângulo 1546" width="127.344" height="20.864" transform="translate(144.768 691.989)" fill="#c5e1f9"/>
    <g id="Grupo_6248" data-name="Grupo 6248" transform="translate(149.498 697.988)">
      <path id="Caminho_6449" data-name="Caminho 6449" d="M105.846,625.013h0Z" transform="translate(-105.846 -620.578)" fill="none" stroke="#0561fc" stroke-miterlimit="10" stroke-width="2"/>
      <path id="Caminho_6450" data-name="Caminho 6450" d="M106.582,632.6l5.12-8.866Z" transform="translate(-104.024 -623.737)" fill="none" stroke="#0561fc" stroke-miterlimit="10" stroke-width="2"/>
      <path id="Caminho_6451" data-name="Caminho 6451" d="M111.7,632.6l-5.12-8.866Z" transform="translate(-104.024 -623.737)" fill="none" stroke="#0561fc" stroke-miterlimit="10" stroke-width="2"/>
    </g>
    <g id="Grupo_6249" data-name="Grupo 6249" transform="translate(164.082 697.988)">
      <path id="Caminho_6452" data-name="Caminho 6452" d="M110.042,625.013h0Z" transform="translate(-110.042 -620.578)" fill="none" stroke="#0561fc" stroke-miterlimit="10" stroke-width="2"/>
      <path id="Caminho_6453" data-name="Caminho 6453" d="M110.779,632.6l5.116-8.866Z" transform="translate(-108.217 -623.737)" fill="none" stroke="#0561fc" stroke-miterlimit="10" stroke-width="2"/>
      <path id="Caminho_6454" data-name="Caminho 6454" d="M115.9,632.6l-5.116-8.866Z" transform="translate(-108.217 -623.737)" fill="none" stroke="#0561fc" stroke-miterlimit="10" stroke-width="2"/>
    </g>
    <g id="Grupo_6250" data-name="Grupo 6250" transform="translate(178.669 697.988)">
      <path id="Caminho_6455" data-name="Caminho 6455" d="M114.239,625.013h0Z" transform="translate(-114.239 -620.578)" fill="none" stroke="#0561fc" stroke-miterlimit="10" stroke-width="2"/>
      <path id="Caminho_6456" data-name="Caminho 6456" d="M114.975,632.6l5.12-8.866Z" transform="translate(-112.417 -623.737)" fill="none" stroke="#0561fc" stroke-miterlimit="10" stroke-width="2"/>
      <path id="Caminho_6457" data-name="Caminho 6457" d="M120.095,632.6l-5.12-8.866Z" transform="translate(-112.417 -623.737)" fill="none" stroke="#0561fc" stroke-miterlimit="10" stroke-width="2"/>
    </g>
    <g id="Grupo_6251" data-name="Grupo 6251" transform="translate(193.253 697.988)">
      <path id="Caminho_6458" data-name="Caminho 6458" d="M118.435,625.013h0Z" transform="translate(-118.435 -620.578)" fill="none" stroke="#0561fc" stroke-miterlimit="10" stroke-width="2"/>
      <path id="Caminho_6459" data-name="Caminho 6459" d="M119.172,632.6l5.116-8.866Z" transform="translate(-116.61 -623.737)" fill="none" stroke="#0561fc" stroke-miterlimit="10" stroke-width="2"/>
      <path id="Caminho_6460" data-name="Caminho 6460" d="M124.288,632.6l-5.116-8.866Z" transform="translate(-116.61 -623.737)" fill="none" stroke="#0561fc" stroke-miterlimit="10" stroke-width="2"/>
    </g>
    <g id="Grupo_6252" data-name="Grupo 6252" transform="translate(207.84 697.988)">
      <path id="Caminho_6461" data-name="Caminho 6461" d="M122.632,625.013h0Z" transform="translate(-122.632 -620.578)" fill="none" stroke="#0561fc" stroke-miterlimit="10" stroke-width="2"/>
      <path id="Caminho_6462" data-name="Caminho 6462" d="M123.368,632.6l5.116-8.866Z" transform="translate(-120.81 -623.737)" fill="none" stroke="#0561fc" stroke-miterlimit="10" stroke-width="2"/>
      <path id="Caminho_6463" data-name="Caminho 6463" d="M128.484,632.6l-5.116-8.866Z" transform="translate(-120.81 -623.737)" fill="none" stroke="#0561fc" stroke-miterlimit="10" stroke-width="2"/>
    </g>
    <rect id="Retângulo_1547" data-name="Retângulo 1547" width="127.344" height="20.864" transform="translate(144.768 663.93)" fill="#c5e1f9"/>
    <g id="Grupo_6253" data-name="Grupo 6253" transform="translate(151.615 675.084)">
      <path id="Caminho_6464" data-name="Caminho 6464" d="M106.455,617.147h0Z" transform="translate(-106.455 -617.147)" fill="none" stroke="#0561fc" stroke-miterlimit="10" stroke-width="2"/>
    </g>
  </g>
</svg>
