<svg xmlns="http://www.w3.org/2000/svg" width="16.189" height="19.998" viewBox="0 0 16.189 19.998">
  <g id="Delete" transform="translate(0)">
    <path id="Caminho_434" data-name="Caminho 434" d="M12.957,20A.99.99,0,0,0,12,21.019V30.4a3.694,3.694,0,0,0,3.573,3.8h6.2a3.694,3.694,0,0,0,3.573-3.8V21.019A.99.99,0,0,0,24.387,20ZM16,29.946a.669.669,0,1,1-1.334,0V23.552a.669.669,0,1,1,1.334,0Zm3.336,0a.669.669,0,1,1-1.334,0V23.552a.669.669,0,1,1,1.334,0Zm3.336,0a.669.669,0,1,1-1.334,0V23.552a.669.669,0,1,1,1.334,0Z" transform="translate(-10.578 -14.21)" fill="#fa4b57"/>
    <path id="Caminho_435" data-name="Caminho 435" d="M24.185,7.147a1.077,1.077,0,0,0-1.079-1.016h-4a.326.326,0,0,1-.317-.334V5.421A1.386,1.386,0,0,0,17.44,4h-2.7a1.386,1.386,0,0,0-1.349,1.421V5.8a.326.326,0,0,1-.317.334h-4A1.077,1.077,0,0,0,8,7.147a1.1,1.1,0,0,0,.279.786.988.988,0,0,0,.733.329H23.173a.988.988,0,0,0,.733-.329,1.1,1.1,0,0,0,.279-.786ZM17.44,5.776a.347.347,0,0,1-.337.355H15.08a.356.356,0,0,1,0-.71H17.1A.347.347,0,0,1,17.44,5.776Z" transform="translate(-7.997 -4)" fill="#fa4b57"/>
  </g>
</svg>
