<svg xmlns="http://www.w3.org/2000/svg" width="16" height="16.003" viewBox="0 0 16 16.003">
  <path id="settings" d="M8.857,16H7.152a.963.963,0,0,1-.93-.741l-.309-1.222a6.779,6.779,0,0,1-.7-.292l-1.092.644a.956.956,0,0,1-1.184-.146L1.75,13.058A.956.956,0,0,1,1.6,11.87L2.25,10.8a6.869,6.869,0,0,1-.291-.707l-1.227-.3A.985.985,0,0,1,0,8.84v-1.7a.954.954,0,0,1,.74-.929l1.225-.31a4.887,4.887,0,0,1,.295-.7L1.6,4.115a.96.96,0,0,1,.146-1.18l1.188-1.2A.968.968,0,0,1,4.121,1.6l1.084.646c.223-.111.465-.214.7-.3L6.213.724A.919.919,0,0,1,6.393.37.948.948,0,0,1,7.146,0H8.834a.957.957,0,0,1,.938.732l.3,1.223a6.693,6.693,0,0,1,.705.3L11.883,1.6a.958.958,0,0,1,.5-.141.983.983,0,0,1,.688.279l1.188,1.2a.95.95,0,0,1,.145,1.18L13.754,5.2a5.247,5.247,0,0,1,.3.7l1.223.31A.947.947,0,0,1,16,7.145V8.832a.954.954,0,0,1-.732.938l-1.227.3a7.577,7.577,0,0,1-.287.706L14.4,11.87a.962.962,0,0,1-.145,1.188L13.07,14.247a.97.97,0,0,1-.687.287.954.954,0,0,1-.5-.142l-1.08-.644a7.112,7.112,0,0,1-.705.292l-.3,1.222A.973.973,0,0,1,8.857,16ZM8.01,5.593a2.4,2.4,0,0,0-.016,4.8H8.01a2.4,2.4,0,1,0,0-4.8Z" fill="#a5b9d5" opacity="0.997"/>
</svg>
