<svg xmlns="http://www.w3.org/2000/svg" width="17.419" height="16.999" viewBox="0 0 17.419 16.999">
  <path id="Tag" d="M10.2,17a3.119,3.119,0,0,1-2.043-.76l-7.066-6.11A3.1,3.1,0,0,1,.007,7.567L.388,2.405A1.355,1.355,0,0,1,1.45,1.189l1.1-.247.564-.1s0,0,.016,0c.123-.027.32-.072.584-.138C4.054.61,4.4.536,4.622.49c.086-.017.15-.033.188-.041L6.577.07A3.2,3.2,0,0,1,7.231,0,3.112,3.112,0,0,1,9.28.765l7.061,6.106a3.082,3.082,0,0,1,.311,4.377l-4.09,4.682A3.134,3.134,0,0,1,10.2,17ZM4.612,3.448a1.493,1.493,0,1,0,1.5,1.492A1.5,1.5,0,0,0,4.612,3.448Z" fill="#0072ff"/>
</svg>
