<?xml version="1.0" encoding="iso-8859-1"?>
<!-- Generator: Adobe Illustrator 19.0.0, SVG Export Plug-In . SVG Version: 6.00 Build 0)  -->
<svg version="1.1" id="Capa_1" xmlns="http://www.w3.org/2000/svg" xmlns:xlink="http://www.w3.org/1999/xlink" x="0px" y="0px"
	 viewBox="0 0 512 512" style="enable-background:new 0 0 512 512;" xml:space="preserve">
<linearGradient id="SVGID_1_" gradientUnits="userSpaceOnUse" x1="0.0957" y1="257.2285" x2="513.0957" y2="257.2285" gradientTransform="matrix(0.9981 0 0 -0.9981 -0.0955 512.7271)">
	<stop  offset="0" style="stop-color:#00F2FE"/>
	<stop  offset="0.021" style="stop-color:#03EFFE"/>
	<stop  offset="0.293" style="stop-color:#24D2FE"/>
	<stop  offset="0.554" style="stop-color:#3CBDFE"/>
	<stop  offset="0.796" style="stop-color:#4AB0FE"/>
	<stop  offset="1" style="stop-color:#4FACFE"/>
</linearGradient>
<path style="fill:url(#SVGID_1_);" d="M228.554,441.637H79.844c-22.013,0-39.922-17.909-39.922-39.922V131.244H471.08v101.801
	c0,11.024,8.937,19.961,19.961,19.961c11.024,0,19.961-8.937,19.961-19.961V70.363c0-33.02-26.864-59.883-59.883-59.883H59.883
	C26.864,10.48,0,37.343,0,70.363v331.353c0,44.026,35.818,79.844,79.844,79.844h148.71c11.024,0,19.961-8.937,19.961-19.961
	C248.515,450.574,239.578,441.637,228.554,441.637z M370.277,50.402c11.007,0,19.961,8.955,19.961,19.961
	s-8.954,19.961-19.961,19.961c-11.007,0-19.961-8.955-19.961-19.961S359.27,50.402,370.277,50.402z M470.082,70.363
	c0,11.007-8.954,19.961-19.961,19.961c-11.007,0-19.961-8.955-19.961-19.961s8.954-19.961,19.961-19.961
	C461.127,50.402,470.082,59.356,470.082,70.363z M59.883,50.402h253.944c-2.216,6.248-3.433,12.964-3.433,19.961
	c0,7.372,1.346,14.432,3.794,20.959H39.922V70.363C39.922,59.356,48.877,50.402,59.883,50.402z M392.234,261.988
	c-66.039,0-119.766,53.727-119.766,119.766S326.195,501.52,392.234,501.52S512,447.793,512,381.754S458.273,261.988,392.234,261.988
	z M392.234,301.91c14.056,0,27.266,3.664,38.749,10.066L322.456,420.504c-6.402-11.484-10.066-24.694-10.066-38.749
	C312.39,337.728,348.208,301.91,392.234,301.91z M392.234,461.598c-15.513,0-29.996-4.462-42.263-12.148L459.93,339.491
	c7.686,12.266,12.148,26.75,12.148,42.263C472.078,425.78,436.26,461.598,392.234,461.598z"/>
<g>
</g>
<g>
</g>
<g>
</g>
<g>
</g>
<g>
</g>
<g>
</g>
<g>
</g>
<g>
</g>
<g>
</g>
<g>
</g>
<g>
</g>
<g>
</g>
<g>
</g>
<g>
</g>
<g>
</g>
</svg>
