<svg id="Grupo_4068" data-name="Grupo 4068" xmlns="http://www.w3.org/2000/svg" width="20" height="20" viewBox="0 0 20 20">
  <path id="Caminho_396" data-name="Caminho 396" d="M7,6A1,1,0,0,1,6,5V3A1,1,0,1,1,8,3V5A1,1,0,0,1,7,6ZM17,6a1,1,0,0,1-1-1V3a1,1,0,1,1,2,0V5a1,1,0,0,1-1,1Z" transform="translate(-2 -2)" fill="#57a4ef"/>
  <path id="Caminho_397" data-name="Caminho 397" d="M19,4H18V5a1,1,0,0,1-2,0V4H8V5A1,1,0,0,1,6,5V4H5A3,3,0,0,0,2,7V9H22V7a3,3,0,0,0-3-3Z" transform="translate(-2 -2)" fill="#0080fc"/>
  <path id="Caminho_398" data-name="Caminho 398" d="M2,9V19a3,3,0,0,0,3,3H19a3,3,0,0,0,3-3V9Z" transform="translate(-2 -2)" fill="#0f7ce6" opacity="0.284"/>
</svg>
