<svg xmlns="http://www.w3.org/2000/svg" width="41.855" height="38.94" viewBox="0 0 41.855 38.94">
  <g id="megaphone" transform="translate(-21.563 -16.965)">
    <path id="megaphone-2" data-name="megaphone" d="M17.425,8.34l-8.181.629A5.7,5.7,0,0,0,4,14.631v7.843a5.708,5.708,0,0,0,5.012,5.64l.978,8.809a3.729,3.729,0,0,0,7.435-.411Z" transform="translate(17.563 15.664)" fill="#6aacfd"/>
    <path id="megaphone-3" data-name="megaphone" d="M29.925,5.311a3.61,3.61,0,0,0-.843.178L11.145,11.6V33.49l17.94,6.116a3.614,3.614,0,0,0,4.78-3.421v-9.3a4.124,4.124,0,0,0,0-7.649V8.91a3.613,3.613,0,0,0-3.939-3.6Z" transform="translate(26.972 11.668)" fill="#0f7bff"/>
  </g>
</svg>
