<svg id="upload-alt" xmlns="http://www.w3.org/2000/svg" width="27.982" height="31.091" viewBox="0 0 27.982 31.091">
  <path id="Caminho_416" data-name="Caminho 416" d="M19.981,7.119,15.317,2.455a1.554,1.554,0,0,0-2.2,0L8.455,7.119a1.554,1.554,0,1,0,2.2,2.2l2.01-2.01V25.318a1.555,1.555,0,1,0,3.109,0V7.307l2.01,2.01a1.554,1.554,0,1,0,2.2-2.2Z" transform="translate(-0.227 -2)" fill="#0080fc"/>
  <path id="Caminho_417" data-name="Caminho 417" d="M26.318,9H18.546V21.436a1.555,1.555,0,1,1-3.109,0V9H7.664A4.669,4.669,0,0,0,3,13.664V24.546a4.669,4.669,0,0,0,4.664,4.664H26.318a4.669,4.669,0,0,0,4.664-4.664V13.664A4.669,4.669,0,0,0,26.318,9Z" transform="translate(-3 1.882)" fill="#bad9f7"/>
</svg>
