<svg xmlns="http://www.w3.org/2000/svg" xmlns:xlink="http://www.w3.org/1999/xlink" width="316" height="36" viewBox="0 0 316 36">
  <defs>
    <linearGradient id="linear-gradient" x1="0.175" y1="0.115" x2="0.667" y2="0.952" gradientUnits="objectBoundingBox">
      <stop offset="0" stop-color="#0baeff"/>
      <stop offset="0.081" stop-color="#1ea2f7"/>
      <stop offset="0.289" stop-color="#4985e4"/>
      <stop offset="0.491" stop-color="#6c6ed5"/>
      <stop offset="0.681" stop-color="#845ecb"/>
      <stop offset="0.856" stop-color="#9354c4"/>
      <stop offset="1" stop-color="#9851c2"/>
    </linearGradient>
    <linearGradient id="linear-gradient-2" x1="0.193" y1="-0.02" x2="0.76" y2="1.032" gradientUnits="objectBoundingBox">
      <stop offset="0" stop-color="#00f2ff"/>
      <stop offset="0.994" stop-color="#476bff"/>
    </linearGradient>
    <linearGradient id="linear-gradient-3" x1="0.013" y1="0.137" x2="0.87" y2="1.027" xlink:href="#linear-gradient-2"/>
    <linearGradient id="linear-gradient-4" x1="0.015" y1="0.136" x2="0.872" y2="1.026" xlink:href="#linear-gradient-2"/>
    <linearGradient id="linear-gradient-5" x1="0.016" y1="0.136" x2="0.873" y2="1.027" xlink:href="#linear-gradient-2"/>
  </defs>
  <g id="Logo_5.0_-_By_WhatsApp_Launch_Manager" data-name="Logo 5.0 - (By) WhatsApp Launch Manager" transform="translate(-86.617 -10.198)">
    <g id="Grupo_4363" data-name="Grupo 4363" transform="translate(131.538 10.198)">
      <path id="Caminho_3272" data-name="Caminho 3272" d="M4.18,0,.117-14.219H2.754q.273,1.025.928,3.472T4.805-6.494q.469,1.807.889,3.506Q6.153-4.717,6.7-6.528t1.323-4.238q.776-2.427,1.089-3.452h2.363L14.015-6.27l.977,3.33q.4-1.709.855-3.535t1.065-4.248q.61-2.422.884-3.5h2.559L16.388,0H13.546L10.226-10.791,6.983,0Zm17.7,0V-14.229H24.3v5.508a2.624,2.624,0,0,1,1.27-1.123,4.047,4.047,0,0,1,1.729-.43,4.523,4.523,0,0,1,1.265.166,3.248,3.248,0,0,1,.962.439A2.96,2.96,0,0,1,30.208-9a3.715,3.715,0,0,1,.459.8,5.145,5.145,0,0,1,.269.894,7.442,7.442,0,0,1,.137.889q.034.4.034.84V0H28.684V-5.654a3.611,3.611,0,0,0-.439-2.036,1.51,1.51,0,0,0-1.318-.62,2.741,2.741,0,0,0-1.812.688A2.036,2.036,0,0,0,24.3-6.035V0ZM38.666-1.729a2.343,2.343,0,0,0,2.046-.894,4.021,4.021,0,0,0,.64-2.388,3.877,3.877,0,0,0-.679-2.417,2.429,2.429,0,0,0-2.056-.884,2.5,2.5,0,0,0-2.066.889,3.7,3.7,0,0,0-.718,2.393,3.739,3.739,0,0,0,.718,2.4A2.545,2.545,0,0,0,38.666-1.729Zm-.3,1.953a5.231,5.231,0,0,1-2.188-.439,4.138,4.138,0,0,1-1.553-1.172,5.3,5.3,0,0,1-.889-1.631,5.862,5.862,0,0,1-.3-1.885,6.272,6.272,0,0,1,.313-1.987A5.613,5.613,0,0,1,34.656-8.6a4.208,4.208,0,0,1,1.587-1.221,5.29,5.29,0,0,1,2.237-.454,3.267,3.267,0,0,1,2.793,1.318V-10.02h2.373V0H41.215V-1.367A3.324,3.324,0,0,1,38.363.225ZM52.192-.01h-.977q-.586,0-1.016-.029a6.216,6.216,0,0,1-.884-.127,3.193,3.193,0,0,1-.772-.259,2.668,2.668,0,0,1-.61-.435,2.057,2.057,0,0,1-.469-.659,4.079,4.079,0,0,1-.278-.923,6.61,6.61,0,0,1-.1-1.23V-8.4h-2.09V-10.02h2.188v-2.344l2.315-.713v3.057h2.617V-8.4H49.5v4.873a3.171,3.171,0,0,0,.073.757,1.3,1.3,0,0,0,.22.479.868.868,0,0,0,.493.278,4.341,4.341,0,0,0,.757.117q.41.029,1.152.029Zm5.86.234A7.56,7.56,0,0,1,55.63-.146a5.819,5.819,0,0,1-1.758-.889l.606-1.738a5.1,5.1,0,0,0,1.553.786,5.787,5.787,0,0,0,1.807.308,2.242,2.242,0,0,0,1.226-.273.985.985,0,0,0,.415-.889v-.176a.69.69,0,0,0-.244-.532,3.559,3.559,0,0,0-1.123-.5l-1.426-.459q-.547-.176-.908-.327a5.19,5.19,0,0,1-.737-.386,2.138,2.138,0,0,1-.586-.513,2.316,2.316,0,0,1-.342-.684,3.014,3.014,0,0,1-.132-.933,2.874,2.874,0,0,1,.3-1.338A2.3,2.3,0,0,1,55.1-9.6a4.007,4.007,0,0,1,1.172-.493,5.836,5.836,0,0,1,1.416-.161,7.718,7.718,0,0,1,1.914.244,5.462,5.462,0,0,1,1.68.723l-.625,1.66a6.632,6.632,0,0,0-1.372-.527,5.443,5.443,0,0,0-1.421-.215,2.617,2.617,0,0,0-1.2.205.71.71,0,0,0-.371.674A.873.873,0,0,0,56.411-7a1.269,1.269,0,0,0,.488.361,9.948,9.948,0,0,0,1.192.459l1.3.439a5.493,5.493,0,0,1,1.255.576,2.229,2.229,0,0,1,.762.889,3.219,3.219,0,0,1,.288,1.445,3.145,3.145,0,0,1-.22,1.2,2.517,2.517,0,0,1-.576.879,3.072,3.072,0,0,1-.84.566,4.11,4.11,0,0,1-.982.317A5.589,5.589,0,0,1,58.052.225ZM67.6-5.781h3.809q-1.123-3.33-1.885-5.537Q68.893-9.473,67.6-5.781ZM62.6,0l5.713-14.219h2.52L76.6,0H73.8L72.419-3.467H66.676L65.328,0ZM83.074-1.729A2.463,2.463,0,0,0,84.251-2a2.032,2.032,0,0,0,.791-.737,3.648,3.648,0,0,0,.43-1.04,5.169,5.169,0,0,0,.142-1.245,4.964,4.964,0,0,0-.254-1.65,2.521,2.521,0,0,0-.845-1.182,2.293,2.293,0,0,0-1.45-.459,2.273,2.273,0,0,0-1.436.454,2.512,2.512,0,0,0-.84,1.162,4.8,4.8,0,0,0-.254,1.626A5.335,5.335,0,0,0,80.676-3.8a3.618,3.618,0,0,0,.435,1.055,2.093,2.093,0,0,0,.8.747A2.406,2.406,0,0,0,83.074-1.729ZM78.288,3.857V-6.65q0-.869-.186-3.369h2.569v1.436A2.042,2.042,0,0,1,81.653-9.7a3.75,3.75,0,0,1,2.114-.571,3.885,3.885,0,0,1,2.329.728,4.543,4.543,0,0,1,1.524,1.89,6.2,6.2,0,0,1,.513,2.529,6.487,6.487,0,0,1-.3,1.978,5.853,5.853,0,0,1-.859,1.709A4.094,4.094,0,0,1,85.545-.229,4.071,4.071,0,0,1,83.63.225a3.529,3.529,0,0,1-2.012-.557,2.054,2.054,0,0,1-.947-1.045V3.857ZM95.507-1.729A2.463,2.463,0,0,0,96.683-2a2.032,2.032,0,0,0,.791-.737,3.648,3.648,0,0,0,.43-1.04,5.169,5.169,0,0,0,.142-1.245,4.964,4.964,0,0,0-.254-1.65,2.521,2.521,0,0,0-.845-1.182,2.293,2.293,0,0,0-1.45-.459,2.273,2.273,0,0,0-1.436.454,2.512,2.512,0,0,0-.84,1.162,4.8,4.8,0,0,0-.254,1.626A5.335,5.335,0,0,0,93.109-3.8a3.618,3.618,0,0,0,.435,1.055,2.093,2.093,0,0,0,.8.747A2.4,2.4,0,0,0,95.507-1.729ZM90.721,3.857V-6.65q0-.869-.186-3.369H93.1v1.436A2.042,2.042,0,0,1,94.085-9.7a3.75,3.75,0,0,1,2.114-.571,3.885,3.885,0,0,1,2.329.728,4.543,4.543,0,0,1,1.524,1.89,6.2,6.2,0,0,1,.513,2.529,6.486,6.486,0,0,1-.3,1.978A5.853,5.853,0,0,1,99.4-1.44,4.094,4.094,0,0,1,97.977-.229a4.071,4.071,0,0,1-1.914.454,3.529,3.529,0,0,1-2.012-.557A2.054,2.054,0,0,1,93.1-1.377V3.857ZM109.316,0V-14.219H111.8v12.09h6.583V0Zm15.89-1.729a2.343,2.343,0,0,0,2.046-.894,4.021,4.021,0,0,0,.64-2.388,3.877,3.877,0,0,0-.679-2.417,2.429,2.429,0,0,0-2.056-.884,2.5,2.5,0,0,0-2.066.889,3.7,3.7,0,0,0-.718,2.393,3.739,3.739,0,0,0,.718,2.4A2.545,2.545,0,0,0,125.206-1.729ZM124.9.225a5.231,5.231,0,0,1-2.188-.439,4.138,4.138,0,0,1-1.553-1.172,5.3,5.3,0,0,1-.889-1.631,5.862,5.862,0,0,1-.3-1.885,6.272,6.272,0,0,1,.313-1.987A5.613,5.613,0,0,1,121.2-8.6a4.208,4.208,0,0,1,1.587-1.221,5.29,5.29,0,0,1,2.237-.454,3.267,3.267,0,0,1,2.793,1.318V-10.02h2.373V0h-2.432V-1.367A3.324,3.324,0,0,1,124.9.225Zm11.739,0a3.777,3.777,0,0,1-2.832-1.04,3.913,3.913,0,0,1-1.016-2.856V-10.02h2.4v6.309a1.966,1.966,0,0,0,.518,1.489,1.983,1.983,0,0,0,1.426.493,2.139,2.139,0,0,0,1.607-.542,2.448,2.448,0,0,0,.523-1.743V-10.02h2.422V-2.7l.117,2.7h-2.5l-.039-1.484a1.478,1.478,0,0,1-.22.474,3.5,3.5,0,0,1-.469.552,2.315,2.315,0,0,1-.811.488A3.145,3.145,0,0,1,136.643.225ZM144.651,0V-6.2q0-1.064-.049-2.017t-.1-1.372l-.049-.43h2.569v1.338a3.309,3.309,0,0,1,1.382-1.187,3.935,3.935,0,0,1,1.675-.405,4.6,4.6,0,0,1,1.524.229,2.992,2.992,0,0,1,1.157.742,3.3,3.3,0,0,1,.767,1.411,7.813,7.813,0,0,1,.264,2.178V0h-2.422V-5.879a3.214,3.214,0,0,0-.415-1.88,1.607,1.607,0,0,0-1.372-.552,2.229,2.229,0,0,0-.772.156A3.6,3.6,0,0,0,148-7.72a2.278,2.278,0,0,0-.659.732,1.939,1.939,0,0,0-.264.991V0Zm16.7.225a5.648,5.648,0,0,1-2.232-.43,4.517,4.517,0,0,1-1.655-1.162,5.331,5.331,0,0,1-1-1.675,5.611,5.611,0,0,1-.352-1.978,5.753,5.753,0,0,1,.61-2.671,4.574,4.574,0,0,1,1.807-1.885,5.431,5.431,0,0,1,2.788-.7,4.751,4.751,0,0,1,3.633,1.348l-.869,1.563a3.678,3.678,0,0,0-2.51-.957,2.709,2.709,0,0,0-2.188.9,3.607,3.607,0,0,0-.762,2.412,3.426,3.426,0,0,0,.811,2.378,2.828,2.828,0,0,0,2.217.9q.2,0,.391-.02T162.4-1.8a2.84,2.84,0,0,0,.327-.083q.171-.054.288-.1a2.248,2.248,0,0,0,.264-.122l.23-.122a2.188,2.188,0,0,0,.21-.132l.171-.117q.044-.029.156-.112t.122-.093L164.9-.9a6.3,6.3,0,0,1-1.68.854A6.1,6.1,0,0,1,161.352.225ZM166.929,0V-14.229h2.422v5.508a2.624,2.624,0,0,1,1.27-1.123,4.047,4.047,0,0,1,1.729-.43,4.523,4.523,0,0,1,1.265.166,3.248,3.248,0,0,1,.962.439A2.96,2.96,0,0,1,175.26-9a3.714,3.714,0,0,1,.459.8,5.146,5.146,0,0,1,.269.894,7.445,7.445,0,0,1,.137.889q.034.4.034.84V0h-2.422V-5.654A3.611,3.611,0,0,0,173.3-7.69a1.51,1.51,0,0,0-1.318-.62,2.741,2.741,0,0,0-1.812.688,2.036,2.036,0,0,0-.816,1.587V0Zm18.224,0V-14.219h2.91l2.144,4.775q1.841,4.1,2.827,6.26.752-1.631,1.548-3.423t1.836-4.165q1.04-2.373,1.519-3.447h2.91V0h-2.324V-10.156Q198.006-9.033,193.943,0h-1.826q-.508-1.113-1.426-3.159t-1.68-3.711q-.762-1.665-1.465-3.12V0Zm23.84-1.729a2.343,2.343,0,0,0,2.046-.894,4.021,4.021,0,0,0,.64-2.388A3.877,3.877,0,0,0,211-7.427a2.429,2.429,0,0,0-2.056-.884,2.5,2.5,0,0,0-2.066.889,3.7,3.7,0,0,0-.718,2.393,3.739,3.739,0,0,0,.718,2.4A2.545,2.545,0,0,0,208.993-1.729Zm-.3,1.953A5.231,5.231,0,0,1,206.5-.215a4.138,4.138,0,0,1-1.553-1.172,5.3,5.3,0,0,1-.889-1.631,5.862,5.862,0,0,1-.3-1.885,6.272,6.272,0,0,1,.313-1.987,5.613,5.613,0,0,1,.913-1.709,4.208,4.208,0,0,1,1.587-1.221,5.29,5.29,0,0,1,2.237-.454A3.267,3.267,0,0,1,211.6-8.955V-10.02h2.373V0h-2.432V-1.367A3.324,3.324,0,0,1,208.69.225ZM216.855,0V-6.2q0-1.064-.049-2.017t-.1-1.372l-.049-.43h2.569v1.338a3.309,3.309,0,0,1,1.382-1.187,3.935,3.935,0,0,1,1.675-.405,4.6,4.6,0,0,1,1.524.229,2.992,2.992,0,0,1,1.157.742,3.3,3.3,0,0,1,.767,1.411A7.813,7.813,0,0,1,226-5.713V0h-2.422V-5.879a3.214,3.214,0,0,0-.415-1.88,1.607,1.607,0,0,0-1.372-.552,2.229,2.229,0,0,0-.772.156,3.6,3.6,0,0,0-.816.435,2.278,2.278,0,0,0-.659.732,1.939,1.939,0,0,0-.264.991V0Zm16.7-1.729a2.343,2.343,0,0,0,2.046-.894,4.021,4.021,0,0,0,.64-2.388,3.877,3.877,0,0,0-.679-2.417,2.429,2.429,0,0,0-2.056-.884,2.5,2.5,0,0,0-2.066.889,3.7,3.7,0,0,0-.718,2.393,3.739,3.739,0,0,0,.718,2.4A2.545,2.545,0,0,0,233.556-1.729Zm-.3,1.953a5.231,5.231,0,0,1-2.188-.439,4.138,4.138,0,0,1-1.553-1.172,5.3,5.3,0,0,1-.889-1.631,5.862,5.862,0,0,1-.3-1.885,6.272,6.272,0,0,1,.313-1.987,5.613,5.613,0,0,1,.913-1.709,4.208,4.208,0,0,1,1.587-1.221,5.29,5.29,0,0,1,2.237-.454,3.267,3.267,0,0,1,2.793,1.318V-10.02h2.373V0H236.1V-1.367A3.324,3.324,0,0,1,233.253.225Zm12.736-2.051A2.535,2.535,0,0,0,247-2.017a2,2,0,0,0,.713-.5,2.473,2.473,0,0,0,.444-.737,3.832,3.832,0,0,0,.234-.864,6.389,6.389,0,0,0,.063-.923,4.156,4.156,0,0,0-.61-2.368,2.063,2.063,0,0,0-1.831-.9,2.216,2.216,0,0,0-1.431.474,2.681,2.681,0,0,0-.855,1.2,4.673,4.673,0,0,0-.264,1.611,3.949,3.949,0,0,0,.615,2.354A2.194,2.194,0,0,0,245.989-1.826Zm-.469,5.908a10.936,10.936,0,0,1-3.809-.684l.42-2.09a6.86,6.86,0,0,0,3.213.762,3.562,3.562,0,0,0,2.2-.6,2.13,2.13,0,0,0,.791-1.812v-.85A2.9,2.9,0,0,1,245.823,0a4.758,4.758,0,0,1-3.555-1.362,5.006,5.006,0,0,1-1.338-3.667,6.707,6.707,0,0,1,.283-1.978,5.382,5.382,0,0,1,.84-1.665,3.828,3.828,0,0,1,1.48-1.172,4.932,4.932,0,0,1,2.1-.43,3.415,3.415,0,0,1,1.626.371,2.845,2.845,0,0,1,1.079.957V-10.02h2.569a25.958,25.958,0,0,0-.2,3.359v5.225Q250.716,4.082,245.52,4.082ZM255.579-6.211h4.981a2.745,2.745,0,0,0-.791-1.631,2.139,2.139,0,0,0-1.5-.566,2.639,2.639,0,0,0-1.748.586A2.849,2.849,0,0,0,255.579-6.211ZM258.441.225a5.423,5.423,0,0,1-3.99-1.445A5.083,5.083,0,0,1,252.991-5a5.706,5.706,0,0,1,.352-2,5.367,5.367,0,0,1,.991-1.68,4.522,4.522,0,0,1,1.621-1.162,5.361,5.361,0,0,1,2.173-.43,4.921,4.921,0,0,1,2.08.41,3.434,3.434,0,0,1,1.406,1.147,5.244,5.244,0,0,1,.767,1.655,7.749,7.749,0,0,1,.249,2.031,1.437,1.437,0,0,1-.049.43H255.55a2.834,2.834,0,0,0,.894,2.168,3.336,3.336,0,0,0,2.222.7A5.479,5.479,0,0,0,261.83-2.8l.654,1.758a7.259,7.259,0,0,1-1.909.962A6.982,6.982,0,0,1,258.441.225ZM265.3,0V-7.48q0-.586-.049-1.221t-.1-.977l-.049-.342h2.578V-8.7a5.162,5.162,0,0,1,1.187-1.177,2.342,2.342,0,0,1,1.333-.4,3.962,3.962,0,0,1,1,.146v2.119a3.9,3.9,0,0,0-1.211-.215,2.185,2.185,0,0,0-1.641.654,2.613,2.613,0,0,0-.635,1.895V0Z" transform="translate(-0.117 14.229)" fill="#0080fc"/>
      <g id="Camada_1" data-name="Camada 1" transform="translate(16.79 22.648)">
        <path id="Caminho_3200" data-name="Caminho 3200" d="M.527,555.708A.533.533,0,0,1,0,555.181V545.8a.533.533,0,0,1,.527-.527H3.164c2.187,0,3.164,1.087,3.164,2.761a2.149,2.149,0,0,1-1.5,2.11,2.475,2.475,0,0,1,1.985,2.59,2.837,2.837,0,0,1-3.179,2.978Zm.527-5.878H3.148c1.381,0,2.11-.713,2.11-1.8,0-1.117-.667-1.8-2.11-1.8H1.055Zm0,4.917H3.612a1.871,1.871,0,0,0,2.125-2.016,1.894,1.894,0,0,0-2.125-2H1.055Z" transform="translate(0 -544.665)" fill="#5b5b5b"/>
        <path id="Caminho_3201" data-name="Caminho 3201" d="M131.041,596.965v4.048c0,1.008.326,1.877,1.893,1.877s1.892-.869,1.892-1.877v-4.048a.5.5,0,0,1,.511-.5.486.486,0,0,1,.481.5v4.048c0,1.474-.481,2.823-2.884,2.823s-2.885-1.349-2.885-2.823v-4.048a.489.489,0,0,1,.5-.5A.5.5,0,0,1,131.041,596.965Z" transform="translate(-121.736 -592.591)" fill="#5b5b5b"/>
        <path id="Caminho_3202" data-name="Caminho 3202" d="M247.72,555.36c0-.448.217-.62.589-.62s.589.17.589.62a.589.589,0,0,1-1.179,0Z" transform="translate(-231.884 -553.53)" fill="#66b3ff"/>
        <path id="Caminho_3203" data-name="Caminho 3203" d="M297.233,536.306v8.857c0,.62.2.884.621.884a.465.465,0,1,1,0,.93c-1.039,0-1.614-.62-1.614-1.814v-8.857a.511.511,0,0,1,.5-.5A.5.5,0,0,1,297.233,536.306Z" transform="translate(-277.302 -535.81)" fill="#5b5b5b"/>
        <path id="Caminho_3204" data-name="Caminho 3204" d="M347.327,540.6v-4.3a.5.5,0,1,1,.992,0V544a2.8,2.8,0,0,1-3.04,3.056c-2,0-3.18-1.195-3.18-3.738s1.117-3.723,3.118-3.723A2.627,2.627,0,0,1,347.327,540.6Zm0,1.257a2.35,2.35,0,0,0-2.046-1.365c-1.411,0-2.187.915-2.187,2.823,0,1.939.76,2.838,2.187,2.838A1.914,1.914,0,0,0,347.327,544Z" transform="translate(-320.231 -535.81)" fill="#5b5b5b"/>
        <path id="Caminho_3205" data-name="Caminho 3205" d="M466.808,595a2.8,2.8,0,0,1,2.963,3.025c0,.447,0,.992-.621.992h-4.529a2.27,2.27,0,0,0,2.342,2.528,2.861,2.861,0,0,0,1.862-.667.432.432,0,0,1,.279-.093.448.448,0,0,1,.448.448.464.464,0,0,1-.171.357,3.454,3.454,0,0,1-2.42.869c-2.063,0-3.35-1.132-3.35-3.738C463.613,596.335,464.791,595,466.808,595Zm0,.9a2.11,2.11,0,0,0-2.187,2.25h4.172c0-1.116-.387-2.249-1.986-2.249Z" transform="translate(-433.973 -591.216)" fill="#5b5b5b"/>
        <path id="Caminho_3206" data-name="Caminho 3206" d="M584.983,596.741a2.242,2.242,0,0,1,2.156-1.241.481.481,0,0,1,0,.959c-1.427,0-2.156.993-2.156,2.42v3.474a.5.5,0,0,1-.993,0v-6.295a.5.5,0,0,1,.993,0Z" transform="translate(-546.658 -591.684)" fill="#5b5b5b"/>
        <path id="Caminho_3207" data-name="Caminho 3207" d="M650.329,596.769a.505.505,0,0,1-.4.217.447.447,0,0,1-.448-.447.48.48,0,0,1,.077-.263,2.885,2.885,0,0,1,2.575-1.225,2.505,2.505,0,0,1,2.792,2.637v4.264a.481.481,0,0,1-.959,0v-.558a2.461,2.461,0,0,1-2.218,1.117c-1.644,0-2.685-.791-2.685-2.218,0-1.365,1.039-2.187,2.714-2.187h2.187v-.419a1.641,1.641,0,0,0-1.83-1.706A2.145,2.145,0,0,0,650.329,596.769Zm3.63,2.854v-.651h-2.187c-1.008,0-1.706.419-1.706,1.318,0,.807.558,1.318,1.768,1.318A1.972,1.972,0,0,0,653.959,599.623Z" transform="translate(-607.568 -591.263)" fill="#66b3ff"/>
        <path id="Caminho_3208" data-name="Caminho 3208" d="M770.833,536.306v8.857c0,.62.2.884.621.884a.465.465,0,1,1,0,.93c-1.039,0-1.613-.62-1.613-1.814v-8.857a.511.511,0,0,1,.5-.5A.5.5,0,0,1,770.833,536.306Z" transform="translate(-720.627 -535.81)" fill="#66b3ff"/>
        <path id="Caminho_3209" data-name="Caminho 3209" d="M823.992,536.306v8.857c0,.62.2.884.62.884a.465.465,0,1,1,0,.93c-1.036,0-1.612-.62-1.612-1.814v-8.857a.511.511,0,0,1,.5-.5A.5.5,0,0,1,823.992,536.306Z" transform="translate(-770.389 -535.81)" fill="#66b3ff"/>
        <path id="Caminho_3210" data-name="Caminho 3210" d="M250.172,603.263a.5.5,0,1,1-.992,0v-6.3a.5.5,0,1,1,.992,0Z" transform="translate(-233.251 -592.592)" fill="#5b5b5b"/>
      </g>
      <path id="Caminho_3288" data-name="Caminho 3288" d="M3.213-.864A1.26,1.26,0,0,0,3.806-1a1.044,1.044,0,0,0,.405-.369,1.848,1.848,0,0,0,.225-.518,2.357,2.357,0,0,0,.076-.61,2.057,2.057,0,0,0-.322-1.191,1.066,1.066,0,0,0-.937-.469,1.231,1.231,0,0,0-1.016.471A1.816,1.816,0,0,0,1.86-2.515,2.178,2.178,0,0,0,2-1.707a1.392,1.392,0,0,0,.457.6A1.2,1.2,0,0,0,3.213-.864Zm.225.977A1.934,1.934,0,0,1,2.522-.1,1.468,1.468,0,0,1,1.929-.62V0H.688Q.7-.332.708-.591T.723-.959q0-.11.007-.19t0-.11V-7.114h1.2v2.808a.68.68,0,0,1,.122-.215,1.681,1.681,0,0,1,.276-.271,1.517,1.517,0,0,1,.488-.244,2.207,2.207,0,0,1,.681-.1,2.058,2.058,0,0,1,1.665.728,2.826,2.826,0,0,1,.61,1.88,3.017,3.017,0,0,1-.188,1.074,2.53,2.53,0,0,1-.505.84,2.294,2.294,0,0,1-.745.535A2.165,2.165,0,0,1,3.438.112ZM7.544,2.173l-.508-.82A3.768,3.768,0,0,0,8.054.808,1.371,1.371,0,0,0,8.511.132l.068-.244L6.45-5.01H7.71L9.16-1.416,10.41-5.01h1.235L9.614.273a3.292,3.292,0,0,1-.552.916,3,3,0,0,1-.713.623A3.684,3.684,0,0,1,7.544,2.173Z" transform="translate(-0.688 32.648)" fill="#434343" opacity="0.447"/>
    </g>
    <g id="Grupo_4460" data-name="Grupo 4460" transform="translate(86.617 10.198)">
      <g id="Grupo_4484" data-name="Grupo 4484">
        <path id="Caminho_3281" data-name="Caminho 3281" d="M205.564,185.965a17.091,17.091,0,0,0-23.931.248,16.2,16.2,0,0,0-2.028,20.4c-1.065,2.482-2.155,4.963-3.22,7.445-.254.571.177,1.489.938,1.191,2.789-1.042,5.577-2.085,8.34-3.152a17.035,17.035,0,0,0,21.954-5.137A16.357,16.357,0,0,0,205.564,185.965Z" transform="translate(-176.313 -181.2)" fill="url(#linear-gradient)"/>
        <path id="Caminho_3282" data-name="Caminho 3282" d="M227.4,224" transform="translate(-214.449 -213.378)" fill="#fff"/>
        <path id="Caminho_3283" data-name="Caminho 3283" d="M228.983,227.918c-.025-.051-.051-.127-.076-.177a.89.89,0,0,0-.127-.2,6.445,6.445,0,0,0-2.129-1.166c-.659-.33-1.546-.913-2.307-.735-.482.1-.71.456-.989.837-.152.177-.3.38-.456.558a2.97,2.97,0,0,0-.38.406h0a2.556,2.556,0,0,0-.38-.177,9.747,9.747,0,0,1-1.242-.684,9.558,9.558,0,0,1-2.56-2.586c-.051-.1-.127-.2-.177-.3.025,0,.025-.025.051-.025a1.746,1.746,0,0,0,.279-.33,2.77,2.77,0,0,0,.811-1.6,6.9,6.9,0,0,0-.811-2.256c-.33-.786-.583-1.977-1.521-2.231a2.923,2.923,0,0,0-2.814.634,4.95,4.95,0,0,0-1.242,1.952c-.735,2.053.152,4.132,1.318,5.78a22.136,22.136,0,0,0,2.282,2.814,14.639,14.639,0,0,0,5.679,3.5,6.039,6.039,0,0,0,3.448.456h0c.1-.025.2-.025.3-.051a4.6,4.6,0,0,0,.761-.279,4.654,4.654,0,0,0,1.445-.963A3.529,3.529,0,0,0,228.983,227.918Zm-10.876-4.208c-.025.076-.1.076,0,0Z" transform="translate(-203.432 -208.36)" fill="url(#linear-gradient-2)"/>
      </g>
      <g id="Grupo_4485" data-name="Grupo 4485" transform="translate(21.875 21.956)">
        <path id="Caminho_3284" data-name="Caminho 3284" d="M262.6,282.285v-2.941a3.787,3.787,0,0,1,1.7-3.3,3.143,3.143,0,0,1,1.217-.482,2.535,2.535,0,0,1-1.775-2.383,2.485,2.485,0,0,1,4.969-.076v.2a2.6,2.6,0,0,1-1.775,2.307,3.821,3.821,0,0,1,1.673.811,3.967,3.967,0,0,1,1.242,3.245v2.662a.377.377,0,0,1-.152.33.438.438,0,0,1-.33.127h-6.312A.519.519,0,0,1,262.6,282.285Z" transform="translate(-262.6 -270.7)" fill="url(#linear-gradient-3)"/>
        <path id="Caminho_3285" data-name="Caminho 3285" d="M278.5,285.885v-2.941a3.787,3.787,0,0,1,1.7-3.3,3.143,3.143,0,0,1,1.217-.482,2.535,2.535,0,0,1-1.775-2.383,2.485,2.485,0,0,1,4.969-.076v.2a2.6,2.6,0,0,1-1.775,2.307,3.821,3.821,0,0,1,1.673.811,3.967,3.967,0,0,1,1.242,3.245v2.662a.377.377,0,0,1-.152.33.438.438,0,0,1-.33.127h-6.312A.565.565,0,0,1,278.5,285.885Z" transform="translate(-274.469 -273.387)" fill="url(#linear-gradient-4)"/>
        <path id="Caminho_3286" data-name="Caminho 3286" d="M295,289.985v-2.941a3.787,3.787,0,0,1,1.7-3.3,3.143,3.143,0,0,1,1.217-.482,2.534,2.534,0,0,1-1.775-2.383,2.485,2.485,0,0,1,4.969-.076v.2a2.6,2.6,0,0,1-1.775,2.307,3.822,3.822,0,0,1,1.673.811,3.967,3.967,0,0,1,1.242,3.245v2.662a.377.377,0,0,1-.152.33.438.438,0,0,1-.33.127h-6.312A.542.542,0,0,1,295,289.985Z" transform="translate(-286.786 -276.448)" fill="url(#linear-gradient-5)"/>
      </g>
    </g>
  </g>
</svg>
