<svg xmlns="http://www.w3.org/2000/svg" xmlns:xlink="http://www.w3.org/1999/xlink" width="316" height="36" viewBox="0 0 316 36">
  <defs>
    <linearGradient id="linear-gradient" x1="0.175" y1="0.115" x2="0.667" y2="0.952" gradientUnits="objectBoundingBox">
      <stop offset="0" stop-color="#0baeff"/>
      <stop offset="0.081" stop-color="#1ea2f7"/>
      <stop offset="0.289" stop-color="#4985e4"/>
      <stop offset="0.491" stop-color="#6c6ed5"/>
      <stop offset="0.681" stop-color="#845ecb"/>
      <stop offset="0.856" stop-color="#9354c4"/>
      <stop offset="1" stop-color="#9851c2"/>
    </linearGradient>
    <linearGradient id="linear-gradient-2" x1="0.193" y1="-0.02" x2="0.76" y2="1.032" gradientUnits="objectBoundingBox">
      <stop offset="0" stop-color="#00f2ff"/>
      <stop offset="0.994" stop-color="#476bff"/>
    </linearGradient>
    <linearGradient id="linear-gradient-3" x1="0.013" y1="0.137" x2="0.87" y2="1.027" xlink:href="#linear-gradient-2"/>
    <linearGradient id="linear-gradient-4" x1="0.015" y1="0.136" x2="0.872" y2="1.026" xlink:href="#linear-gradient-2"/>
    <linearGradient id="linear-gradient-5" x1="0.016" y1="0.136" x2="0.873" y2="1.027" xlink:href="#linear-gradient-2"/>
  </defs>
  <g id="Logo_5.0_-_By_WhatsApp_Launch_Manager" data-name="Logo 5.0 - (By) WhatsApp Launch Manager" transform="translate(-86.617 -10.198)">
    <g id="Grupo_4460" data-name="Grupo 4460" transform="translate(86.617 10.198)">
      <g id="Grupo_4484" data-name="Grupo 4484">
        <path id="Caminho_3281" data-name="Caminho 3281" d="M205.564,185.965a17.091,17.091,0,0,0-23.931.248,16.2,16.2,0,0,0-2.028,20.4c-1.065,2.482-2.155,4.963-3.22,7.445-.254.571.177,1.489.938,1.191,2.789-1.042,5.577-2.085,8.34-3.152a17.035,17.035,0,0,0,21.954-5.137A16.357,16.357,0,0,0,205.564,185.965Z" transform="translate(-176.313 -181.2)" fill="url(#linear-gradient)"/>
        <path id="Caminho_3282" data-name="Caminho 3282" d="M227.4,224" transform="translate(-214.449 -213.378)" fill="#fff"/>
        <path id="Caminho_3283" data-name="Caminho 3283" d="M228.983,227.918c-.025-.051-.051-.127-.076-.177a.89.89,0,0,0-.127-.2,6.445,6.445,0,0,0-2.129-1.166c-.659-.33-1.546-.913-2.307-.735-.482.1-.71.456-.989.837-.152.177-.3.38-.456.558a2.97,2.97,0,0,0-.38.406h0a2.556,2.556,0,0,0-.38-.177,9.747,9.747,0,0,1-1.242-.684,9.558,9.558,0,0,1-2.56-2.586c-.051-.1-.127-.2-.177-.3.025,0,.025-.025.051-.025a1.746,1.746,0,0,0,.279-.33,2.77,2.77,0,0,0,.811-1.6,6.9,6.9,0,0,0-.811-2.256c-.33-.786-.583-1.977-1.521-2.231a2.923,2.923,0,0,0-2.814.634,4.95,4.95,0,0,0-1.242,1.952c-.735,2.053.152,4.132,1.318,5.78a22.136,22.136,0,0,0,2.282,2.814,14.639,14.639,0,0,0,5.679,3.5,6.039,6.039,0,0,0,3.448.456h0c.1-.025.2-.025.3-.051a4.6,4.6,0,0,0,.761-.279,4.654,4.654,0,0,0,1.445-.963A3.529,3.529,0,0,0,228.983,227.918Zm-10.876-4.208c-.025.076-.1.076,0,0Z" transform="translate(-203.432 -208.36)" fill="url(#linear-gradient-2)"/>
      </g>
      <g id="Grupo_4485" data-name="Grupo 4485" transform="translate(21.875 21.956)">
        <path id="Caminho_3284" data-name="Caminho 3284" d="M262.6,282.285v-2.941a3.787,3.787,0,0,1,1.7-3.3,3.143,3.143,0,0,1,1.217-.482,2.535,2.535,0,0,1-1.775-2.383,2.485,2.485,0,0,1,4.969-.076v.2a2.6,2.6,0,0,1-1.775,2.307,3.821,3.821,0,0,1,1.673.811,3.967,3.967,0,0,1,1.242,3.245v2.662a.377.377,0,0,1-.152.33.438.438,0,0,1-.33.127h-6.312A.519.519,0,0,1,262.6,282.285Z" transform="translate(-262.6 -270.7)" fill="url(#linear-gradient-3)"/>
        <path id="Caminho_3285" data-name="Caminho 3285" d="M278.5,285.885v-2.941a3.787,3.787,0,0,1,1.7-3.3,3.143,3.143,0,0,1,1.217-.482,2.535,2.535,0,0,1-1.775-2.383,2.485,2.485,0,0,1,4.969-.076v.2a2.6,2.6,0,0,1-1.775,2.307,3.821,3.821,0,0,1,1.673.811,3.967,3.967,0,0,1,1.242,3.245v2.662a.377.377,0,0,1-.152.33.438.438,0,0,1-.33.127h-6.312A.565.565,0,0,1,278.5,285.885Z" transform="translate(-274.469 -273.387)" fill="url(#linear-gradient-4)"/>
        <path id="Caminho_3286" data-name="Caminho 3286" d="M295,289.985v-2.941a3.787,3.787,0,0,1,1.7-3.3,3.143,3.143,0,0,1,1.217-.482,2.534,2.534,0,0,1-1.775-2.383,2.485,2.485,0,0,1,4.969-.076v.2a2.6,2.6,0,0,1-1.775,2.307,3.822,3.822,0,0,1,1.673.811,3.967,3.967,0,0,1,1.242,3.245v2.662a.377.377,0,0,1-.152.33.438.438,0,0,1-.33.127h-6.312A.542.542,0,0,1,295,289.985Z" transform="translate(-286.786 -276.448)" fill="url(#linear-gradient-5)"/>
      </g>
    </g>
  </g>
</svg>
