<svg xmlns="http://www.w3.org/2000/svg" width="17.842" height="19.834" viewBox="0 0 17.842 19.834">
  <path id="support" d="M22.451,11.013a15.254,15.254,0,0,1-.878-1.559A7.575,7.575,0,0,0,14.425,3.98v6.342a2.217,2.217,0,0,1,0,4.187v.385a1.489,1.489,0,0,0,1.487,1.487h1.244a1.239,1.239,0,1,1,0,1.487H15.912a2.977,2.977,0,0,1-2.974-2.974v-.385a2.217,2.217,0,0,1,0-4.187V4.05C8.8,4.532,6,7.425,6,11.424a8.287,8.287,0,0,0,1.346,4.757c.8,1.392,1.628,2.832,1.628,6.89a.743.743,0,0,0,.743.743h7.93a.743.743,0,0,0,.743-.743v-2a.248.248,0,0,1,.248-.248A3.225,3.225,0,0,0,21.86,17.6V15.445c1.982-.648,1.982-1.244,1.982-1.543C23.842,13.373,23.418,12.616,22.451,11.013Z" transform="translate(-6 -3.98)" fill="#a5b9d5"/>
</svg>
