<svg xmlns="http://www.w3.org/2000/svg" width="521.729" height="403.859" viewBox="0 0 521.729 403.859">
  <g id="Trying_to_connect_to_synced_cell_phone" data-name="Trying to connect to synced cell phone" transform="translate(-897.571 -347.674)">
    <path id="Caminho_5615" data-name="Caminho 5615" d="M949.664,808.019h499s0-59.038-40.224-59.038c-31.528,0-15.22-93.5-70.665-93.5s-23.3-164.527-97.534-164.527-72.993,90.8-72.993,111.257-66.087,8.7-66.087,53.27-67.944,17.388-67.944,67.944S949.664,722.464,949.664,808.019Z" transform="translate(-29.368 -80.779)" fill="#e2d7d2"/>
    <ellipse id="Elipse_457" data-name="Elipse 457" cx="44.085" cy="8.626" rx="44.085" ry="8.626" transform="translate(982.048 734.281)" fill="#f9f1ed"/>
    <ellipse id="Elipse_458" data-name="Elipse 458" cx="44.085" cy="8.626" rx="44.085" ry="8.626" transform="translate(1228.99 734.281)" fill="#f9f1ed"/>
    <path id="Caminho_5616" data-name="Caminho 5616" d="M958.254,831.442l-8.4,2.644,3.185-14.495a225.666,225.666,0,0,0-11.175-20.557c-4.024,1.6-8.311,3.2-8.311,3.2l2.145-12.755c-18.916-27.84-38.123-43.692-38.123-43.692a237.4,237.4,0,0,1,19.271,58.468l6.6,2.023-5.715,2.994a176.742,176.742,0,0,1,2.424,33.106c-1.319,50.287,35.674,109.3,35.674,109.3h8.962C978.18,905.321,971.557,864.372,958.254,831.442Z" transform="translate(0 -224.444)" fill="#f9a17a"/>
    <path id="Caminho_5617" data-name="Caminho 5617" d="M1035.232,771.592l14.668-3.814-8.687-8.115c.658-1.128,1.331-2.248,2.035-3.352,4.193-6.58,7.89-12.743,11.154-18.5l13.819,1.11-7.445-12.886c19.388-37.66,18.025-54.42,18.025-54.42s10.086,26.122,11.187,68.1l-9.918,4.6,10.007,5.149a291.434,291.434,0,0,1-1.756,29.518l-17.131,5.032a74.605,74.605,0,0,0,14.109,15.664c-6.009,33.092-18.505,70.628-42.052,110.19h-9.28S1010.1,830.345,1035.232,771.592Z" transform="translate(-71.122 -182.625)" fill="#fcb490"/>
    <path id="Caminho_5618" data-name="Caminho 5618" d="M977.238,1165.862s-9.411-17.266-5.228-15.523,8.017,9.411,8.017,9.411-8.365-21.437-6.8-23.18S982.99,1154,982.99,1154s-4.183-11.328-1.917-12.723,6.8,11.328,6.8,11.328-8.4-23.286-3.069-26.719,15.966,39.976,15.966,39.976Z" transform="translate(-41.362 -438.622)" fill="#fcc5b1"/>
    <path id="Caminho_5619" data-name="Caminho 5619" d="M1111.565,1198.16s6.012-12.909,0-15-20.452,15-20.452,15Z" transform="translate(-109.113 -470.92)" fill="#f98f7a"/>
    <path id="Caminho_5620" data-name="Caminho 5620" d="M1052.038,947.312l5.884,1.851-2.23-10.148a157.913,157.913,0,0,1,7.823-14.391c2.817,1.12,5.819,2.241,5.819,2.241l-1.5-8.93c13.243-19.49,26.689-30.588,26.689-30.588a166.2,166.2,0,0,0-13.492,40.932l-4.62,1.416,4,2.1a123.76,123.76,0,0,0-1.7,23.177c.923,35.2-24.974,76.522-24.974,76.522h-6.274C1038.088,999.033,1042.724,970.365,1052.038,947.312Z" transform="translate(-81.612 -304.251)" fill="#fca17a"/>
    <path id="Caminho_5621" data-name="Caminho 5621" d="M1041.592,1095.007s-9.063-95-11.851-95,8.714,95,8.714,95Z" transform="translate(-74.267 -367.767)" fill="#fcc5b1"/>
    <path id="Caminho_5622" data-name="Caminho 5622" d="M1047.522,1086.22s-2.614-101.27-6.274-101.792,3.137,101.792,3.137,101.792Z" transform="translate(-80.39 -358.98)" fill="#f9b7a2"/>
    <path id="Caminho_5623" data-name="Caminho 5623" d="M1047.487,1095.007s5.751-95,9.15-95-6.274,95-6.274,95Z" transform="translate(-84.518 -367.767)" fill="#f9b7a2"/>
    <path id="Caminho_5624" data-name="Caminho 5624" d="M1058.972,1086.22s-2.614-101.27-6.274-101.792,3.137,101.792,3.137,101.792Z" transform="translate(-86.846 -358.98)" fill="#fcc5b1"/>
    <path id="Caminho_5625" data-name="Caminho 5625" d="M1058.937,1095.007s5.751-95,9.15-95-6.274,95-6.274,95Z" transform="translate(-90.973 -367.767)" fill="#fcc5b1"/>
    <path id="Caminho_5626" data-name="Caminho 5626" d="M1067.543,1006.3c1.282-5.853-3.025-7.236-5.519-7.552,1.361-4.295,2.858-8.381,4.462-12.266,2.529,2.587,6.239,4.788,8.573-1.073,2.8-7.045-.355-10.856-2.22-12.379a144.011,144.011,0,0,1,10.494-16.747c2.593,3.032,6.66,6.571,9.56,3.319,3.65-4.092.249-11-1.282-13.641,13.15-14.884,24.7-21.461,24.7-21.461a159.4,159.4,0,0,1-1.014,29.683c-2.575,1.306-5.921,3.671-6.175,7.223-.22,3.079,1.877,4.917,3.9,5.968a158.78,158.78,0,0,1-5.838,20.3c-2.129-.666-8.588-2.335-9.859,1.477-.952,2.857,2.578,6.968,5.369,9.656-15.416,34.525-38.147,53.622-38.147,53.622H1054.1a182.3,182.3,0,0,1,4.764-42.251C1062.308,1010.986,1066.531,1010.923,1067.543,1006.3Z" transform="translate(-88.244 -325.198)" fill="#f77d69"/>
    <path id="Caminho_5627" data-name="Caminho 5627" d="M1098.114,1023.626l2.923,4.1v-8.073a70.36,70.36,0,0,1,10.492-11.226,34.916,34.916,0,0,0,3.844-3.786l7.455,4.552v-15.04c2.2-3.679,4.308-7.694,6.288-11.829l7.4,6.152-2.567-16.992a342.839,342.839,0,0,0,11.567-32.6,120.142,120.142,0,0,1,5.732,39.323l-4.715,2.548,4.373,3.882a91.893,91.893,0,0,1-4.755,22.825l-4.362,2.184,2.771,1.985a78.065,78.065,0,0,1-6.953,13.143l-5.416-1.03.625,7.538c-9.55,11.646-23.662,22.006-44.242,29.261h-10.5S1086.376,1040.3,1098.114,1023.626Z" transform="translate(-101.759 -333.306)" fill="#fcc5b1"/>
    <path id="Caminho_5628" data-name="Caminho 5628" d="M995.392,1038.62l-2.947-2.125c-1.591-7.557-2.823-15.017-3.778-22.045l2.771-.742-3.295-3.283a353.376,353.376,0,0,1-2.763-39.179s.7,11.5,20.826,32.765a32.589,32.589,0,0,1,2.71,3.278c-.989,3.265-2.7,8.5-2.7,8.5l8.052,1.553a72.82,72.82,0,0,1,3.38,11.755l-7.422,4.383,9.081,6.828c.391,3.98.59,7.919.66,11.674l-5.692.437,5.691,6.119a177.593,177.593,0,0,1-1.472,20.253h-12.287c-5.782-11.761-9.957-25.281-12.974-38.676Z" transform="translate(-49.504 -351.55)" fill="#f98f7a"/>
    <path id="Caminho_5629" data-name="Caminho 5629" d="M1968.563,1047.6l2.848,2.977a24.767,24.767,0,0,0,10.675-1.88l-5.1-5.233,7.628,3.907c.5-.308.995-.633,1.479-1a53,53,0,0,1,4.537-3.049l-3.995-4.3,7.778,2.255c6.64-3.193,11.061-3.25,11.061-3.25a48.61,48.61,0,0,0-14.882-7.939l-3.957,5.094.831-5.931a28.848,28.848,0,0,0-10.2-.508l-1.352,6.439v-6.209a24.643,24.643,0,0,0-9.8,4.309v4.166l-1.4-3.078a38.014,38.014,0,0,0-8.246,9.85l3.3,3.992a36.135,36.135,0,0,0,9.766,2.253Z" transform="translate(-596.97 -383.829)" fill="#f98f7a"/>
    <path id="Caminho_5630" data-name="Caminho 5630" d="M1964.385,756.89s10.782,0,19.57.006a31.052,31.052,0,0,0,1.259-4.406c1.809-8.992,1.514-18.8.583-28.58-5.931-1.592-11.88-3.368-11.88-3.368l10.808-6.243c-2.138-17.335-4.781-33.7.489-44.239a61.639,61.639,0,0,0-29.273,11.63l3.5,13.788-12.042-6.145a64.184,64.184,0,0,0-12.581,20.4c-.994,2.545-1.89,5.123-2.712,7.713l9.331,8.743-11.572-.877a188.136,188.136,0,0,0-5.263,35.906c4.131,1.3,7.483,2.391,7.483,2.391l-7.739,4.221a192.287,192.287,0,0,0,.675,22.962l9.8,4.589s21.237-7.039,36.3-20.594Z" transform="translate(-578.827 -181.751)" fill="#fcb490"/>
    <path id="Caminho_5631" data-name="Caminho 5631" d="M1799.894,1028.23l-1.211,1.866v-3.275a55.517,55.517,0,0,0-7.275-6.741l-2.528,3.964-.353-6.071a68.408,68.408,0,0,0-7.463-4.462l-1.834,3.04V1012.6a61.1,61.1,0,0,0-9.994-3.859,43.336,43.336,0,0,0,5.012,14.054l4.982.65-3.811,1.255a36.78,36.78,0,0,0,6.191,7.205l6.712-1.809-3.445,4.431a40.979,40.979,0,0,0,5.727,3.416l1.8-1.481-.577,2.063a43.916,43.916,0,0,0,14.483,3.862l1.1-1.595A46.107,46.107,0,0,0,1799.894,1028.23Z" transform="translate(-491.418 -372.688)" fill="#fca17a"/>
    <path id="Caminho_5632" data-name="Caminho 5632" d="M1726.111,923.961c-.894,2.941-1.641,5.3-1.754,5.356a69.74,69.74,0,0,1-2.527-7.121,60.681,60.681,0,0,0-13.661-3.354l-1.77,9.4-4.42-9.841a62.684,62.684,0,0,0-13.123,1.149l2.111,9.764-8.717-8.139a74.9,74.9,0,0,0-11.312,4.428l.884,3.711-2.692-2.8a65.793,65.793,0,0,0-11.355,7.3c2.64,2.047,5.237,3.869,7.791,5.506l6.256-3.42-3.2,5.3a82.386,82.386,0,0,0,10.792,5.362l8.948-4.234-1.716,6.735a62.08,62.08,0,0,0,12.331,2.228l6.079-6.513-1.354,6.681a56.487,56.487,0,0,0,11.812-1.317l8.84-9.5-1.386,7.315a50.058,50.058,0,0,0,14.957-8.394l3.13-6.5A75.07,75.07,0,0,0,1726.111,923.961Z" transform="translate(-428.58 -321.753)" fill="#fcb490"/>
    <path id="Caminho_5633" data-name="Caminho 5633" d="M1855.111,1069.049s-10.568-46.847-13.785-58.564-13.554-54.679-13.554-54.679l-19.3-1.838h20.677s12.176,52.151,13.554,54.909,19.069,60.172,19.069,60.172Z" transform="translate(-513.538 -341.809)" fill="#fc9c72"/>
    <path id="Caminho_5634" data-name="Caminho 5634" d="M1933.817,1123.383l6.892-64.078,25.731-8.96s-23.2,9.419-23.433,10.109-1.149,62.93-1.149,62.93Z" transform="translate(-584.203 -396.143)" fill="#f77d69"/>
    <path id="Caminho_5635" data-name="Caminho 5635" d="M1926.97,985.665c0-1.368,1.608-112.554,1.608-112.554l34.13-67.048L1931.335,873.8l4.135,111.865Z" transform="translate(-580.343 -258.425)" fill="#f9a17a"/>
    <path id="Caminho_5636" data-name="Caminho 5636" d="M1862.725,1123.383s-7.375-43.139-9.42-43.412-33.772-29.627-33.772-29.627l33.772,32.67,6.865,40.368Z" transform="translate(-519.773 -396.143)" fill="#f78d69"/>
    <path id="Caminho_5637" data-name="Caminho 5637" d="M1898.972,1037.28s5.744-45.335-29.407-139.664c0,0,23.433,63.766,23.893,139.664Z" transform="translate(-547.979 -310.04)" fill="#fcc5b1"/>
    <path id="Caminho_5638" data-name="Caminho 5638" d="M1929.968,1105.569s-3.906-59.713,9.419-86.823c0,0-9.953,27.8-4.976,86.823Z" transform="translate(-581.732 -378.329)" fill="#f9ad95"/>
    <path id="Caminho_5639" data-name="Caminho 5639" d="M1910.937,1123.383s-3.906-56.956-12.406-73.038c0,0,6.548,23.538,8.73,73.038Z" transform="translate(-564.31 -396.143)" fill="#f9b7a2"/>
    <path id="Caminho_5640" data-name="Caminho 5640" d="M1911.537,1156.044s-.571-34.441-7.867-47.767c0,0,3.961,11.219,5.11,47.767Z" transform="translate(-567.207 -428.804)" fill="#fcc5b1"/>
    <path id="Caminho_5641" data-name="Caminho 5641" d="M1936.976,1151s3.906-39.266,6.663-51.672L1938.662,1151Z" transform="translate(-585.984 -423.756)" fill="#fcc5b1"/>
    <path id="Caminho_5642" data-name="Caminho 5642" d="M1894.2,1143.412l-18.839-57.541,16.284,57.541Z" transform="translate(-551.246 -416.172)" fill="#f9ad95"/>
    <path id="Caminho_5643" data-name="Caminho 5643" d="M1896.382,1172.374s-7.812-27.549-14.7-35.131c0,0,7.352,12.081,11.717,35.131Z" transform="translate(-554.809 -445.134)" fill="#f9ad95"/>
    <rect id="Retângulo_1437" data-name="Retângulo 1437" width="201.792" height="379.565" rx="15" transform="translate(1045.556 347.674)" fill="#fc8856"/>
    <path id="Caminho_5644" data-name="Caminho 5644" d="M1438.619,381.01V720.749a9.518,9.518,0,0,1-9.518,9.527H1268.465a9.518,9.518,0,0,1-9.518-9.527V381.01a9.5,9.5,0,0,1,9.518-9.527H1429.1A9.518,9.518,0,0,1,1438.619,381.01Z" transform="translate(-203.732 -13.423)" fill="#e4edeb"/>
    <path id="Caminho_5645" data-name="Caminho 5645" d="M1459.049,371.483l-7.933,12.366a6.723,6.723,0,0,1-5.707,2.9H1410.8a7.338,7.338,0,0,1-1.282-.11,6.492,6.492,0,0,1-4.424-2.794l-1.109-1.731-6.824-10.635Z" transform="translate(-281.654 -13.423)" fill="#fc8856"/>
    <circle id="Elipse_459" data-name="Elipse 459" cx="3.158" cy="3.158" r="3.158" transform="translate(1127.994 362.535)" fill="#e4edeb"/>
    <rect id="Retângulo_1438" data-name="Retângulo 1438" width="6.845" height="6.316" rx="2.871" transform="translate(1137.883 362.535)" fill="#485a8c"/>
    <rect id="Retângulo_1439" data-name="Retângulo 1439" width="15.895" height="6.316" rx="2.871" transform="translate(1146.066 362.535)" fill="#e4edeb"/>
    <circle id="Elipse_460" data-name="Elipse 460" cx="68.871" cy="68.871" r="68.871" transform="translate(1077.581 436.736)" fill="#8b8bf2"/>
    <circle id="Elipse_461" data-name="Elipse 461" cx="60.932" cy="60.932" r="60.932" transform="translate(1085.52 444.675)" fill="#e4edeb"/>
    <rect id="Retângulo_1440" data-name="Retângulo 1440" width="146.511" height="5.124" rx="2.562" transform="translate(1071.795 705.233)" fill="#caddda"/>
    <path id="Caminho_5646" data-name="Caminho 5646" d="M1405.878,636.541c19.37.939,35.449,10.268,46.065,28.716.88,1.53,1.881,3.037,1.628,4.919a5.09,5.09,0,0,1-4.4,4.414,4.862,4.862,0,0,1-5.234-2.816,44.809,44.809,0,0,0-9.349-12.729,42.862,42.862,0,0,0-24.412-11.717c-12.711-1.638-24.179,1.408-34.232,9.461a46.2,46.2,0,0,0-11.821,14.685,4.937,4.937,0,0,1-8.5.877c-1.454-1.735-1.347-3.624-.408-5.533a52.684,52.684,0,0,1,11.578-15.509,54.072,54.072,0,0,1,26.508-13.637A64.929,64.929,0,0,1,1405.878,636.541Z" transform="translate(-257.611 -162.854)" fill="#9797f7"/>
    <path id="Caminho_5647" data-name="Caminho 5647" d="M1421.771,682.144q23.4.916,35.084,21.26a5.093,5.093,0,1,1-9,4.769,29.321,29.321,0,0,0-15.758-13.884,29.647,29.647,0,0,0-35.766,12.374c-.37.625-.717,1.264-1.108,1.875a5.1,5.1,0,0,1-6.815,1.753,4.954,4.954,0,0,1-1.991-6.724c6.642-11.907,16.6-19.1,30.193-21.07A46.663,46.663,0,0,1,1421.771,682.144Z" transform="translate(-275.25 -188.563)" fill="#7d7dea"/>
    <path id="Caminho_5648" data-name="Caminho 5648" d="M1442.493,737.918a9.675,9.675,0,0,0-9.009,6.509c-.188.538-.335,1.092-.549,1.619a5.084,5.084,0,0,1-9.713-2.916c1.574-7.989,9.216-14.535,17.542-15.322a20.138,20.138,0,0,1,21.108,14.343c1.166,4.036-1.806,7.491-5.868,6.755-2.255-.409-3.383-2.01-4.035-4.072a9.359,9.359,0,0,0-7.169-6.631A19.576,19.576,0,0,0,1442.493,737.918Z" transform="translate(-296.285 -214.256)" fill="#7070e5"/>
    <path id="Caminho_5649" data-name="Caminho 5649" d="M1737.524,1214.346s3.883,15.531,4.326,16.529-4.659.776-6.989-1.775a53.326,53.326,0,0,1-4.327-5.547l2.662-10.983Z" transform="translate(-469.599 -487.601)" fill="#fc8856"/>
    <path id="Caminho_5650" data-name="Caminho 5650" d="M1742.02,1221.1s6.656,6.93,6.767,7.6-4.1,1.109-5.325,0-3.772-4.216-3.772-4.216Z" transform="translate(-474.76 -492.409)" fill="#fc8856"/>
    <path id="Caminho_5651" data-name="Caminho 5651" d="M1776.629,882.739s-11.537,79.541-11.87,82.758-9.331,42.377-9.331,42.377l1.233-64.786,3.217-55.135Z" transform="translate(-483.633 -301.652)" fill="#485a8c"/>
    <path id="Caminho_5652" data-name="Caminho 5652" d="M1766.085,906.11s.917,6.926,1.071,8.517-2.1,5.942-2.1,5.942-5.353,54.106-5.5,57a37.27,37.27,0,0,1-1.672,7.5l-8.888-59.869Z" transform="translate(-480.006 -314.828)" fill="#23375b"/>
    <path id="Caminho_5653" data-name="Caminho 5653" d="M1751.176,888.625s-.554,10.76-.554,13.035a6.359,6.359,0,0,1-1.331,3.827s-6.656,70.111-7.211,72.884-7.766,52.25-7.766,52.25-6.212,2.219-7.765-1.109c0,0,4.327-50.475,4.327-51.807s-7.987-64.992-8.542-69.77a93.8,93.8,0,0,1,0-12.987l23.186-10.428Z" transform="translate(-464.836 -302.657)" fill="#485a8c"/>
    <path id="Caminho_5654" data-name="Caminho 5654" d="M1875.49,613.7c0,.6-4.562,8.748-4.562,8.748l-4.983-1.392s-1.164-7.356-.5-7.521c.211-.046.421.165.641.485.293.431.577,1.054.806,1.429.128.211.247.348.339.321a.752.752,0,0,0,.266-.247c.568-.7,1.612-2.611,1.75-2.748.164-.165.7-5.707,1.41-5.6.348.055,1.484,1.429,2.565,2.913A18.377,18.377,0,0,1,1875.49,613.7Z" transform="translate(-545.54 -146.297)" fill="#f9d5c5"/>
    <path id="Caminho_5655" data-name="Caminho 5655" d="M1874.152,593.613l-5.881-.4a.576.576,0,0,0-.623.558l-.476,12.376c.293.431.577,1.053.806,1.429l.6.073,4.782.632a.594.594,0,0,0,.669-.559l.275-5.506.394-7.988A.583.583,0,0,0,1874.152,593.613Z" transform="translate(-546.63 -138.424)" fill="#fc8856"/>
    <path id="Caminho_5656" data-name="Caminho 5656" d="M1874.318,594.263l-5.364-.388a.537.537,0,0,0-.568.537l-.435,11.9c.267.414.526,1.013.736,1.374l.551.071,4.361.608a.551.551,0,0,0,.61-.537l.251-5.293.359-7.68A.551.551,0,0,0,1874.318,594.263Z" transform="translate(-547.07 -138.799)" fill="#ededed"/>
    <path id="Caminho_5657" data-name="Caminho 5657" d="M1754.584,793.969s-26.373,16.4-33.325,16.919a28.6,28.6,0,0,1-5.78-.11c-3.307-.4-5.112-1.328-5.112-1.594,0-.092-.1-4.37-.248-10.864-.055-2.345-.11-4.983-.174-7.823-.156-6.925-.321-15.014-.458-22.9-.329-17.533-.531-34.086-.165-34.635.788-1.182,17.661-6.889,19.384-7.255,3.472-.733,16.04-2.849,18.394,2.666S1754.584,793.969,1754.584,793.969Z" transform="translate(-457.53 -212.55)" fill="#8b8bf2"/>
    <path id="Caminho_5658" data-name="Caminho 5658" d="M1722.613,774.819c.257,2.721-9.3,26.877-12.2,34.132-.156-6.925-.321-15.014-.458-22.9l7.814-28.626S1722.3,771.613,1722.613,774.819Z" transform="translate(-457.995 -231.004)" fill="#7070e5"/>
    <path id="Caminho_5659" data-name="Caminho 5659" d="M1771.947,674.838s26.054-10.359,27.1-10.884,12.726-27.289,12.726-27.289a7.539,7.539,0,0,1,8.265,2.362s-7.872,28.208-8.4,29.519-29.519,24.8-29.519,24.8Z" transform="translate(-492.946 -162.698)" fill="#8b8bf2"/>
    <path id="Caminho_5660" data-name="Caminho 5660" d="M1716.761,905.933c-3.307-.4-5.112-1.328-5.112-1.594,0-.092-.1-4.37-.247-10.864Z" transform="translate(-458.812 -307.705)" fill="#7070e5"/>
    <path id="Caminho_5661" data-name="Caminho 5661" d="M1711.971,946.259s.776,12.425,1.553,12.425,2.441-9.652,2.441-9.652,1,2.219,1.331,2-1-7.765-1-7.765Z" transform="translate(-459.133 -335.775)" fill="#f9d5c5"/>
    <path id="Caminho_5662" data-name="Caminho 5662" d="M1693.047,835.741a8.482,8.482,0,0,0,6.748-4.756s-9.2-26.792-9.2-28.219,13.158-34.085,13.158-34.085-.793-15.061-2.536-19.024-7.979-6.006-7.979-6.006-1.375,3.68-3.436,10.233-9.195,48.883-9.195,50.151S1693.047,835.741,1693.047,835.741Z" transform="translate(-441.454 -223.238)" fill="#8b8bf2"/>
    <path id="Caminho_5663" data-name="Caminho 5663" d="M1751.928,715.258a3.274,3.274,0,0,1-1.219,1.319,4.133,4.133,0,0,1-1.915.632c-3.16.284-4.067-1.154-4.067-1.154l1.529-10.708,5.561,1.548.275,2.116.357,2.73A5.994,5.994,0,0,0,1751.928,715.258Z" transform="translate(-477.601 -201.644)" fill="#f9d5c5"/>
    <path id="Caminho_5664" data-name="Caminho 5664" d="M1757.811,719.993a3.274,3.274,0,0,1-1.218,1.319v-2.794a9,9,0,0,0-1.429-4.415l2.812-.357.357,2.73A5.994,5.994,0,0,0,1757.811,719.993Z" transform="translate(-483.484 -206.38)" fill="#edb09a"/>
    <path id="Caminho_5665" data-name="Caminho 5665" d="M1748.822,678.379s1.661,6.814,2.348,9.563,1.505,6.648-2,7.559c-4.409,1.146-5.841-4.867-5.841-4.867s-3.951.687-4.123.745-2.978-6.757-3.035-6.929,8.131-6.986,8.131-6.986S1748.117,675.492,1748.822,678.379Z" transform="translate(-472.774 -185.554)" fill="#f9d5c5"/>
    <path id="Caminho_5666" data-name="Caminho 5666" d="M1736.087,677.731a1.215,1.215,0,0,0-2-.572c-1.432,1.031.767,4.844,2.932,4.426l.39.957-2.463,4.3s-9.22-8.475-9.277-9.048,5.1-16.779,14.774-15.233,5.039,12.713,5.039,12.713l-1.248.455-2.532-5.38s-.745,3.321-3.264,3.951-1.832,3.264-1.832,3.264Z" transform="translate(-466.853 -177.461)" fill="#485a8c"/>
    <path id="Caminho_5667" data-name="Caminho 5667" d="M1696.12,876.008c.695,1.478-4.5,0-4.5,0S1695.184,874.017,1696.12,876.008Z" transform="translate(-447.659 -297.359)" fill="#7070e5"/>
    <path id="Caminho_5668" data-name="Caminho 5668" d="M1836.752,699.249c-1.023,1.364,5.08.917,5.08.917S1837.444,698.325,1836.752,699.249Z" transform="translate(-529.415 -198.06)" fill="#7070e5"/>
    <path id="Caminho_5669" data-name="Caminho 5669" d="M1744.478,1095.291c-.189,2.455,7.471-.911,7.471-.911S1744.569,1094.106,1744.478,1095.291Z" transform="translate(-477.457 -420.953)" fill="#23375b"/>
    <path id="Caminho_5670" data-name="Caminho 5670" d="M1251.887,895.981l3.965,1.525s2.745,1.83,2.338,3.456-2.2,3.761-3.13,3.558-2.152-1.83-2.152-1.83-1.529.712-1.529.3-.915-4.569-.915-4.569Z" transform="translate(-198.95 -309.118)" fill="#f9d5c5"/>
    <path id="Caminho_5671" data-name="Caminho 5671" d="M1140.941,749.741s14.5,36.282,16.893,39.05,30.029,24.449,30.029,24.449a3.851,3.851,0,0,1-2.262,4.354l-37.826-19.721-12.686-30.993Z" transform="translate(-133.905 -226.672)" fill="#8b8bf2"/>
    <path id="Caminho_5672" data-name="Caminho 5672" d="M1217.989,715.9s-2.582-3.808-3.291-4-5.422-1.549-5.615-.9,2.988,3.1,2.3,3.808-1.59-.095-1.59.6,5.844,2.865,5.844,2.865Z" transform="translate(-175.615 -204.732)" fill="#f9d5c5"/>
    <path id="Caminho_5673" data-name="Caminho 5673" d="M1152.616,1221.68s5.157,3.2,6.806,3.683.887,1.722.887,1.722-10.265,3.871-11.051,3.587a15.171,15.171,0,0,1-1.848-.889l.3-7.756Z" transform="translate(-140.851 -492.737)" fill="#fc8856"/>
    <path id="Caminho_5674" data-name="Caminho 5674" d="M1140.1,906.968s.168,7.274-.258,8.62,3.016,46.215,3.04,53.92c0,1.932-.393,7.509-.99,14.777l0,.03c-1.769,21.637-5.309,58.2-5.309,58.2-2.085,1.276-7.639.075-7.639.075s2.44-69.73,1.464-73.691-8.67-29.872-12.7-42.556a58.711,58.711,0,0,1-2.038-24.617l6.754,1.454Z" transform="translate(-122.686 -312.353)" fill="#485a8c"/>
    <path id="Caminho_5675" data-name="Caminho 5675" d="M1196.7,1233.536s5.7,3.544,7.525,4.072.981,1.9.981,1.9-11.351,4.282-12.219,3.967a16.756,16.756,0,0,1-2.043-.983l.332-8.576Z" transform="translate(-165.397 -499.421)" fill="#fc8856"/>
    <path id="Caminho_5676" data-name="Caminho 5676" d="M1142.046,908.977s.139,7.275-.329,8.625,3,46.216,2.977,53.924c-.006,1.932-.468,7.514-1.156,14.789.032-1.138-1.917-21.816-5.5-28.538a103.416,103.416,0,0,1-11.369-39.921l-8.034-11.681,4.324-.891Z" transform="translate(-124.628 -314.362)" fill="#23375b"/>
    <path id="Caminho_5677" data-name="Caminho 5677" d="M1164.411,1056.852s5,1.244,6.855-.016c0,0,3.53-65.663,3.452-73.365s-1.822-52.127-1.449-53.468.169-8.616.169-8.616l-28.991-2.313s.7,16.492,4.405,29.2,11.564,35.674,12.468,39.638S1164.411,1056.852,1164.411,1056.852Z" transform="translate(-139.181 -322.137)" fill="#485a8c"/>
    <path id="Caminho_5678" data-name="Caminho 5678" d="M1184.143,726.623l.2,2.808-.577,1.217-1.091,2.315-7.408-.231,4.151-7.108,4.377.923Z" transform="translate(-156.556 -213.077)" fill="#f9d5c5"/>
    <path id="Caminho_5679" data-name="Caminho 5679" d="M1168.544,742.054l1.974-2.323s7.709-.591,9.817,1.488,2.084,3.639,2.084,3.639l-13-.549Z" transform="translate(-152.766 -220.986)" fill="#fc8856"/>
    <path id="Caminho_5680" data-name="Caminho 5680" d="M1111.906,814.355c.008.389.016.778.024,1.175,0,0,15.1,10.2,45.842,8.52,0,0,.23-3.764.548-9.536q.036-.584.072-1.191v-.055c.135-2.5.294-5.336.46-8.37.874-16.136,1.962-37.949,1.993-46.517a25.882,25.882,0,0,0-.119-3.391c-.27-1.532-6.059-8.814-17.033-9.9-9.632-.953-18.851,2.565-19.8,4.1-.7,1.136-7.377,17.612-10.458,40.347-.421,3.113-.778,6.352-1.04,9.672C1112,804.072,1111.818,809.155,1111.906,814.355Z" transform="translate(-120.823 -223.959)" fill="#8b8bf2"/>
    <path id="Caminho_5681" data-name="Caminho 5681" d="M1192.979,727.817l.2,2.808-.577,1.217a4.36,4.36,0,0,1-1.661-2.819l1.691-1.282Z" transform="translate(-165.393 -214.27)" fill="#edb09a"/>
    <path id="Caminho_5682" data-name="Caminho 5682" d="M1184.163,704.544a49.35,49.35,0,0,1,2.213,5.456c.856,2.657,1.064,4.959-1.612,6.173s-3.982-2.124-3.982-2.124l-2.226,1.272-4.873-5.268,7.581-7.442A3.812,3.812,0,0,1,1184.163,704.544Z" transform="translate(-155.663 -200.102)" fill="#f9d5c5"/>
    <path id="Caminho_5683" data-name="Caminho 5683" d="M1176.83,702.352s-.448-1.928-1.752-1.361.283,4.108,1.89,3.311l-.656,2.482s-3.369.513-3.373.521-4.681-5.64-5.023-6.276,1.229-7.4,6.02-8.941,2.309-6.4,5.148-5.933,4.55,8.215,1.66,10.21-3.806,3.529-3.465,5.2Z" transform="translate(-152.387 -190.807)" fill="#485a8c"/>
    <path id="Caminho_5684" data-name="Caminho 5684" d="M1205.969,784.928c3.526,5.916,5.169,8.378,5.169,8.378l-.469,32.986c.135-2.5.294-5.336.46-8.37.874-16.136,1.962-37.949,1.993-46.517l-6.184-3.376S1202.435,779.02,1205.969,784.928Z" transform="translate(-173.102 -236.983)" fill="#7070e5"/>
    <path id="Caminho_5685" data-name="Caminho 5685" d="M1184.783,721.932s-.065-.6.421-.654.326.823.642,1.2l.316.379s-.579,0-.69-.464S1185.375,721.155,1184.783,721.932Z" transform="translate(-161.92 -210.625)" fill="#edb09a"/>
    <path id="Caminho_5686" data-name="Caminho 5686" d="M1207.719,748.6c-.3,7.687,6.81,12.693,6.81,12.693s32.93-12.208,35.344-17.865c1.085-2.543-31.672-22.4-31.672-22.4s-4.8-1.547-5.05,3.441c0,0,20.848,14.57,19.8,15.081s-22.854-3.388-22.854-3.388A49.251,49.251,0,0,0,1207.719,748.6Z" transform="translate(-174.846 -210.356)" fill="#8b8bf2"/>
    <path id="Caminho_5687" data-name="Caminho 5687" d="M1114.466,553.735c0-14.212-17.246-25.733-38.521-25.733s-38.52,11.521-38.52,25.733,17.246,25.732,38.52,25.732a52.413,52.413,0,0,0,22.08-4.652,10.427,10.427,0,0,1,.057,9.143s6.676-5.608,4.317-11.524l0,0C1109.824,567.741,1114.466,561.1,1114.466,553.735Z" transform="translate(-78.845 -101.663)" fill="#bfbfbf"/>
    <circle id="Elipse_462" data-name="Elipse 462" cx="8.826" cy="8.826" r="8.826" transform="translate(968.342 442.823)" fill="#e4edeb"/>
    <circle id="Elipse_463" data-name="Elipse 463" cx="6.052" cy="6.052" r="6.052" transform="translate(996.346 448.37)" fill="#e4edeb"/>
    <circle id="Elipse_464" data-name="Elipse 464" cx="3.931" cy="3.931" r="3.931" transform="translate(1015.549 452.612)" fill="#e4edeb"/>
  </g>
</svg>
